<svg width="287" height="150" viewBox="0 0 287 150" fill="none" xmlns="http://www.w3.org/2000/svg">
<g filter="url(#filter0_dd_347_14602)">
<path d="M9 25C9 13.9543 17.9543 5 29 5H258C269.046 5 278 13.9543 278 25V137H29C17.9543 137 9 128.046 9 117V25Z" fill="white"/>
<path d="M26.233 37L26.233 26.8182H32.3381V27.9119H27.4659L27.4659 31.3523H31.8807V32.446H27.4659V37H26.233ZM36.5378 37.179C36.0539 37.179 35.6148 37.0878 35.2203 36.9055C34.8259 36.7199 34.5127 36.4531 34.2807 36.1051C34.0487 35.7538 33.9327 35.3295 33.9327 34.8324C33.9327 34.3949 34.0189 34.0402 34.1912 33.7685C34.3636 33.4934 34.5939 33.2779 34.8823 33.1222C35.1706 32.9664 35.4888 32.8504 35.8368 32.7741C36.1882 32.6946 36.5411 32.6316 36.8958 32.5852C37.3598 32.5256 37.736 32.4808 38.0243 32.451C38.316 32.4179 38.5281 32.3632 38.6607 32.2869C38.7966 32.2107 38.8645 32.0781 38.8645 31.8892V31.8494C38.8645 31.3589 38.7303 30.9777 38.4618 30.706C38.1967 30.4342 37.794 30.2983 37.2537 30.2983C36.6936 30.2983 36.2544 30.4209 35.9363 30.6662C35.6181 30.9115 35.3944 31.1733 35.2651 31.4517L34.1515 31.054C34.3503 30.59 34.6155 30.2287 34.9469 29.9702C35.2817 29.7083 35.6462 29.526 36.0407 29.4233C36.4384 29.3172 36.8295 29.2642 37.214 29.2642C37.4592 29.2642 37.7409 29.294 38.0591 29.3537C38.3806 29.41 38.6905 29.5277 38.9888 29.7067C39.2904 29.8857 39.5407 30.1558 39.7395 30.517C39.9384 30.8783 40.0378 31.3622 40.0378 31.9688V37H38.8645V35.9659H38.8049C38.7253 36.1316 38.5927 36.3089 38.4071 36.4979C38.2215 36.6868 37.9746 36.8475 37.6664 36.9801C37.3581 37.1127 36.9819 37.179 36.5378 37.179ZM36.7168 36.125C37.1808 36.125 37.5719 36.0339 37.8901 35.8516C38.2116 35.6693 38.4535 35.4339 38.6159 35.1456C38.7817 34.8572 38.8645 34.554 38.8645 34.2358V33.1619C38.8148 33.2216 38.7054 33.2763 38.5364 33.326C38.3707 33.3724 38.1784 33.4138 37.9597 33.4503C37.7443 33.4834 37.5338 33.5133 37.3283 33.5398C37.1261 33.563 36.9621 33.5829 36.8361 33.5994C36.5312 33.6392 36.2462 33.7038 35.981 33.7933C35.7192 33.8795 35.507 34.0104 35.3446 34.1861C35.1855 34.3584 35.106 34.5937 35.106 34.892C35.106 35.2997 35.2568 35.608 35.5584 35.8168C35.8633 36.0223 36.2495 36.125 36.7168 36.125ZM45.2816 37.1591C44.5657 37.1591 43.9492 36.9901 43.4322 36.652C42.9151 36.3139 42.5174 35.8482 42.239 35.255C41.9606 34.6617 41.8214 33.9839 41.8214 33.2216C41.8214 32.446 41.9639 31.7616 42.2489 31.1683C42.5373 30.5717 42.9383 30.1061 43.4521 29.7713C43.9691 29.4332 44.5723 29.2642 45.2617 29.2642C45.7987 29.2642 46.2826 29.3636 46.7134 29.5625C47.1443 29.7614 47.4973 30.0398 47.7724 30.3977C48.0475 30.7557 48.2182 31.1733 48.2844 31.6506H47.1112C47.0217 31.3026 46.8228 30.9943 46.5146 30.7259C46.2096 30.4541 45.7987 30.3182 45.2816 30.3182C44.8242 30.3182 44.4232 30.4375 44.0785 30.6761C43.7371 30.9115 43.4703 31.2446 43.2781 31.6754C43.0891 32.103 42.9947 32.6051 42.9947 33.1818C42.9947 33.7718 43.0875 34.2855 43.2731 34.723C43.462 35.1605 43.7272 35.5002 44.0685 35.7422C44.4132 35.9841 44.8176 36.1051 45.2816 36.1051C45.5865 36.1051 45.8633 36.0521 46.1119 35.946C46.3604 35.84 46.5709 35.6875 46.7433 35.4886C46.9156 35.2898 47.0382 35.0511 47.1112 34.7727H48.2844C48.2182 35.2235 48.0541 35.6295 47.7923 35.9908C47.5337 36.3487 47.1907 36.6338 46.7631 36.8459C46.3389 37.0547 45.8451 37.1591 45.2816 37.1591ZM49.9996 37V29.3636H51.1729V37H49.9996ZM50.5962 28.0909C50.3675 28.0909 50.1703 28.013 50.0046 27.8572C49.8422 27.7015 49.761 27.5142 49.761 27.2955C49.761 27.0767 49.8422 26.8894 50.0046 26.7337C50.1703 26.5779 50.3675 26.5 50.5962 26.5C50.8249 26.5 51.0205 26.5779 51.1829 26.7337C51.3486 26.8894 51.4315 27.0767 51.4315 27.2955C51.4315 27.5142 51.3486 27.7015 51.1829 27.8572C51.0205 28.013 50.8249 28.0909 50.5962 28.0909ZM54.4952 26.8182V37H53.3219V26.8182H54.4952ZM56.6442 37V29.3636H57.8175L57.8175 37H56.6442ZM57.2408 28.0909C57.0121 28.0909 56.8149 28.013 56.6491 27.8572C56.4867 27.7015 56.4055 27.5142 56.4055 27.2955C56.4055 27.0767 56.4867 26.8894 56.6491 26.7337C56.8149 26.5779 57.0121 26.5 57.2408 26.5C57.4695 26.5 57.665 26.5779 57.8274 26.7337C57.9931 26.8894 58.076 27.0767 58.076 27.2955C58.076 27.5142 57.9931 27.7015 57.8274 27.8572C57.665 28.013 57.4695 28.0909 57.2408 28.0909ZM63.2875 29.3636V30.358H59.3301V29.3636H63.2875ZM60.4835 27.5341H61.6568V34.8125C61.6568 35.1439 61.7048 35.3925 61.801 35.5582C61.9004 35.7206 62.0263 35.83 62.1788 35.8864C62.3346 35.9394 62.4986 35.9659 62.671 35.9659C62.8002 35.9659 62.9063 35.9593 62.9892 35.946C63.072 35.9295 63.1383 35.9162 63.188 35.9063L63.4267 36.9602C63.3471 36.9901 63.2361 37.0199 63.0936 37.0497C62.9511 37.0829 62.7704 37.0994 62.5517 37.0994C62.2202 37.0994 61.8954 37.0282 61.5772 36.8857C61.2624 36.7431 61.0005 36.526 60.7917 36.2344C60.5862 35.9427 60.4835 35.5748 60.4835 35.1307V27.5341ZM65.8081 39.8636C65.6092 39.8636 65.4319 39.8471 65.2761 39.8139C65.1203 39.7841 65.0126 39.7543 64.9529 39.7244L65.2512 38.6903C65.5363 38.7633 65.7882 38.7898 66.0069 38.7699C66.2257 38.75 66.4196 38.6522 66.5886 38.4766C66.7609 38.3042 66.9184 38.0241 67.0609 37.6364L67.2797 37.0398L64.4558 29.3636L65.7285 29.3636L67.8365 35.4489H67.916L70.024 29.3636H71.2967L68.0552 38.1136C67.9094 38.508 67.7288 38.8345 67.5133 39.093C67.2979 39.3549 67.0476 39.5488 66.7626 39.6747C66.4809 39.8007 66.1627 39.8636 65.8081 39.8636ZM85.1351 30H83.9022C83.8293 29.6454 83.7016 29.3338 83.5194 29.0653C83.3404 28.7969 83.1216 28.5715 82.8631 28.3892C82.6079 28.2036 82.3245 28.0644 82.013 27.9716C81.7014 27.8788 81.3766 27.8324 81.0385 27.8324C80.4221 27.8324 79.8636 27.9882 79.3631 28.2997C78.8659 28.6113 78.4699 29.0703 78.1749 29.6768C77.8832 30.2834 77.7374 31.0275 77.7374 31.9091C77.7374 32.7907 77.8832 33.5348 78.1749 34.1413C78.4699 34.7479 78.8659 35.2069 79.3631 35.5185C79.8636 35.83 80.4221 35.9858 81.0385 35.9858C81.3766 35.9858 81.7014 35.9394 82.013 35.8466C82.3245 35.7538 82.6079 35.6162 82.8631 35.4339C83.1216 35.2483 83.3404 35.0213 83.5194 34.7528C83.7016 34.4811 83.8293 34.1695 83.9022 33.8182H85.1351C85.0423 34.3385 84.8733 34.8042 84.628 35.2152C84.3828 35.6262 84.0778 35.9759 83.7132 36.2642C83.3487 36.5492 82.9393 36.7663 82.4853 36.9155C82.0345 37.0646 81.5523 37.1392 81.0385 37.1392C80.1702 37.1392 79.3979 36.9271 78.7218 36.5028C78.0456 36.0786 77.5137 35.4754 77.1259 34.6932C76.7381 33.911 76.5442 32.983 76.5442 31.9091C76.5442 30.8352 76.7381 29.9072 77.1259 29.125C77.5137 28.3428 78.0456 27.7396 78.7218 27.3153C79.3979 26.8911 80.1702 26.679 81.0385 26.679C81.5523 26.679 82.0345 26.7536 82.4853 26.9027C82.9393 27.0518 83.3487 27.2706 83.7132 27.5589C84.0778 27.844 84.3828 28.192 84.628 28.603C84.8733 29.0107 85.0423 29.4763 85.1351 30ZM89.2156 37.179C88.7317 37.179 88.2925 37.0878 87.8981 36.9055C87.5037 36.7199 87.1905 36.4531 86.9585 36.1051C86.7264 35.7538 86.6104 35.3295 86.6104 34.8324C86.6104 34.3949 86.6966 34.0402 86.869 33.7685C87.0413 33.4934 87.2717 33.2779 87.56 33.1222C87.8484 32.9664 88.1665 32.8504 88.5146 32.7741C88.8659 32.6946 89.2189 32.6316 89.5735 32.5852C90.0375 32.5256 90.4137 32.4808 90.7021 32.451C90.9937 32.4179 91.2058 32.3632 91.3384 32.2869C91.4743 32.2107 91.5423 32.0781 91.5423 31.8892V31.8494C91.5423 31.3589 91.408 30.9777 91.1396 30.706C90.8744 30.4342 90.4717 30.2983 89.9315 30.2983C89.3713 30.2983 88.9322 30.4209 88.614 30.6662C88.2958 30.9115 88.0721 31.1733 87.9428 31.4517L86.8292 31.054C87.0281 30.59 87.2932 30.2287 87.6246 29.9702C87.9594 29.7083 88.324 29.526 88.7184 29.4233C89.1161 29.3172 89.5072 29.2642 89.8917 29.2642C90.137 29.2642 90.4187 29.294 90.7369 29.3537C91.0584 29.41 91.3683 29.5277 91.6665 29.7067C91.9682 29.8857 92.2184 30.1558 92.4173 30.517C92.6161 30.8783 92.7156 31.3622 92.7156 31.9688V37H91.5423V35.9659H91.4826C91.4031 36.1316 91.2705 36.3089 91.0849 36.4979C90.8993 36.6868 90.6523 36.8475 90.3441 36.9801C90.0359 37.1127 89.6597 37.179 89.2156 37.179ZM89.3945 36.125C89.8585 36.125 90.2496 36.0339 90.5678 35.8516C90.8893 35.6693 91.1313 35.4339 91.2937 35.1456C91.4594 34.8572 91.5423 34.554 91.5423 34.2358V33.1619C91.4925 33.2216 91.3832 33.2763 91.2141 33.326C91.0484 33.3724 90.8562 33.4138 90.6374 33.4503C90.422 33.4834 90.2115 33.5133 90.006 33.5398C89.8039 33.563 89.6398 33.5829 89.5138 33.5994C89.2089 33.6392 88.9239 33.7038 88.6587 33.7933C88.3969 33.8795 88.1848 34.0104 88.0224 34.1861C87.8633 34.3584 87.7837 34.5937 87.7837 34.892C87.7837 35.2997 87.9345 35.608 88.2362 35.8168C88.5411 36.0223 88.9272 36.125 89.3945 36.125ZM94.8571 37V29.3636H95.9906V30.517H96.0701C96.2093 30.1392 96.4612 29.8326 96.8258 29.5973C97.1904 29.362 97.6014 29.2443 98.0588 29.2443C98.1449 29.2443 98.2527 29.246 98.3819 29.2493C98.5112 29.2526 98.609 29.2576 98.6752 29.2642V30.4574C98.6355 30.4474 98.5443 30.4325 98.4018 30.4126C98.2626 30.3894 98.1151 30.3778 97.9593 30.3778C97.5881 30.3778 97.2567 30.4557 96.965 30.6115C96.6767 30.764 96.448 30.9761 96.2789 31.2479C96.1132 31.5163 96.0304 31.8229 96.0304 32.1676V37H94.8571ZM103.035 37.1591C102.3 37.1591 101.665 36.9967 101.131 36.6719C100.601 36.3438 100.192 35.8864 99.9032 35.2997C99.6182 34.7098 99.4757 34.0237 99.4757 33.2415C99.4757 32.4593 99.6182 31.7699 99.9032 31.1733C100.192 30.5734 100.593 30.1061 101.106 29.7713C101.623 29.4332 102.227 29.2642 102.916 29.2642C103.314 29.2642 103.706 29.3305 104.094 29.4631C104.482 29.5956 104.835 29.8111 105.153 30.1094C105.471 30.4044 105.725 30.7955 105.914 31.2827C106.103 31.7699 106.197 32.3698 106.197 33.0824V33.5795L100.311 33.5795V32.5653L105.004 32.5653C105.004 32.1345 104.918 31.75 104.746 31.4119C104.577 31.0739 104.335 30.8071 104.02 30.6115C103.708 30.416 103.34 30.3182 102.916 30.3182C102.449 30.3182 102.044 30.4342 101.703 30.6662C101.365 30.8949 101.105 31.1932 100.922 31.5611C100.74 31.929 100.649 32.3234 100.649 32.7443V33.4205C100.649 33.9972 100.748 34.486 100.947 34.8871C101.149 35.2848 101.43 35.5881 101.787 35.7969C102.145 36.0024 102.561 36.1051 103.035 36.1051C103.344 36.1051 103.622 36.062 103.871 35.9759C104.122 35.8864 104.34 35.7538 104.522 35.5781C104.704 35.3991 104.845 35.1771 104.944 34.9119L106.078 35.2301C105.959 35.6146 105.758 35.9527 105.476 36.2443C105.195 36.5327 104.847 36.758 104.432 36.9205C104.018 37.0795 103.552 37.1591 103.035 37.1591Z" fill="#9095A0"/>
<rect x="218" y="21" width="44" height="44" rx="6" fill="#0957A0"/>
<path d="M239.991 34.7C235.409 34.7 231.699 38.4184 231.699 43C231.699 47.5816 235.409 51.3 239.991 51.3C244.581 51.3 248.299 47.5816 248.299 43C248.299 38.4184 244.581 34.7 239.991 34.7ZM239.999 49.64C236.331 49.64 233.359 46.6686 233.359 43C233.359 39.3314 236.331 36.36 239.999 36.36C243.668 36.36 246.639 39.3314 246.639 43C246.639 46.6686 243.668 49.64 239.999 49.64ZM242.904 42.17C243.593 42.17 244.149 41.6139 244.149 40.925C244.149 40.2361 243.593 39.68 242.904 39.68C242.215 39.68 241.659 40.2361 241.659 40.925C241.659 41.6139 242.215 42.17 242.904 42.17ZM237.094 42.17C237.783 42.17 238.339 41.6139 238.339 40.925C238.339 40.2361 237.783 39.68 237.094 39.68C236.405 39.68 235.849 40.2361 235.849 40.925C235.849 41.6139 236.405 42.17 237.094 42.17ZM239.999 47.565C241.933 47.565 243.577 46.3532 244.241 44.66L235.758 44.66C236.422 46.3532 238.065 47.565 239.999 47.565Z" fill="white"/>
<path d="M26.632 82V80.848C26.632 79.888 26.8027 79.0133 27.144 78.224C27.4853 77.4347 27.9547 76.7093 28.552 76.048C29.1493 75.3867 29.8107 74.7573 30.536 74.16C31.2613 73.5627 32.008 72.9867 32.776 72.432C33.6507 71.7707 34.472 71.12 35.24 70.48C36.0293 69.84 36.6693 69.1573 37.16 68.432C37.6507 67.6853 37.896 66.864 37.896 65.968C37.896 65.5413 37.7893 65.1147 37.576 64.688C37.3627 64.2613 37.0213 63.9093 36.552 63.632C36.104 63.3333 35.496 63.184 34.728 63.184C33.9387 63.184 33.288 63.3227 32.776 63.6C32.264 63.856 31.8693 64.2293 31.592 64.72C31.336 65.1893 31.208 65.776 31.208 66.48L31.208 67.632H26.92C26.8987 67.5253 26.8773 67.376 26.856 67.184C26.8347 66.992 26.824 66.7573 26.824 66.48C26.824 64.9227 27.176 63.6427 27.88 62.64C28.6053 61.6373 29.576 60.8907 30.792 60.4C32.0293 59.9093 33.4267 59.664 34.984 59.664C36.392 59.664 37.5653 59.8667 38.504 60.272C39.464 60.656 40.232 61.1787 40.808 61.84C41.384 62.48 41.7893 63.184 42.024 63.952C42.28 64.6987 42.408 65.424 42.408 66.128C42.408 67.1307 42.2267 68.048 41.864 68.88C41.5013 69.712 41.0107 70.4907 40.392 71.216C39.7733 71.9413 39.0373 72.6453 38.184 73.328C37.3307 73.9893 36.424 74.6507 35.464 75.312C34.9733 75.6533 34.504 75.984 34.056 76.304C33.6293 76.624 33.256 76.9333 32.936 77.232C32.6373 77.5093 32.4027 77.7867 32.232 78.064H42.568V82H26.632ZM54.8785 82V77.2H44.9905V73.648C45.8225 72.3253 46.6012 70.928 47.3265 69.456C48.0518 67.984 48.7238 66.4267 49.3425 64.784C49.9825 63.1413 50.5158 61.4347 50.9425 59.664H55.5185C55.2838 60.688 54.9532 61.7653 54.5265 62.896C54.1212 64.0267 53.6518 65.1467 53.1185 66.256C52.5852 67.3653 52.0412 68.4107 51.4865 69.392C50.9532 70.352 50.4412 71.2053 49.9505 71.952C49.4598 72.6987 49.0438 73.264 48.7025 73.648H54.8785L54.8785 68.336C55.0918 67.9307 55.3052 67.4933 55.5185 67.024C55.7532 66.5333 55.9772 66.0427 56.1905 65.552C56.4038 65.04 56.5958 64.5387 56.7665 64.048C56.9585 63.5573 57.1078 63.0987 57.2145 62.672H59.2625V73.648L62.0785 73.648V77.2L59.2625 77.2V82H54.8785ZM69.4375 83.568L75.9975 58.48H79.0375L72.4775 83.568H69.4375ZM90.0805 82C90.0805 80.272 90.2832 78.576 90.6885 76.912C91.1152 75.248 91.6912 73.648 92.4165 72.112C93.1418 70.576 93.9525 69.1253 94.8485 67.76C95.7658 66.3733 96.7045 65.1253 97.6645 64.016H86.7845V60.048L103.073 60.048V62.672C102.326 63.568 101.569 64.5387 100.801 65.584C100.033 66.6293 99.2965 67.7387 98.5925 68.912C97.9098 70.064 97.2912 71.2693 96.7365 72.528C96.1818 73.7653 95.7445 75.0453 95.4245 76.368C95.1045 77.6693 94.9445 78.9813 94.9445 80.304V82H90.0805Z" fill="#EA916E"/>
<path d="M45.3153 115.139C44.6326 115.139 44.0294 115.018 43.5057 114.776C42.9853 114.531 42.5793 114.195 42.2876 113.767C41.996 113.336 41.8518 112.846 41.8551 112.295C41.8518 111.865 41.9363 111.467 42.1087 111.102C42.281 110.734 42.5163 110.428 42.8146 110.183C43.1162 109.934 43.4527 109.777 43.8239 109.71V109.651C43.3366 109.525 42.9489 109.251 42.6605 108.83C42.3722 108.406 42.2296 107.924 42.233 107.384C42.2296 106.866 42.3606 106.404 42.6257 105.996C42.8909 105.589 43.2554 105.267 43.7195 105.032C44.1868 104.797 44.7188 104.679 45.3153 104.679C45.9053 104.679 46.4323 104.797 46.8963 105.032C47.3603 105.267 47.7249 105.589 47.9901 105.996C48.2585 106.404 48.3944 106.866 48.3977 107.384C48.3944 107.924 48.2469 108.406 47.9553 108.83C47.6669 109.251 47.2841 109.525 46.8068 109.651V109.71C47.1747 109.777 47.5062 109.934 47.8011 110.183C48.0961 110.428 48.3314 110.734 48.5071 111.102C48.6828 111.467 48.7723 111.865 48.7756 112.295C48.7723 112.846 48.6231 113.336 48.3281 113.767C48.0365 114.195 47.6304 114.531 47.1101 114.776C46.593 115.018 45.9948 115.139 45.3153 115.139ZM45.3153 114.045C45.776 114.045 46.1738 113.971 46.5085 113.822C46.8433 113.673 47.1018 113.462 47.2841 113.19C47.4664 112.919 47.5592 112.6 47.5625 112.236C47.5592 111.851 47.4598 111.512 47.2642 111.217C47.0687 110.922 46.8018 110.69 46.4638 110.521C46.129 110.352 45.7462 110.267 45.3153 110.267C44.8812 110.267 44.4934 110.352 44.152 110.521C43.8139 110.69 43.5471 110.922 43.3516 111.217C43.1593 111.512 43.0649 111.851 43.0682 112.236C43.0649 112.6 43.1527 112.919 43.3317 113.19C43.514 113.462 43.7741 113.673 44.1122 113.822C44.4503 113.971 44.8513 114.045 45.3153 114.045ZM45.3153 109.213C45.6799 109.213 46.0031 109.14 46.2848 108.994C46.5698 108.848 46.7936 108.645 46.956 108.383C47.1184 108.121 47.2012 107.814 47.2045 107.463C47.2012 107.118 47.12 106.818 46.9609 106.563C46.8018 106.305 46.5814 106.106 46.2997 105.967C46.018 105.824 45.6899 105.753 45.3153 105.753C44.9342 105.753 44.6011 105.824 44.3161 105.967C44.031 106.106 43.8106 106.305 43.6548 106.563C43.4991 106.818 43.4228 107.118 43.4261 107.463C43.4228 107.814 43.5007 108.121 43.6598 108.383C43.8222 108.645 44.0459 108.848 44.331 108.994C44.616 109.14 44.9441 109.213 45.3153 109.213ZM53.8627 115.139C53.2794 115.139 52.7541 115.023 52.2868 114.791C51.8194 114.559 51.4449 114.241 51.1632 113.837C50.8815 113.432 50.7273 112.972 50.7008 112.455H51.894C51.9404 112.915 52.1492 113.296 52.5204 113.598C52.8949 113.896 53.3424 114.045 53.8627 114.045C54.2804 114.045 54.6516 113.948 54.9764 113.752C55.3045 113.557 55.5614 113.288 55.747 112.947C55.9359 112.602 56.0304 112.213 56.0304 111.778C56.0304 111.334 55.9326 110.938 55.737 110.59C55.5448 110.239 55.2797 109.962 54.9416 109.76C54.6035 109.558 54.2174 109.455 53.7832 109.452C53.4717 109.448 53.1518 109.496 52.8237 109.596C52.4956 109.692 52.2254 109.816 52.0133 109.969L50.8599 109.83L51.4764 104.818H56.7662V105.912H52.5105L52.1525 108.915H52.2122C52.421 108.749 52.6828 108.612 52.9977 108.502C53.3126 108.393 53.6407 108.338 53.9821 108.338C54.6052 108.338 55.1603 108.487 55.6475 108.786C56.1381 109.08 56.5225 109.485 56.801 109.999C57.0827 110.512 57.2235 111.099 57.2235 111.759C57.2235 112.408 57.0777 112.988 56.786 113.499C56.4977 114.006 56.1 114.407 55.5929 114.702C55.0858 114.993 54.5091 115.139 53.8627 115.139ZM64.3888 113.091V112.554C64.3888 112.183 64.4651 111.843 64.6175 111.535C64.7733 111.223 64.9987 110.975 65.2937 110.789C65.592 110.6 65.9532 110.506 66.3775 110.506C66.8084 110.506 67.1696 110.6 67.4613 110.789C67.753 110.975 67.9734 111.223 68.1225 111.535C68.2717 111.843 68.3462 112.183 68.3462 112.554V113.091C68.3462 113.462 68.27 113.804 68.1175 114.115C67.9684 114.423 67.7463 114.672 67.4513 114.861C67.1597 115.046 66.8017 115.139 66.3775 115.139C65.9466 115.139 65.5837 115.046 65.2887 114.861C64.9937 114.672 64.77 114.423 64.6175 114.115C64.4651 113.804 64.3888 113.462 64.3888 113.091ZM65.4031 112.554V113.091C65.4031 113.399 65.476 113.676 65.6218 113.921C65.7676 114.163 66.0195 114.284 66.3775 114.284C66.7255 114.284 66.9708 114.163 67.1133 113.921C67.2591 113.676 67.332 113.399 67.332 113.091V112.554C67.332 112.246 67.2624 111.971 67.1232 111.729C66.984 111.483 66.7354 111.361 66.3775 111.361C66.0295 111.361 65.7792 111.483 65.6268 111.729C65.4776 111.971 65.4031 112.246 65.4031 112.554ZM59.3178 107.264V106.727C59.3178 106.356 59.3941 106.016 59.5465 105.708C59.7023 105.397 59.9277 105.148 60.2227 104.962C60.521 104.773 60.8822 104.679 61.3065 104.679C61.7373 104.679 62.0986 104.773 62.3903 104.962C62.6819 105.148 62.9023 105.397 63.0515 105.708C63.2006 106.016 63.2752 106.356 63.2752 106.727V107.264C63.2752 107.635 63.199 107.977 63.0465 108.288C62.8974 108.597 62.6753 108.845 62.3803 109.034C62.0887 109.22 61.7307 109.312 61.3065 109.312C60.8756 109.312 60.5127 109.22 60.2177 109.034C59.9227 108.845 59.699 108.597 59.5465 108.288C59.3941 107.977 59.3178 107.635 59.3178 107.264ZM60.332 106.727V107.264C60.332 107.572 60.4049 107.849 60.5508 108.094C60.6966 108.336 60.9485 108.457 61.3065 108.457C61.6545 108.457 61.8997 108.336 62.0423 108.094C62.1881 107.849 62.261 107.572 62.261 107.264V106.727C62.261 106.419 62.1914 106.144 62.0522 105.902C61.913 105.657 61.6644 105.534 61.3065 105.534C60.9585 105.534 60.7082 105.657 60.5558 105.902C60.4066 106.144 60.332 106.419 60.332 106.727ZM59.6957 115L66.6957 104.818H67.8292L60.8292 115H59.6957Z" fill="#14923E"/>
<path d="M82.6506 115H81.358L85.0966 104.818H86.3693L90.108 115H88.8153L85.7727 106.429H85.6932L82.6506 115ZM83.1278 111.023H88.3381V112.116H83.1278V111.023ZM94.6371 115.159C93.9212 115.159 93.3047 114.99 92.7876 114.652C92.2706 114.314 91.8729 113.848 91.5945 113.255C91.3161 112.662 91.1768 111.984 91.1768 111.222C91.1768 110.446 91.3194 109.762 91.6044 109.168C91.8928 108.572 92.2938 108.106 92.8075 107.771C93.3246 107.433 93.9278 107.264 94.6172 107.264C95.1541 107.264 95.638 107.364 96.0689 107.562C96.4998 107.761 96.8527 108.04 97.1278 108.398C97.4029 108.756 97.5736 109.173 97.6399 109.651H96.4666C96.3771 109.303 96.1783 108.994 95.87 108.726C95.5651 108.454 95.1541 108.318 94.6371 108.318C94.1797 108.318 93.7786 108.437 93.4339 108.676C93.0926 108.911 92.8258 109.245 92.6335 109.675C92.4446 110.103 92.3501 110.605 92.3501 111.182C92.3501 111.772 92.4429 112.286 92.6286 112.723C92.8175 113.161 93.0826 113.5 93.424 113.742C93.7687 113.984 94.1731 114.105 94.6371 114.105C94.942 114.105 95.2188 114.052 95.4673 113.946C95.7159 113.84 95.9264 113.688 96.0987 113.489C96.2711 113.29 96.3937 113.051 96.4666 112.773H97.6399C97.5736 113.223 97.4096 113.629 97.1477 113.991C96.8892 114.349 96.5462 114.634 96.1186 114.846C95.6944 115.055 95.2005 115.159 94.6371 115.159ZM102.676 107.364V108.358H98.7188V107.364H102.676ZM99.8722 105.534H101.045V112.812C101.045 113.144 101.094 113.393 101.19 113.558C101.289 113.721 101.415 113.83 101.567 113.886C101.723 113.939 101.887 113.966 102.06 113.966C102.189 113.966 102.295 113.959 102.378 113.946C102.461 113.929 102.527 113.916 102.577 113.906L102.815 114.96C102.736 114.99 102.625 115.02 102.482 115.05C102.34 115.083 102.159 115.099 101.94 115.099C101.609 115.099 101.284 115.028 100.966 114.886C100.651 114.743 100.389 114.526 100.18 114.234C99.9749 113.943 99.8722 113.575 99.8722 113.131V105.534ZM104.441 115V107.364H105.614V115H104.441ZM105.038 106.091C104.809 106.091 104.612 106.013 104.446 105.857C104.284 105.701 104.202 105.514 104.202 105.295C104.202 105.077 104.284 104.889 104.446 104.734C104.612 104.578 104.809 104.5 105.038 104.5C105.266 104.5 105.462 104.578 105.624 104.734C105.79 104.889 105.873 105.077 105.873 105.295C105.873 105.514 105.79 105.701 105.624 105.857C105.462 106.013 105.266 106.091 105.038 106.091ZM114.008 107.364L111.184 115H109.991L107.167 107.364H108.439L110.547 113.449H110.627L112.735 107.364L114.008 107.364ZM118.485 115.159C117.749 115.159 117.114 114.997 116.58 114.672C116.05 114.344 115.641 113.886 115.352 113.3C115.067 112.71 114.925 112.024 114.925 111.241C114.925 110.459 115.067 109.77 115.352 109.173C115.641 108.573 116.042 108.106 116.556 107.771C117.073 107.433 117.676 107.264 118.365 107.264C118.763 107.264 119.156 107.33 119.544 107.463C119.931 107.596 120.284 107.811 120.602 108.109C120.921 108.404 121.174 108.795 121.363 109.283C121.552 109.77 121.646 110.37 121.646 111.082V111.58H115.76V110.565H120.453C120.453 110.134 120.367 109.75 120.195 109.412C120.026 109.074 119.784 108.807 119.469 108.612C119.157 108.416 118.789 108.318 118.365 108.318C117.898 108.318 117.494 108.434 117.152 108.666C116.814 108.895 116.554 109.193 116.372 109.561C116.189 109.929 116.098 110.323 116.098 110.744V111.42C116.098 111.997 116.198 112.486 116.396 112.887C116.599 113.285 116.879 113.588 117.237 113.797C117.595 114.002 118.011 114.105 118.485 114.105C118.793 114.105 119.071 114.062 119.32 113.976C119.572 113.886 119.789 113.754 119.971 113.578C120.153 113.399 120.294 113.177 120.394 112.912L121.527 113.23C121.408 113.615 121.207 113.953 120.926 114.244C120.644 114.533 120.296 114.758 119.882 114.92C119.467 115.08 119.002 115.159 118.485 115.159ZM130.252 115.159C129.616 115.159 129.054 114.998 128.567 114.677C128.08 114.352 127.699 113.895 127.423 113.305C127.148 112.711 127.011 112.01 127.011 111.202C127.011 110.4 127.148 109.704 127.423 109.114C127.699 108.524 128.081 108.068 128.572 107.746C129.062 107.425 129.629 107.264 130.272 107.264C130.769 107.264 131.162 107.347 131.45 107.513C131.742 107.675 131.964 107.861 132.117 108.07C132.272 108.275 132.393 108.444 132.48 108.577H132.579V104.818H133.752V115H132.619V113.827H132.48C132.393 113.966 132.271 114.142 132.112 114.354C131.953 114.562 131.726 114.75 131.431 114.915C131.136 115.078 130.743 115.159 130.252 115.159ZM130.411 114.105C130.882 114.105 131.28 113.982 131.605 113.737C131.929 113.489 132.176 113.146 132.345 112.708C132.514 112.267 132.599 111.759 132.599 111.182C132.599 110.612 132.516 110.113 132.35 109.685C132.185 109.254 131.939 108.92 131.615 108.681C131.29 108.439 130.889 108.318 130.411 108.318C129.914 108.318 129.5 108.446 129.169 108.701C128.84 108.953 128.593 109.296 128.428 109.73C128.265 110.161 128.184 110.645 128.184 111.182C128.184 111.725 128.267 112.219 128.433 112.663C128.602 113.104 128.85 113.455 129.178 113.717C129.51 113.976 129.921 114.105 130.411 114.105ZM138.311 115.179C137.827 115.179 137.388 115.088 136.994 114.906C136.599 114.72 136.286 114.453 136.054 114.105C135.822 113.754 135.706 113.33 135.706 112.832C135.706 112.395 135.792 112.04 135.965 111.768C136.137 111.493 136.367 111.278 136.656 111.122C136.944 110.966 137.262 110.85 137.61 110.774C137.962 110.695 138.315 110.632 138.669 110.585C139.133 110.526 139.509 110.481 139.798 110.451C140.089 110.418 140.302 110.363 140.434 110.287C140.57 110.211 140.638 110.078 140.638 109.889V109.849C140.638 109.359 140.504 108.978 140.235 108.706C139.97 108.434 139.567 108.298 139.027 108.298C138.467 108.298 138.028 108.421 137.71 108.666C137.392 108.911 137.168 109.173 137.039 109.452L135.925 109.054C136.124 108.59 136.389 108.229 136.72 107.97C137.055 107.708 137.42 107.526 137.814 107.423C138.212 107.317 138.603 107.264 138.987 107.264C139.233 107.264 139.514 107.294 139.833 107.354C140.154 107.41 140.464 107.528 140.762 107.707C141.064 107.886 141.314 108.156 141.513 108.517C141.712 108.878 141.811 109.362 141.811 109.969V115H140.638V113.966H140.578C140.499 114.132 140.366 114.309 140.181 114.498C139.995 114.687 139.748 114.848 139.44 114.98C139.132 115.113 138.755 115.179 138.311 115.179ZM138.49 114.125C138.954 114.125 139.345 114.034 139.664 113.852C139.985 113.669 140.227 113.434 140.389 113.146C140.555 112.857 140.638 112.554 140.638 112.236V111.162C140.588 111.222 140.479 111.276 140.31 111.326C140.144 111.372 139.952 111.414 139.733 111.45C139.518 111.483 139.307 111.513 139.102 111.54C138.9 111.563 138.735 111.583 138.61 111.599C138.305 111.639 138.02 111.704 137.754 111.793C137.493 111.879 137.28 112.01 137.118 112.186C136.959 112.358 136.879 112.594 136.879 112.892C136.879 113.3 137.03 113.608 137.332 113.817C137.637 114.022 138.023 114.125 138.49 114.125ZM143.953 115V107.364H145.126V115H143.953ZM144.549 106.091C144.321 106.091 144.123 106.013 143.958 105.857C143.795 105.701 143.714 105.514 143.714 105.295C143.714 105.077 143.795 104.889 143.958 104.734C144.123 104.578 144.321 104.5 144.549 104.5C144.778 104.5 144.974 104.578 145.136 104.734C145.302 104.889 145.385 105.077 145.385 105.295C145.385 105.514 145.302 105.701 145.136 105.857C144.974 106.013 144.778 106.091 144.549 106.091ZM148.448 104.818V115H147.275V104.818H148.448ZM151.353 117.864C151.154 117.864 150.977 117.847 150.821 117.814C150.665 117.784 150.558 117.754 150.498 117.724L150.796 116.69C151.081 116.763 151.333 116.79 151.552 116.77C151.771 116.75 151.964 116.652 152.134 116.477C152.306 116.304 152.463 116.024 152.606 115.636L152.825 115.04L150.001 107.364H151.273L153.381 113.449H153.461L155.569 107.364H156.842L153.6 116.114C153.454 116.508 153.274 116.835 153.058 117.093C152.843 117.355 152.593 117.549 152.308 117.675C152.026 117.801 151.708 117.864 151.353 117.864ZM167.14 111.878V107.364H168.314V115H167.14V113.707H167.061C166.882 114.095 166.603 114.425 166.225 114.697C165.848 114.965 165.37 115.099 164.794 115.099C164.316 115.099 163.892 114.995 163.521 114.786C163.15 114.574 162.858 114.256 162.646 113.832C162.434 113.404 162.328 112.866 162.328 112.216V107.364H163.501V112.136C163.501 112.693 163.657 113.137 163.968 113.469C164.283 113.8 164.684 113.966 165.172 113.966C165.463 113.966 165.76 113.891 166.061 113.742C166.366 113.593 166.622 113.364 166.827 113.056C167.036 112.748 167.14 112.355 167.14 111.878ZM175.872 109.074L174.818 109.372C174.751 109.196 174.654 109.026 174.524 108.86C174.398 108.691 174.226 108.552 174.007 108.442C173.789 108.333 173.508 108.278 173.167 108.278C172.7 108.278 172.31 108.386 171.999 108.602C171.691 108.814 171.536 109.084 171.536 109.412C171.536 109.704 171.642 109.934 171.855 110.103C172.067 110.272 172.398 110.413 172.849 110.526L173.982 110.804C174.665 110.97 175.174 111.223 175.509 111.565C175.843 111.903 176.011 112.339 176.011 112.872C176.011 113.31 175.885 113.701 175.633 114.045C175.384 114.39 175.036 114.662 174.589 114.861C174.142 115.06 173.621 115.159 173.028 115.159C172.249 115.159 171.604 114.99 171.094 114.652C170.584 114.314 170.26 113.82 170.124 113.17L171.238 112.892C171.344 113.303 171.545 113.611 171.84 113.817C172.138 114.022 172.527 114.125 173.008 114.125C173.555 114.125 173.989 114.009 174.311 113.777C174.635 113.542 174.798 113.26 174.798 112.932C174.798 112.667 174.705 112.445 174.519 112.266C174.334 112.083 174.049 111.947 173.664 111.858L172.392 111.56C171.692 111.394 171.178 111.137 170.85 110.789C170.526 110.438 170.363 109.999 170.363 109.472C170.363 109.041 170.484 108.66 170.726 108.328C170.971 107.997 171.304 107.737 171.725 107.548C172.15 107.359 172.63 107.264 173.167 107.264C173.923 107.264 174.516 107.43 174.947 107.761C175.381 108.093 175.689 108.53 175.872 109.074ZM180.024 115.179C179.54 115.179 179.101 115.088 178.707 114.906C178.312 114.72 177.999 114.453 177.767 114.105C177.535 113.754 177.419 113.33 177.419 112.832C177.419 112.395 177.505 112.04 177.678 111.768C177.85 111.493 178.08 111.278 178.369 111.122C178.657 110.966 178.975 110.85 179.323 110.774C179.674 110.695 180.027 110.632 180.382 110.585C180.846 110.526 181.222 110.481 181.511 110.451C181.802 110.418 182.014 110.363 182.147 110.287C182.283 110.211 182.351 110.078 182.351 109.889V109.849C182.351 109.359 182.217 108.978 181.948 108.706C181.683 108.434 181.28 108.298 180.74 108.298C180.18 108.298 179.741 108.421 179.423 108.666C179.104 108.911 178.881 109.173 178.751 109.452L177.638 109.054C177.837 108.59 178.102 108.229 178.433 107.97C178.768 107.708 179.133 107.526 179.527 107.423C179.925 107.317 180.316 107.264 180.7 107.264C180.946 107.264 181.227 107.294 181.545 107.354C181.867 107.41 182.177 107.528 182.475 107.707C182.777 107.886 183.027 108.156 183.226 108.517C183.425 108.878 183.524 109.362 183.524 109.969V115H182.351V113.966H182.291C182.212 114.132 182.079 114.309 181.893 114.498C181.708 114.687 181.461 114.848 181.153 114.98C180.844 115.113 180.468 115.179 180.024 115.179ZM180.203 114.125C180.667 114.125 181.058 114.034 181.376 113.852C181.698 113.669 181.94 113.434 182.102 113.146C182.268 112.857 182.351 112.554 182.351 112.236V111.162C182.301 111.222 182.192 111.276 182.023 111.326C181.857 111.372 181.665 111.414 181.446 111.45C181.231 111.483 181.02 111.513 180.815 111.54C180.612 111.563 180.448 111.583 180.322 111.599C180.018 111.639 179.732 111.704 179.467 111.793C179.205 111.879 178.993 112.01 178.831 112.186C178.672 112.358 178.592 112.594 178.592 112.892C178.592 113.3 178.743 113.608 179.045 113.817C179.35 114.022 179.736 114.125 180.203 114.125ZM188.748 118.023C188.181 118.023 187.694 117.95 187.286 117.804C186.879 117.661 186.539 117.473 186.267 117.237C185.999 117.005 185.785 116.757 185.626 116.491L186.561 115.835C186.667 115.974 186.801 116.134 186.963 116.313C187.126 116.495 187.348 116.652 187.629 116.785C187.914 116.921 188.287 116.989 188.748 116.989C189.365 116.989 189.873 116.839 190.274 116.541C190.675 116.243 190.876 115.776 190.876 115.139V113.588H190.776C190.69 113.727 190.568 113.9 190.409 114.105C190.253 114.307 190.027 114.488 189.732 114.647C189.441 114.803 189.046 114.881 188.549 114.881C187.933 114.881 187.379 114.735 186.889 114.443C186.401 114.152 186.015 113.727 185.73 113.17C185.449 112.614 185.308 111.937 185.308 111.142C185.308 110.36 185.445 109.679 185.72 109.099C185.995 108.515 186.378 108.065 186.869 107.746C187.359 107.425 187.926 107.264 188.569 107.264C189.066 107.264 189.461 107.347 189.752 107.513C190.047 107.675 190.273 107.861 190.428 108.07C190.588 108.275 190.71 108.444 190.796 108.577H190.916V107.364H192.049V115.219C192.049 115.875 191.9 116.409 191.602 116.82C191.307 117.234 190.909 117.537 190.409 117.729C189.911 117.925 189.358 118.023 188.748 118.023ZM188.708 113.827C189.179 113.827 189.577 113.719 189.901 113.504C190.226 113.288 190.473 112.978 190.642 112.574C190.811 112.17 190.896 111.686 190.896 111.122C190.896 110.572 190.813 110.086 190.647 109.665C190.481 109.245 190.236 108.915 189.911 108.676C189.587 108.437 189.186 108.318 188.708 108.318C188.211 108.318 187.797 108.444 187.465 108.696C187.137 108.948 186.89 109.286 186.725 109.71C186.562 110.134 186.481 110.605 186.481 111.122C186.481 111.652 186.564 112.121 186.73 112.529C186.899 112.933 187.147 113.252 187.475 113.484C187.807 113.712 188.218 113.827 188.708 113.827ZM197.399 115.159C196.663 115.159 196.028 114.997 195.494 114.672C194.964 114.344 194.555 113.886 194.267 113.3C193.981 112.71 193.839 112.024 193.839 111.241C193.839 110.459 193.981 109.77 194.267 109.173C194.555 108.573 194.956 108.106 195.47 107.771C195.987 107.433 196.59 107.264 197.279 107.264C197.677 107.264 198.07 107.33 198.458 107.463C198.845 107.596 199.198 107.811 199.517 108.109C199.835 108.404 200.088 108.795 200.277 109.283C200.466 109.77 200.561 110.37 200.561 111.082V111.58H194.674V110.565H199.367C199.367 110.134 199.281 109.75 199.109 109.412C198.94 109.074 198.698 108.807 198.383 108.612C198.071 108.416 197.704 108.318 197.279 108.318C196.812 108.318 196.408 108.434 196.066 108.666C195.728 108.895 195.468 109.193 195.286 109.561C195.103 109.929 195.012 110.323 195.012 110.744V111.42C195.012 111.997 195.112 112.486 195.311 112.887C195.513 113.285 195.793 113.588 196.151 113.797C196.509 114.002 196.925 114.105 197.399 114.105C197.707 114.105 197.985 114.062 198.234 113.976C198.486 113.886 198.703 113.754 198.885 113.578C199.067 113.399 199.208 113.177 199.308 112.912L200.441 113.23C200.322 113.615 200.121 113.953 199.84 114.244C199.558 114.533 199.21 114.758 198.796 114.92C198.381 115.08 197.916 115.159 197.399 115.159Z" fill="#9095A0"/>
<path d="M26.5 112.5L31 108L35.5 112.5H26.5Z" fill="#14923E"/>
</g>
<defs>
<filter id="filter0_dd_347_14602" x="0" y="0" width="287" height="150" filterUnits="userSpaceOnUse" color-interpolation-filters="sRGB">
<feFlood flood-opacity="0" result="BackgroundImageFix"/>
<feColorMatrix in="SourceAlpha" type="matrix" values="0 0 0 0 0 0 0 0 0 0 0 0 0 0 0 0 0 0 127 0" result="hardAlpha"/>
<feOffset dy="4"/>
<feGaussianBlur stdDeviation="4.5"/>
<feColorMatrix type="matrix" values="0 0 0 0 0.0901961 0 0 0 0 0.101961 0 0 0 0 0.121569 0 0 0 0.11 0"/>
<feBlend mode="normal" in2="BackgroundImageFix" result="effect1_dropShadow_347_14602"/>
<feColorMatrix in="SourceAlpha" type="matrix" values="0 0 0 0 0 0 0 0 0 0 0 0 0 0 0 0 0 0 127 0" result="hardAlpha"/>
<feOffset/>
<feGaussianBlur stdDeviation="1"/>
<feColorMatrix type="matrix" values="0 0 0 0 0.0901961 0 0 0 0 0.101961 0 0 0 0 0.121569 0 0 0 0.12 0"/>
<feBlend mode="normal" in2="effect1_dropShadow_347_14602" result="effect2_dropShadow_347_14602"/>
<feBlend mode="normal" in="SourceGraphic" in2="effect2_dropShadow_347_14602" result="shape"/>
</filter>
</defs>
</svg>
