<svg width="324" height="194" viewBox="0 0 324 194" fill="none" xmlns="http://www.w3.org/2000/svg">
<g clip-path="url(#clip0_330_1290)">
<rect x="29" width="247" height="76" rx="24" fill="#131313"/>
<rect x="29.5" y="0.5" width="246" height="75" rx="23.5" stroke="#292929"/>
<g clip-path="url(#clip1_330_1290)">
<path d="M97.233 12.8105H59.9153C50.0716 12.8105 42.0918 20.7904 42.0918 30.634V45.6724C42.0918 55.5161 50.0716 63.4959 59.9153 63.4959H97.233C107.077 63.4959 115.056 55.5161 115.056 45.6724V30.634C115.056 20.7904 107.077 12.8105 97.233 12.8105Z" fill="black" fill-opacity="0.89"/>
<mask id="mask0_330_1290" style="mask-type:luminance" maskUnits="userSpaceOnUse" x="65" y="25" width="27" height="27">
<path d="M91.6926 25.2471H65.6309V51.3088H91.6926V25.2471Z" fill="white"/>
</mask>
<g mask="url(#mask0_330_1290)">
<g opacity="0.4">
<path d="M88.435 30.1337V35.0203C88.435 35.2363 88.3492 35.4435 88.1964 35.5962C88.0437 35.7489 87.8366 35.8347 87.6206 35.8347H82.734C82.5728 35.8349 82.4152 35.7872 82.2812 35.6977C82.1471 35.6082 82.0426 35.481 81.9809 35.3321C81.9192 35.1832 81.9031 35.0193 81.9346 34.8613C81.9661 34.7032 82.0437 34.558 82.1578 34.4441L84.2529 32.349C82.9294 31.2383 81.0206 30.1337 78.6618 30.1337C74.9694 30.1337 72.744 32.3164 72.7226 32.3388C72.5698 32.4916 72.3625 32.5775 72.1464 32.5775C71.9303 32.5775 71.723 32.4916 71.5702 32.3388C71.4174 32.186 71.3315 31.9787 71.3315 31.7626C71.3315 31.5465 71.4174 31.3392 71.5702 31.1864C71.6801 31.0775 74.3026 28.5049 78.6618 28.5049C81.04 28.5049 83.358 29.4313 85.4094 31.1935L87.0443 29.5575C87.1582 29.4435 87.3034 29.3658 87.4615 29.3344C87.6196 29.3029 87.7834 29.319 87.9323 29.3807C88.0812 29.4424 88.2084 29.5469 88.2979 29.6809C88.3874 29.815 88.4351 29.9726 88.435 30.1337ZM84.6011 44.2173C84.5797 44.2397 82.3542 46.4223 78.6618 46.4223C76.303 46.4223 74.3942 45.3178 73.0708 44.2071L75.1659 42.112C75.2799 41.9981 75.3576 41.8529 75.3891 41.6948C75.4205 41.5368 75.4044 41.3729 75.3427 41.224C75.281 41.0751 75.1765 40.9479 75.0425 40.8584C74.9084 40.7689 74.7509 40.7212 74.5897 40.7213H69.7031C69.4871 40.7213 69.2799 40.8071 69.1272 40.9599C68.9745 41.1126 68.8887 41.3198 68.8887 41.5358V46.4223C68.8885 46.5835 68.9362 46.7411 69.0257 46.8751C69.1152 47.0092 69.2424 47.1137 69.3913 47.1754C69.5402 47.2371 69.7041 47.2532 69.8622 47.2217C70.0202 47.1902 70.1654 47.1126 70.2793 46.9985L71.9143 45.3626C73.9656 47.1248 76.2837 48.0512 78.6618 48.0512C83.0211 48.0512 85.6435 45.4786 85.7535 45.3697C85.9063 45.2169 85.9921 45.0096 85.9921 44.7935C85.9921 44.5774 85.9063 44.3701 85.7535 44.2173C85.6007 44.0644 85.3934 43.9786 85.1773 43.9786C84.9611 43.9786 84.7539 44.0644 84.6011 44.2173Z" fill="white"/>
</g>
</g>
</g>
<rect x="130" y="15.5701" width="7" height="7" rx="3.5" fill="white" fill-opacity="0.4"/>
<path d="M140.637 22V16.2019H143.208C143.724 16.2019 144.117 16.2546 144.386 16.3601C144.655 16.4629 144.87 16.6461 145.031 16.9098C145.192 17.1735 145.272 17.4648 145.272 17.7839C145.272 18.1952 145.139 18.5419 144.873 18.8241C144.606 19.1062 144.195 19.2855 143.639 19.362C143.842 19.4595 143.996 19.5558 144.101 19.6507C144.326 19.8563 144.538 20.1134 144.738 20.4219L145.747 22H144.782L144.014 20.7937C143.79 20.4457 143.606 20.1793 143.461 19.9948C143.316 19.8102 143.185 19.681 143.069 19.6072C142.956 19.5333 142.84 19.4819 142.721 19.4529C142.634 19.4345 142.492 19.4252 142.294 19.4252H141.404V22H140.637ZM141.404 18.7608H143.053C143.404 18.7608 143.678 18.7252 143.876 18.654C144.074 18.5802 144.224 18.4642 144.327 18.306C144.43 18.1451 144.481 17.9711 144.481 17.7839C144.481 17.5097 144.381 17.2842 144.181 17.1076C143.983 16.9309 143.669 16.8426 143.239 16.8426H141.404V18.7608ZM146.982 22V16.2019H151.175V16.8861H147.75V18.6619H150.957V19.3422H147.75V21.3158H151.309V22H146.982ZM154.514 22L152.268 16.2019H153.098L154.605 20.414C154.726 20.7515 154.828 21.0679 154.91 21.3632C154.999 21.0468 155.104 20.7304 155.222 20.414L156.788 16.2019H157.572L155.301 22H154.514ZM158.878 22V16.2019H159.645V22H158.878ZM161.506 22V16.2019H165.698V16.8861H162.273V18.6619H165.481V19.3422H162.273V21.3158H165.833V22H161.506ZM168.393 22L166.855 16.2019H167.642L168.524 20.0027C168.619 20.4008 168.7 20.7963 168.769 21.1892C168.917 20.5696 169.004 20.2123 169.03 20.1174L170.133 16.2019H171.059L171.89 19.1365C172.098 19.8643 172.248 20.5485 172.34 21.1892C172.414 20.8227 172.51 20.4021 172.629 19.9275L173.539 16.2019H174.31L172.72 22H171.98L170.758 17.5822C170.656 17.213 170.595 16.9863 170.576 16.9019C170.516 17.1682 170.459 17.395 170.406 17.5822L169.176 22H168.393ZM175.534 22V16.2019H179.726V16.8861H176.301V18.6619H179.509V19.3422H176.301V21.3158H179.861V22H175.534ZM181.408 22V16.2019H183.406C183.857 16.2019 184.201 16.2295 184.438 16.2849C184.77 16.3614 185.054 16.4998 185.288 16.7002C185.594 16.9586 185.822 17.2895 185.973 17.6929C186.126 18.0937 186.202 18.5525 186.202 19.0693C186.202 19.5096 186.151 19.8999 186.048 20.24C185.945 20.5801 185.813 20.8623 185.652 21.0864C185.491 21.3079 185.315 21.4832 185.122 21.6124C184.932 21.739 184.702 21.8352 184.43 21.9011C184.161 21.967 183.851 22 183.501 22H181.408ZM182.176 21.3158H183.414C183.796 21.3158 184.095 21.2802 184.312 21.209C184.53 21.1378 184.704 21.0376 184.834 20.9084C185.016 20.7265 185.157 20.4826 185.257 20.1767C185.36 19.8682 185.411 19.4951 185.411 19.0574C185.411 18.451 185.311 17.9856 185.11 17.6613C184.913 17.3343 184.671 17.1155 184.387 17.0047C184.181 16.9256 183.85 16.8861 183.394 16.8861H182.176V21.3158Z" fill="white" fill-opacity="0.4"/>
<rect x="128" y="31" width="100" height="10" rx="5" fill="#D9D9D9" fill-opacity="0.09"/>
<rect x="128" y="49" width="51" height="10" rx="5" fill="#D9D9D9" fill-opacity="0.09"/>
<rect x="0.169922" y="28" width="304" height="94" rx="30" fill="#131313"/>
<rect x="0.669922" y="28.5" width="303" height="93" rx="29.5" stroke="#292929"/>
<path d="M122.671 79V64.3257H124.613V77.2683H131.84V79H122.671ZM140.664 77.6887C139.997 78.2559 139.353 78.6563 138.732 78.8899C138.118 79.1235 137.458 79.2402 136.75 79.2402C135.583 79.2402 134.685 78.9566 134.058 78.3894C133.43 77.8155 133.117 77.0848 133.117 76.1973C133.117 75.6768 133.234 75.203 133.467 74.7759C133.707 74.3421 134.018 73.9951 134.398 73.7349C134.785 73.4746 135.219 73.2778 135.699 73.1443C136.053 73.0509 136.587 72.9608 137.301 72.874C138.756 72.7005 139.827 72.4937 140.514 72.2534C140.521 72.0065 140.524 71.8497 140.524 71.783C140.524 71.0489 140.354 70.5317 140.014 70.2314C139.553 69.8244 138.869 69.6208 137.962 69.6208C137.114 69.6208 136.487 69.771 136.08 70.0713C135.679 70.3649 135.382 70.8888 135.189 71.6428L133.427 71.4026C133.587 70.6485 133.851 70.0413 134.218 69.5808C134.585 69.1137 135.115 68.7567 135.809 68.5098C136.503 68.2562 137.308 68.1294 138.222 68.1294C139.129 68.1294 139.867 68.2362 140.434 68.4497C141.001 68.6632 141.418 68.9335 141.685 69.2605C141.952 69.5808 142.139 69.9879 142.246 70.4817C142.306 70.7887 142.336 71.3425 142.336 72.1433V74.5457C142.336 76.2206 142.372 77.2817 142.446 77.7288C142.526 78.1692 142.679 78.5929 142.906 79H141.024C140.838 78.6263 140.718 78.1892 140.664 77.6887ZM140.514 73.6648C139.86 73.9317 138.879 74.1586 137.571 74.3455C136.83 74.4522 136.307 74.5723 136 74.7058C135.693 74.8393 135.456 75.0361 135.289 75.2964C135.122 75.55 135.039 75.8336 135.039 76.1472C135.039 76.6277 135.219 77.0281 135.579 77.3484C135.946 77.6687 136.48 77.8289 137.181 77.8289C137.875 77.8289 138.492 77.6787 139.033 77.3784C139.573 77.0715 139.97 76.6544 140.224 76.1272C140.417 75.7201 140.514 75.1195 140.514 74.3254V73.6648ZM148.867 77.3884L149.128 78.98C148.62 79.0868 148.167 79.1401 147.766 79.1401C147.112 79.1401 146.605 79.0367 146.245 78.8298C145.884 78.623 145.631 78.3527 145.484 78.019C145.337 77.6787 145.264 76.968 145.264 75.887V69.771H143.943V68.3696H145.264V65.7371L147.056 64.656V68.3696H148.867V69.771H147.056V75.9871C147.056 76.5009 147.086 76.8312 147.146 76.978C147.212 77.1248 147.316 77.2416 147.456 77.3284C147.603 77.4151 147.81 77.4585 148.077 77.4585C148.277 77.4585 148.54 77.4351 148.867 77.3884ZM157.711 75.5767L159.573 75.8069C159.279 76.8946 158.736 77.7388 157.941 78.3394C157.147 78.9399 156.133 79.2402 154.898 79.2402C153.344 79.2402 152.109 78.7631 151.195 77.8088C150.287 76.8479 149.833 75.5033 149.833 73.7749C149.833 71.9865 150.294 70.5985 151.215 69.6108C152.136 68.6232 153.33 68.1294 154.798 68.1294C156.22 68.1294 157.381 68.6132 158.282 69.5808C159.183 70.5484 159.633 71.9097 159.633 73.6648C159.633 73.7716 159.63 73.9317 159.623 74.1453H151.695C151.762 75.3131 152.092 76.2073 152.686 76.8279C153.28 77.4485 154.021 77.7588 154.908 77.7588C155.569 77.7588 156.133 77.5853 156.6 77.2383C157.067 76.8913 157.438 76.3374 157.711 75.5767ZM151.795 72.6638H157.731C157.651 71.7696 157.424 71.099 157.051 70.6519C156.477 69.9578 155.733 69.6108 154.818 69.6108C153.991 69.6108 153.294 69.8878 152.726 70.4417C152.166 70.9955 151.855 71.7362 151.795 72.6638ZM160.92 75.8269L162.701 75.5466C162.801 76.2607 163.078 76.8079 163.532 77.1882C163.993 77.5686 164.633 77.7588 165.454 77.7588C166.281 77.7588 166.895 77.592 167.296 77.2583C167.696 76.918 167.896 76.5209 167.896 76.0671C167.896 75.6601 167.719 75.3398 167.366 75.1062C167.119 74.946 166.505 74.7425 165.524 74.4956C164.203 74.1619 163.285 73.875 162.771 73.6348C162.264 73.3879 161.877 73.0509 161.61 72.6238C161.35 72.19 161.22 71.7129 161.22 71.1924C161.22 70.7186 161.327 70.2815 161.54 69.8811C161.76 69.474 162.057 69.137 162.431 68.8701C162.711 68.6632 163.092 68.4897 163.572 68.3496C164.059 68.2028 164.58 68.1294 165.134 68.1294C165.968 68.1294 166.698 68.2495 167.326 68.4897C167.96 68.73 168.427 69.057 168.727 69.4707C169.027 69.8778 169.234 70.425 169.348 71.1123L167.586 71.3525C167.506 70.8053 167.272 70.3783 166.885 70.0713C166.505 69.7643 165.964 69.6108 165.264 69.6108C164.436 69.6108 163.846 69.7476 163.492 70.0212C163.138 70.2948 162.961 70.6152 162.961 70.9822C162.961 71.2157 163.035 71.4259 163.182 71.6128C163.329 71.8063 163.559 71.9665 163.872 72.0933C164.053 72.16 164.583 72.3135 165.464 72.5537C166.739 72.894 167.626 73.1743 168.127 73.3945C168.634 73.6081 169.031 73.9217 169.318 74.3354C169.605 74.7492 169.748 75.263 169.748 75.877C169.748 76.4775 169.571 77.0448 169.218 77.5786C168.871 78.1058 168.367 78.5162 167.706 78.8098C167.045 79.0968 166.298 79.2402 165.464 79.2402C164.083 79.2402 163.028 78.9533 162.301 78.3794C161.58 77.8055 161.12 76.9547 160.92 75.8269ZM175.619 77.3884L175.879 78.98C175.372 79.0868 174.918 79.1401 174.518 79.1401C173.864 79.1401 173.357 79.0367 172.996 78.8298C172.636 78.623 172.383 78.3527 172.236 78.019C172.089 77.6787 172.016 76.968 172.016 75.887V69.771H170.694V68.3696H172.016V65.7371L173.807 64.656V68.3696H175.619V69.771H173.807V75.9871C173.807 76.5009 173.837 76.8312 173.897 76.978C173.964 77.1248 174.068 77.2416 174.208 77.3284C174.354 77.4151 174.561 77.4585 174.828 77.4585C175.028 77.4585 175.292 77.4351 175.619 77.3884ZM189.583 79V77.6587C188.909 78.7131 187.918 79.2402 186.61 79.2402C185.763 79.2402 184.982 79.0067 184.268 78.5396C183.561 78.0724 183.01 77.4218 182.616 76.5876C182.229 75.7468 182.036 74.7826 182.036 73.6948C182.036 72.6338 182.213 71.6729 182.566 70.812C182.92 69.9445 183.45 69.2805 184.158 68.8201C184.865 68.3596 185.656 68.1294 186.53 68.1294C187.171 68.1294 187.741 68.2662 188.242 68.5398C188.742 68.8067 189.149 69.1571 189.463 69.5908V64.3257H191.255V79H189.583ZM183.888 73.6948C183.888 75.0562 184.174 76.0738 184.748 76.7478C185.322 77.4218 186 77.7588 186.78 77.7588C187.568 77.7588 188.235 77.4385 188.782 76.7979C189.336 76.1506 189.613 75.1663 189.613 73.845C189.613 72.3902 189.333 71.3225 188.772 70.6418C188.212 69.9612 187.521 69.6208 186.7 69.6208C185.899 69.6208 185.229 69.9478 184.688 70.6018C184.154 71.2558 183.888 72.2868 183.888 73.6948ZM201.17 75.5767L203.031 75.8069C202.738 76.8946 202.194 77.7388 201.4 78.3394C200.606 78.9399 199.591 79.2402 198.357 79.2402C196.802 79.2402 195.567 78.7631 194.653 77.8088C193.746 76.8479 193.292 75.5033 193.292 73.7749C193.292 71.9865 193.752 70.5985 194.673 69.6108C195.594 68.6232 196.789 68.1294 198.257 68.1294C199.678 68.1294 200.839 68.6132 201.74 69.5808C202.641 70.5484 203.091 71.9097 203.091 73.6648C203.091 73.7716 203.088 73.9317 203.081 74.1453H195.154C195.22 75.3131 195.551 76.2073 196.145 76.8279C196.739 77.4485 197.479 77.7588 198.367 77.7588C199.027 77.7588 199.591 77.5853 200.058 77.2383C200.526 76.8913 200.896 76.3374 201.17 75.5767ZM195.254 72.6638H201.19C201.11 71.7696 200.883 71.099 200.509 70.6519C199.935 69.9578 199.191 69.6108 198.277 69.6108C197.449 69.6108 196.752 69.8878 196.185 70.4417C195.624 70.9955 195.314 71.7362 195.254 72.6638ZM204.378 75.8269L206.16 75.5466C206.26 76.2607 206.537 76.8079 206.99 77.1882C207.451 77.5686 208.092 77.7588 208.912 77.7588C209.74 77.7588 210.354 77.592 210.754 77.2583C211.155 76.918 211.355 76.5209 211.355 76.0671C211.355 75.6601 211.178 75.3398 210.824 75.1062C210.577 74.946 209.963 74.7425 208.982 74.4956C207.661 74.1619 206.744 73.875 206.23 73.6348C205.723 73.3879 205.336 73.0509 205.069 72.6238C204.808 72.19 204.678 71.7129 204.678 71.1924C204.678 70.7186 204.785 70.2815 204.999 69.8811C205.219 69.474 205.516 69.137 205.889 68.8701C206.17 68.6632 206.55 68.4897 207.03 68.3496C207.518 68.2028 208.038 68.1294 208.592 68.1294C209.426 68.1294 210.157 68.2495 210.784 68.4897C211.418 68.73 211.885 69.057 212.186 69.4707C212.486 69.8778 212.693 70.425 212.806 71.1123L211.044 71.3525C210.964 70.8053 210.731 70.3783 210.344 70.0713C209.963 69.7643 209.423 69.6108 208.722 69.6108C207.895 69.6108 207.304 69.7476 206.95 70.0212C206.597 70.2948 206.42 70.6152 206.42 70.9822C206.42 71.2157 206.493 71.4259 206.64 71.6128C206.787 71.8063 207.017 71.9665 207.331 72.0933C207.511 72.16 208.041 72.3135 208.922 72.5537C210.197 72.894 211.084 73.1743 211.585 73.3945C212.092 73.6081 212.489 73.9217 212.776 74.3354C213.063 74.7492 213.207 75.263 213.207 75.877C213.207 76.4775 213.03 77.0448 212.676 77.5786C212.329 78.1058 211.825 78.5162 211.165 78.8098C210.504 79.0968 209.756 79.2402 208.922 79.2402C207.541 79.2402 206.487 78.9533 205.759 78.3794C205.039 77.8055 204.578 76.9547 204.378 75.8269ZM215.154 66.3977V64.3257H216.955V66.3977H215.154ZM215.154 79V68.3696H216.955V79H215.154ZM219.173 79.8809L220.924 80.1411C220.998 80.6816 221.201 81.0754 221.535 81.3223C221.982 81.6559 222.593 81.8228 223.367 81.8228C224.201 81.8228 224.845 81.6559 225.299 81.3223C225.752 80.9886 226.059 80.5215 226.22 79.9209C226.313 79.5539 226.356 78.7831 226.35 77.6086C225.562 78.5362 224.581 79 223.407 79C221.945 79 220.814 78.4728 220.014 77.4185C219.213 76.3641 218.812 75.0995 218.812 73.6248C218.812 72.6104 218.996 71.6762 219.363 70.822C219.73 69.9612 220.26 69.2972 220.954 68.8301C221.655 68.363 222.476 68.1294 223.417 68.1294C224.671 68.1294 225.706 68.6366 226.52 69.6509V68.3696H228.182V77.5586C228.182 79.2135 228.011 80.3847 227.671 81.072C227.337 81.766 226.804 82.3132 226.069 82.7136C225.342 83.114 224.445 83.3142 223.377 83.3142C222.109 83.3142 221.085 83.0273 220.304 82.4534C219.523 81.8861 219.146 81.0286 219.173 79.8809ZM220.664 73.4946C220.664 74.8893 220.941 75.907 221.495 76.5476C222.049 77.1882 222.743 77.5085 223.577 77.5085C224.405 77.5085 225.099 77.1916 225.659 76.5576C226.22 75.917 226.5 74.916 226.5 73.5547C226.5 72.2534 226.21 71.2725 225.629 70.6118C225.055 69.9512 224.361 69.6208 223.547 69.6208C222.746 69.6208 222.066 69.9478 221.505 70.6018C220.944 71.2491 220.664 72.2134 220.664 73.4946ZM230.709 79V68.3696H232.331V69.8811C233.112 68.7133 234.239 68.1294 235.714 68.1294C236.355 68.1294 236.942 68.2462 237.476 68.4797C238.016 68.7066 238.42 69.0069 238.687 69.3806C238.954 69.7543 239.141 70.1981 239.248 70.7119C239.314 71.0456 239.348 71.6295 239.348 72.4636V79H237.546V72.5337C237.546 71.7996 237.476 71.2524 237.336 70.8921C237.196 70.5251 236.945 70.2348 236.585 70.0212C236.231 69.801 235.814 69.6909 235.334 69.6909C234.566 69.6909 233.902 69.9345 233.342 70.4216C232.788 70.9088 232.511 71.833 232.511 73.1943V79H230.709Z" fill="white"/>
<path d="M124.771 101V92.2302H121.495V91.0568H129.377V92.2302H126.087V101H124.771ZM128.156 97.3985C128.156 96.0646 128.527 95.0766 129.269 94.4345C129.888 93.901 130.643 93.6342 131.534 93.6342C132.524 93.6342 133.334 93.9597 133.962 94.6109C134.591 95.2575 134.905 96.1528 134.905 97.2967C134.905 98.2237 134.765 98.9539 134.485 99.4875C134.209 100.017 133.804 100.428 133.27 100.722C132.741 101.016 132.163 101.163 131.534 101.163C130.526 101.163 129.71 100.839 129.086 100.193C128.466 99.5463 128.156 98.6148 128.156 97.3985ZM129.411 97.3985C129.411 98.3209 129.612 99.0127 130.015 99.4739C130.417 99.9306 130.924 100.159 131.534 100.159C132.14 100.159 132.644 99.9284 133.047 99.4671C133.449 99.0059 133.65 98.3028 133.65 97.3578C133.65 96.467 133.447 95.7933 133.04 95.3366C132.637 94.8754 132.136 94.6448 131.534 94.6448C130.924 94.6448 130.417 94.8731 130.015 95.3298C129.612 95.7865 129.411 96.4761 129.411 97.3985ZM140.596 101V100.091C140.139 100.806 139.468 101.163 138.582 101.163C138.007 101.163 137.478 101.005 136.995 100.688C136.515 100.371 136.142 99.9306 135.875 99.3654C135.613 98.7957 135.482 98.1423 135.482 97.4053C135.482 96.6863 135.602 96.0352 135.842 95.4519C136.081 94.8641 136.441 94.4142 136.92 94.1022C137.399 93.7902 137.935 93.6342 138.527 93.6342C138.962 93.6342 139.348 93.7269 139.687 93.9123C140.026 94.0931 140.302 94.3305 140.515 94.6244V91.0568H141.729V101H140.596ZM136.737 97.4053C136.737 98.3277 136.931 99.0172 137.32 99.4739C137.709 99.9306 138.168 100.159 138.697 100.159C139.231 100.159 139.683 99.9419 140.054 99.5078C140.429 99.0692 140.616 98.4023 140.616 97.507C140.616 96.5213 140.427 95.7978 140.047 95.3366C139.667 94.8754 139.199 94.6448 138.643 94.6448C138.1 94.6448 137.646 94.8663 137.279 95.3095C136.918 95.7526 136.737 96.4512 136.737 97.4053ZM147.935 100.111C147.483 100.496 147.047 100.767 146.626 100.925C146.21 101.084 145.763 101.163 145.283 101.163C144.492 101.163 143.884 100.971 143.459 100.586C143.034 100.197 142.821 99.7023 142.821 99.1009C142.821 98.7482 142.9 98.4272 143.059 98.1378C143.221 97.8439 143.432 97.6087 143.689 97.4324C143.952 97.256 144.246 97.1227 144.571 97.0322C144.811 96.9689 145.173 96.9079 145.656 96.8491C146.642 96.7315 147.368 96.5914 147.834 96.4286C147.838 96.2613 147.84 96.155 147.84 96.1098C147.84 95.6124 147.725 95.262 147.494 95.0585C147.182 94.7827 146.719 94.6448 146.104 94.6448C145.53 94.6448 145.105 94.7465 144.829 94.95C144.558 95.1489 144.356 95.5039 144.225 96.0148L143.032 95.8521C143.14 95.3411 143.319 94.9296 143.567 94.6176C143.816 94.3011 144.176 94.0592 144.646 93.8919C145.116 93.7201 145.661 93.6342 146.28 93.6342C146.895 93.6342 147.395 93.7065 147.779 93.8512C148.164 93.9959 148.446 94.179 148.627 94.4006C148.808 94.6176 148.935 94.8935 149.007 95.2281C149.048 95.4361 149.068 95.8114 149.068 96.354V97.9818C149.068 99.1167 149.093 99.8357 149.143 100.139C149.197 100.437 149.301 100.724 149.455 101H148.18C148.053 100.747 147.972 100.451 147.935 100.111ZM147.834 97.3849C147.39 97.5658 146.726 97.7195 145.84 97.8461C145.338 97.9185 144.983 97.9999 144.775 98.0903C144.567 98.1807 144.406 98.3141 144.293 98.4905C144.18 98.6623 144.124 98.8545 144.124 99.067C144.124 99.3925 144.246 99.6638 144.49 99.8809C144.739 100.098 145.1 100.206 145.575 100.206C146.045 100.206 146.464 100.105 146.83 99.9012C147.196 99.6932 147.465 99.4106 147.637 99.0534C147.768 98.7776 147.834 98.3706 147.834 97.8326V97.3849ZM150.493 103.774L150.357 102.628C150.624 102.7 150.857 102.736 151.056 102.736C151.327 102.736 151.544 102.691 151.707 102.601C151.87 102.51 152.003 102.384 152.107 102.221C152.184 102.099 152.308 101.796 152.48 101.312C152.503 101.244 152.539 101.145 152.589 101.014L149.855 93.797H151.171L152.67 97.9682C152.864 98.4972 153.039 99.0534 153.192 99.6367C153.332 99.076 153.5 98.5289 153.694 97.9953L155.234 93.797H156.455L153.715 101.122C153.421 101.913 153.192 102.458 153.03 102.757C152.812 103.159 152.564 103.453 152.283 103.638C152.003 103.828 151.669 103.923 151.28 103.923C151.045 103.923 150.782 103.874 150.493 103.774ZM156.36 101V99.6096H157.751V101C157.751 101.511 157.66 101.922 157.479 102.234C157.299 102.551 157.011 102.795 156.618 102.967L156.279 102.445C156.537 102.332 156.727 102.164 156.849 101.943C156.971 101.726 157.039 101.411 157.052 101H156.36ZM167.193 101H165.972V93.2204C165.678 93.5008 165.292 93.7811 164.812 94.0615C164.338 94.3418 163.91 94.5521 163.53 94.6922V93.5121C164.213 93.191 164.81 92.8022 165.321 92.3455C165.832 91.8888 166.194 91.4457 166.406 91.0161H167.193V101ZM173.474 101H172.253V93.2204C171.959 93.5008 171.573 93.7811 171.093 94.0615C170.619 94.3418 170.191 94.5521 169.812 94.6922V93.5121C170.494 93.191 171.091 92.8022 171.602 92.3455C172.113 91.8888 172.475 91.4457 172.687 91.0161H173.474V101ZM176.866 95.1874V93.797H178.256V95.1874H176.866ZM176.866 101V99.6096H178.256V101H176.866ZM179.634 98.3955L180.916 98.287C181.011 98.911 181.23 99.3812 181.574 99.6978C181.922 100.01 182.34 100.166 182.828 100.166C183.416 100.166 183.914 99.9442 184.32 99.5011C184.727 99.0579 184.931 98.4701 184.931 97.7376C184.931 97.0413 184.734 96.4919 184.341 96.0894C183.952 95.687 183.441 95.4858 182.808 95.4858C182.415 95.4858 182.06 95.5762 181.743 95.7571C181.427 95.9334 181.178 96.1641 180.997 96.4489L179.851 96.2997L180.814 91.1925H185.758V92.3591H181.791L181.255 95.0314C181.852 94.6154 182.478 94.4074 183.134 94.4074C184.002 94.4074 184.734 94.7081 185.331 95.3095C185.928 95.9108 186.226 96.684 186.226 97.6291C186.226 98.5289 185.964 99.3066 185.44 99.9623C184.802 100.767 183.932 101.17 182.828 101.17C181.924 101.17 181.185 100.916 180.61 100.41C180.041 99.9035 179.715 99.232 179.634 98.3955ZM186.946 96.0962C186.946 94.9206 187.066 93.9756 187.305 93.2611C187.549 92.5422 187.909 91.9883 188.384 91.5994C188.863 91.2105 189.464 91.0161 190.188 91.0161C190.721 91.0161 191.189 91.1246 191.592 91.3417C191.994 91.5542 192.327 91.8639 192.589 92.2709C192.851 92.6733 193.057 93.1662 193.206 93.7495C193.355 94.3282 193.43 95.1105 193.43 96.0962C193.43 97.2628 193.31 98.2056 193.07 98.9245C192.831 99.639 192.471 100.193 191.992 100.586C191.517 100.975 190.916 101.17 190.188 101.17C189.229 101.17 188.476 100.826 187.929 100.139C187.274 99.3111 186.946 97.9637 186.946 96.0962ZM188.201 96.0962C188.201 97.7286 188.39 98.816 188.77 99.3586C189.155 99.8967 189.627 100.166 190.188 100.166C190.749 100.166 191.219 99.8944 191.599 99.3518C191.983 98.8092 192.175 97.724 192.175 96.0962C192.175 94.4594 191.983 93.3719 191.599 92.8338C191.219 92.2958 190.744 92.0267 190.174 92.0267C189.614 92.0267 189.166 92.2641 188.831 92.7389C188.411 93.3448 188.201 94.4639 188.201 96.0962Z" fill="white" fill-opacity="0.25"/>
<g clip-path="url(#clip2_330_1290)">
<g clip-path="url(#clip3_330_1290)">
<path d="M85.139 43.7295H39.3182C27.2317 43.7295 17.4336 53.5276 17.4336 65.6141V84.0792C17.4336 96.1657 27.2317 105.964 39.3182 105.964H85.139C97.2255 105.964 107.024 96.1657 107.024 84.0792V65.6141C107.024 53.5276 97.2255 43.7295 85.139 43.7295Z" fill="black" fill-opacity="0.89"/>
<mask id="mask1_330_1290" style="mask-type:luminance" maskUnits="userSpaceOnUse" x="48" y="60" width="30" height="29">
<path d="M77.0594 60H48.3359V88.7235H77.0594V60Z" fill="white"/>
</mask>
<g mask="url(#mask1_330_1290)">
<path d="M72.3312 74.0762L59.7646 87.5404C59.6315 87.6825 59.4557 87.7774 59.2638 87.8109C59.072 87.8443 58.8744 87.8145 58.701 87.7258C58.5276 87.6371 58.3877 87.4945 58.3025 87.3193C58.2173 87.1442 58.1914 86.9461 58.2286 86.755L59.8735 78.5272L53.4073 76.0992C53.2685 76.0473 53.1446 75.9617 53.0469 75.8502C52.9491 75.7387 52.8805 75.6048 52.8472 75.4603C52.8138 75.3158 52.8168 75.1654 52.8558 75.0223C52.8948 74.8793 52.9687 74.7481 53.0707 74.6406L65.6373 61.1764C65.7704 61.0343 65.9462 60.9394 66.1381 60.9059C66.3299 60.8725 66.5275 60.9023 66.7009 60.991C66.8743 61.0797 67.0142 61.2223 67.0994 61.3975C67.1846 61.5726 67.2105 61.7707 67.1733 61.9618L65.5239 70.1985L71.9901 72.6232C72.1279 72.6755 72.2508 72.7609 72.3478 72.872C72.4448 72.983 72.5129 73.1163 72.5462 73.2599C72.5794 73.4035 72.5768 73.5531 72.5385 73.6955C72.5003 73.8379 72.4275 73.9686 72.3267 74.0762H72.3312Z" fill="#06DDB3"/>
</g>
</g>
</g>
<rect x="124.17" y="47" width="8" height="8" rx="4" fill="#06DDB3"/>
<path d="M136.932 54V46.8418H137.903L141.663 52.4619V46.8418H142.571V54H141.6L137.84 48.375V54H136.932ZM144.787 54V46.8418H149.963V47.6865H145.735V49.8789H149.695V50.7188H145.735V53.1553H150.129V54H144.787ZM153.288 54L151.388 46.8418H152.36L153.449 51.5342C153.566 52.0257 153.667 52.514 153.752 52.999C153.934 52.234 154.041 51.793 154.074 51.6758L155.436 46.8418H156.579L157.604 50.4648C157.861 51.3633 158.047 52.208 158.161 52.999C158.252 52.5465 158.371 52.0273 158.517 51.4414L159.64 46.8418H160.593L158.63 54H157.717L156.208 48.5459C156.081 48.0902 156.006 47.8102 155.983 47.7061C155.908 48.0348 155.838 48.3148 155.773 48.5459L154.255 54H153.288Z" fill="#06DDB3"/>
</g>
<defs>
<clipPath id="clip0_330_1290">
<rect width="324" height="194" fill="white"/>
</clipPath>
<clipPath id="clip1_330_1290">
<rect width="74" height="52" fill="white" transform="translate(42 12)"/>
</clipPath>
<clipPath id="clip2_330_1290">
<rect width="90" height="63" fill="white" transform="translate(17.1699 43)"/>
</clipPath>
<clipPath id="clip3_330_1290">
<rect width="90" height="63" fill="white" transform="translate(17.1699 43)"/>
</clipPath>
</defs>
</svg>
