<svg width="280" height="250" viewBox="0 0 280 250" fill="none" xmlns="http://www.w3.org/2000/svg">
<g clip-path="url(#clip0_330_1253)">
<rect width="2" height="119" transform="translate(23 88.5)" fill="#06DDB3" fill-opacity="0.1"/>
<rect width="2" height="119" transform="translate(115 88.5)" fill="#06DDB3" fill-opacity="0.1"/>
<rect width="2" height="119" transform="translate(224 88.5)" fill="#06DDB3" fill-opacity="0.1"/>
<g filter="url(#filter0_f_330_1253)">
<rect x="130" y="50.5901" width="146" height="153.04" rx="73" fill="#E2FA06" fill-opacity="0.08"/>
</g>
<rect x="20" y="138.5" width="9" height="22" rx="4.5" fill="url(#paint0_linear_330_1253)"/>
<rect x="39" y="144.5" width="9" height="22" rx="4.5" fill="url(#paint1_linear_330_1253)"/>
<rect x="57" y="124.5" width="9" height="43" rx="4.5" fill="url(#paint2_linear_330_1253)"/>
<rect x="75" y="118.5" width="9" height="49" rx="4.5" fill="url(#paint3_linear_330_1253)"/>
<rect x="94" y="121.5" width="9" height="29" rx="4.5" fill="url(#paint4_linear_330_1253)"/>
<rect x="112" y="107.5" width="9" height="53" rx="4.5" fill="url(#paint5_linear_330_1253)"/>
<rect x="130.5" y="127.5" width="9" height="40" rx="4.5" fill="url(#paint6_linear_330_1253)"/>
<rect x="148.5" y="137.5" width="9" height="48" rx="4.5" fill="url(#paint7_linear_330_1253)"/>
<rect x="168" y="121.5" width="9" height="56" rx="4.5" fill="url(#paint8_linear_330_1253)"/>
<rect x="185" y="82.5" width="9" height="78" rx="4.5" fill="url(#paint9_linear_330_1253)"/>
<rect x="203" y="94.5" width="9" height="40" rx="4.5" fill="url(#paint10_linear_330_1253)"/>
<rect x="221" y="101.5" width="9" height="36" rx="4.5" fill="url(#paint11_linear_330_1253)"/>
<rect x="239" y="121.5" width="9" height="32" rx="4.5" fill="url(#paint12_linear_330_1253)"/>
</g>
<defs>
<filter id="filter0_f_330_1253" x="98.8889" y="19.479" width="208.222" height="215.262" filterUnits="userSpaceOnUse" color-interpolation-filters="sRGB">
<feFlood flood-opacity="0" result="BackgroundImageFix"/>
<feBlend mode="normal" in="SourceGraphic" in2="BackgroundImageFix" result="shape"/>
<feGaussianBlur stdDeviation="15.5555" result="effect1_foregroundBlur_330_1253"/>
</filter>
<linearGradient id="paint0_linear_330_1253" x1="24.5" y1="138.5" x2="24.5" y2="160.5" gradientUnits="userSpaceOnUse">
<stop stop-color="#67E483"/>
<stop offset="1" stop-color="#06DDB3"/>
</linearGradient>
<linearGradient id="paint1_linear_330_1253" x1="43.5" y1="144.5" x2="43.5" y2="166.5" gradientUnits="userSpaceOnUse">
<stop stop-color="#67E483"/>
<stop offset="1" stop-color="#06DDB3"/>
</linearGradient>
<linearGradient id="paint2_linear_330_1253" x1="61.5" y1="124.5" x2="61.5" y2="167.5" gradientUnits="userSpaceOnUse">
<stop stop-color="#67E483"/>
<stop offset="1" stop-color="#06DDB3"/>
</linearGradient>
<linearGradient id="paint3_linear_330_1253" x1="79.5" y1="118.5" x2="79.5" y2="167.5" gradientUnits="userSpaceOnUse">
<stop stop-color="#67E483"/>
<stop offset="1" stop-color="#06DDB3"/>
</linearGradient>
<linearGradient id="paint4_linear_330_1253" x1="98.5" y1="121.5" x2="98.5" y2="150.5" gradientUnits="userSpaceOnUse">
<stop stop-color="#67E483"/>
<stop offset="1" stop-color="#06DDB3"/>
</linearGradient>
<linearGradient id="paint5_linear_330_1253" x1="116.5" y1="107.5" x2="116.5" y2="160.5" gradientUnits="userSpaceOnUse">
<stop stop-color="#67E483"/>
<stop offset="1" stop-color="#06DDB3"/>
</linearGradient>
<linearGradient id="paint6_linear_330_1253" x1="135" y1="127.5" x2="135" y2="167.5" gradientUnits="userSpaceOnUse">
<stop stop-color="#67E483"/>
<stop offset="1" stop-color="#06DDB3"/>
</linearGradient>
<linearGradient id="paint7_linear_330_1253" x1="153" y1="137.5" x2="153" y2="185.5" gradientUnits="userSpaceOnUse">
<stop stop-color="#67E483"/>
<stop offset="1" stop-color="#0DB3AB"/>
</linearGradient>
<linearGradient id="paint8_linear_330_1253" x1="172.5" y1="121.5" x2="172.5" y2="177.5" gradientUnits="userSpaceOnUse">
<stop stop-color="#67E483"/>
<stop offset="1" stop-color="#06DDB3"/>
</linearGradient>
<linearGradient id="paint9_linear_330_1253" x1="189.5" y1="82.5" x2="189.5" y2="160.5" gradientUnits="userSpaceOnUse">
<stop stop-color="#67E483"/>
<stop offset="1" stop-color="#06DDB3"/>
</linearGradient>
<linearGradient id="paint10_linear_330_1253" x1="207.5" y1="94.5" x2="207.5" y2="134.5" gradientUnits="userSpaceOnUse">
<stop stop-color="#67E483"/>
<stop offset="1" stop-color="#06DDB3"/>
</linearGradient>
<linearGradient id="paint11_linear_330_1253" x1="225.5" y1="101.5" x2="225.5" y2="137.5" gradientUnits="userSpaceOnUse">
<stop stop-color="#67E483"/>
<stop offset="1" stop-color="#06DDB3"/>
</linearGradient>
<linearGradient id="paint12_linear_330_1253" x1="243.5" y1="121.5" x2="243.5" y2="153.5" gradientUnits="userSpaceOnUse">
<stop stop-color="#67E483"/>
<stop offset="1" stop-color="#0DB3AB"/>
</linearGradient>
<clipPath id="clip0_330_1253">
<rect y="19.5" width="280" height="211" rx="24" fill="white"/>
</clipPath>
</defs>
</svg>
