<svg width="1440" height="512" viewBox="0 0 1440 512" fill="none" xmlns="http://www.w3.org/2000/svg">
<path d="M1099.28 297.38C1095.35 261.333 1099.63 224.864 1111.82 190.713C1124.01 156.561 1143.77 125.614 1169.63 100.197C1195.49 74.7798 1226.78 55.5527 1261.13 43.9599C1295.49 32.3671 1332.03 28.71 1368 33.2633C1403.97 37.8167 1438.45 50.462 1468.83 70.2496C1499.22 90.0372 1524.72 116.453 1543.44 147.512C1562.15 178.571 1573.58 213.466 1576.87 249.577C1580.16 285.688 1575.23 322.075 1562.44 356.005L1473.13 322.344C1480.83 301.907 1483.8 279.991 1481.82 258.241C1479.84 236.492 1472.95 215.474 1461.68 196.767C1450.41 178.059 1435.05 162.149 1416.75 150.231C1398.45 138.313 1377.68 130.696 1356.02 127.954C1334.35 125.211 1312.34 127.414 1291.65 134.396C1270.95 141.379 1252.11 152.96 1236.54 168.269C1220.96 183.578 1209.05 202.217 1201.72 222.787C1194.38 243.357 1191.79 265.322 1194.16 287.033L1099.28 297.38Z" fill="url(#paint0_linear_502_1361)"/>
<path d="M216.815 61.4142C236.315 91.9847 248.635 126.576 252.848 162.591C257.062 198.606 253.06 235.107 241.144 269.354C229.228 303.6 209.706 334.701 184.046 360.321C158.386 385.94 127.254 405.413 92.9888 417.275C58.7237 429.137 22.2161 433.081 -13.7919 428.811C-49.7999 424.54 -84.3721 412.166 -114.912 392.618C-145.452 373.069 -171.165 346.855 -190.121 315.944C-209.076 285.033 -220.781 250.228 -224.356 214.145L-129.375 204.734C-127.222 226.467 -120.172 247.43 -108.755 266.048C-97.3378 284.666 -81.8504 300.455 -63.4561 312.23C-45.0617 324.004 -24.2385 331.457 -2.55063 334.029C19.1373 336.601 41.1261 334.226 61.7643 327.081C82.4024 319.936 101.153 308.208 116.609 292.777C132.064 277.346 143.822 258.613 150.999 237.987C158.177 217.36 160.587 195.375 158.049 173.683C155.511 151.991 148.091 131.156 136.346 112.743L216.815 61.4142Z" fill="url(#paint1_linear_502_1361)"/>
<defs>
<linearGradient id="paint0_linear_502_1361" x1="1427.64" y1="48.7894" x2="1264.16" y2="270.064" gradientUnits="userSpaceOnUse">
<stop stop-color="#21ACA3"/>
<stop offset="1" stop-color="#D7E5F9" stop-opacity="0"/>
</linearGradient>
<linearGradient id="paint1_linear_502_1361" x1="32.6418" y1="429.792" x2="81.1214" y2="158.978" gradientUnits="userSpaceOnUse">
<stop stop-color="#21ACA3"/>
<stop offset="1" stop-color="#D7E5F9" stop-opacity="0"/>
</linearGradient>
</defs>
</svg>
