<svg width="166" height="171" viewBox="0 0 166 171" fill="none" xmlns="http://www.w3.org/2000/svg">
<path d="M116.758 50.1866C99.3011 33.3465 80.0217 19.1055 56.522 10.4199C56.855 12.1072 57.1262 13.5078 57.4117 14.9037C57.6924 16.2667 57.9827 17.6203 58.2967 19.0867C56.3364 19.5003 54.5617 19.8763 52.6109 20.2852C51.607 15.5758 50.5745 11.0074 49.699 6.4155C49.4135 4.9256 50.2081 3.6942 51.7497 3.3417C56.7694 2.1902 61.8129 1.1421 67.0895 0C67.4987 1.9552 67.8746 3.7412 68.2742 5.6259C66.6375 5.9972 65.2148 6.3215 63.8921 6.6223C71.4764 10.575 79.0987 14.5465 86.7115 18.5133C86.3594 17.8365 85.9454 17.0328 85.3983 15.9894C87.9819 14.6123 90.5607 13.2352 93.2585 11.797C94.1387 13.5407 94.9809 15.1998 95.8611 16.9435C93.6677 18.1091 91.5837 19.2136 89.2142 20.4732C100.752 28.0825 111.22 36.66 120.879 46.1728C119.504 47.517 118.205 48.7813 116.758 50.1866Z" fill="#EFA98D"/>
<path d="M146.964 51.5638C151.57 50.2619 155.885 48.9882 160.234 47.8367C162.194 47.315 163.55 47.9542 164.093 49.7026C165.582 54.5107 166.938 59.3611 168.418 64.4371C166.495 64.9729 164.711 65.4711 162.827 65.9975C162.313 64.3055 161.852 62.8015 161.252 60.8228C152.459 83.787 138.447 102.878 121.608 120.188C120.329 118.76 119.092 117.378 117.74 115.874C134.631 98.357 149.086 78.7392 157.213 54.6893C154.144 55.5306 151.436 56.2779 148.558 57.0675C148.02 55.2157 147.521 53.4955 146.964 51.5638Z" fill="#EFA98D"/>
<path d="M104.136 170.014C103.575 168.101 103.09 166.428 102.538 164.552C104.208 164.026 105.797 163.523 107.738 162.912C84.5192 154.259 65.197 140.385 47.54 123.639C48.9912 122.412 50.3806 121.242 51.9793 119.893C60.6341 128.033 70.0834 135.939 80.4892 142.646C90.8616 149.334 101.7 155.101 113.957 158.842C113.143 155.965 112.396 153.305 111.573 150.391C113.381 149.879 115.165 149.376 117.183 148.807C118.506 153.503 119.857 158.033 121.037 162.611C121.422 164.11 120.523 165.295 119.058 165.732C114.181 167.194 109.275 168.552 104.136 170.014Z" fill="#EFA98D"/>
<path d="M8.66933 111.462C11.743 110.833 14.4598 110.273 17.3622 109.681C17.7857 111.538 18.1806 113.281 18.6278 115.237C16.7199 115.66 14.9023 116.078 13.0752 116.468C10.406 117.041 7.73676 117.61 5.06276 118.146C3.35464 118.489 2.09377 117.822 1.47999 116.299C1.32774 115.918 1.22782 115.514 1.14217 115.114C0.142994 110.48 -0.851428 105.846 -1.88867 101.014C0.0335602 100.605 1.80354 100.225 3.75907 99.8111C4.1302 101.386 4.46326 102.824 4.91051 104.727C14.398 82.783 28.277 64.3778 44.8634 47.7915C46.2528 49.1874 47.5374 50.4705 48.941 51.8805C40.4766 60.4439 32.5259 69.5243 25.6506 79.4836C18.7944 89.4006 12.8897 99.8017 8.66933 111.462Z" fill="#EFA98D"/>
<path d="M123.644 166.933C123.934 165.18 124.224 163.412 124.443 162.063C128.045 162.063 131.418 162.11 134.782 162.054C140.977 161.946 146.805 160.527 151.83 156.79C157.306 152.715 160.037 147.033 161.022 140.472C162.393 131.372 160.718 122.593 157.925 113.973C156.774 110.415 155.365 106.937 154.028 103.299C155.693 102.576 157.364 101.847 159.362 100.973C160.894 105.151 162.545 109.217 163.872 113.386C165.98 120.013 167.312 126.813 167.336 133.788C167.37 142.775 165.409 151.145 159.072 158.021C155.208 162.214 150.407 164.855 144.902 166.383C138.921 168.046 128.725 168.394 123.644 166.933Z" fill="#EFA98D"/>
<path d="M101.046 14.2468C100.304 12.5877 99.5662 10.9427 98.7383 9.10499C100.47 8.39999 102.131 7.68559 103.82 7.04639C112.974 3.59189 122.343 1.11969 132.23 1.10559C141.294 1.09619 149.668 3.12659 156.558 9.35409C160.792 13.1846 163.433 17.9645 164.946 23.4024C166.859 30.2644 166.702 37.1687 165.598 44.261C163.709 43.9696 161.963 43.7064 159.969 43.4009C160.074 42.3058 160.188 41.2295 160.283 40.1485C160.859 33.6531 160.697 27.247 157.961 21.1464C154.502 13.4149 148.288 9.16609 140.1 7.58219C130.236 5.66929 120.72 7.58689 111.352 10.5338C107.921 11.6101 104.572 12.9637 101.046 14.2468Z" fill="#EFA98D"/>
<path d="M-0.892142 125.081C1.07767 125.424 2.82386 125.73 4.77464 126.073C4.57956 127.756 4.36069 129.363 4.21795 130.975C3.7136 136.822 3.96102 142.617 6.22583 148.125C9.8086 156.83 16.7125 161.356 25.8621 162.724C29.1832 163.217 32.5804 163.184 36.1013 163.4C36.2536 165.069 36.4106 166.85 36.5866 168.759C31.5241 169.37 26.6947 168.961 21.9558 167.842C6.25437 164.138 -1.43931 151.937 -1.73907 137.151C-1.78665 134.923 -1.73907 132.686 -1.59157 130.463C-1.48213 128.714 -1.14907 126.985 -0.892142 125.081Z" fill="#EFA98D"/>
<path d="M43.6509 0.954102C43.3226 2.8106 43.0086 4.5731 42.666 6.5189C40.9246 6.3309 39.2973 6.1147 37.6606 5.9831C30.6949 5.4238 23.8624 5.8421 17.5818 9.259C10.088 13.3292 6.53375 19.9844 5.45844 28.0778C5.05401 31.1375 5.0778 34.2489 4.897 37.4778C3.15081 37.6282 1.34753 37.7833 -0.446238 37.9337C-2.4779 20.1113 6.0865 3.2195 26.4983 0.474702C32.1841 -0.291398 37.8461 -0.00939783 43.6509 0.954102Z" fill="#EFA98D"/>
<path d="M73.8299 150.582C74.772 152.288 75.638 153.867 76.6134 155.634C73.2875 157.289 70.0901 158.877 66.6882 160.565C65.846 158.76 65.0752 157.096 64.2568 155.338C67.4447 153.75 70.5469 152.208 73.8299 150.582Z" fill="#EFA98D"/>
<path d="M21.9102 92.9927C23.585 91.8553 25.0885 90.8354 26.711 89.7356C28.814 92.5885 30.8695 95.3709 33.0486 98.3225C31.5118 99.5022 30.0368 100.635 28.4381 101.866C26.2542 98.8912 24.1607 96.0477 21.9102 92.9927Z" fill="#EFA98D"/>
<path d="M52.726 47.7508C51.3937 46.369 50.1329 45.0624 48.7197 43.596C51.4508 41.1426 54.1058 38.7644 56.9178 36.2405C58.2119 37.7257 59.43 39.1216 60.7289 40.6115C58.0311 43.0179 55.438 45.3303 52.726 47.7508Z" fill="#EFA98D"/>
<path d="M12.8699 78.278C11.1808 74.9598 9.57263 71.7967 7.87402 68.4503C9.7011 67.6231 11.3949 66.8523 13.1649 66.0486C14.7636 69.1976 16.329 72.2714 17.9753 75.505C16.3385 76.3933 14.7065 77.2816 12.8699 78.278Z" fill="#EFA98D"/>
<path d="M134.298 70.7412C135.83 69.5803 137.276 68.4852 138.918 67.2397C141.092 70.2148 143.224 73.1194 145.417 76.118C143.809 77.199 142.301 78.2095 140.602 79.3469C138.49 76.4658 136.429 73.6552 134.298 70.7412Z" fill="#EFA98D"/>
<path d="M96.5803 135.479C97.7936 137.011 98.9403 138.463 100.163 140.014C97.1703 142.172 94.306 144.235 91.2085 146.468C90.1094 144.907 89.0484 143.408 87.8779 141.744C90.7756 139.657 93.6161 137.613 96.5803 135.479Z" fill="#EFA98D"/>
<path d="M108.599 132.959C107.248 131.422 106.092 130.101 104.788 128.621C107.424 126.229 110.017 123.879 112.586 121.548C113.971 122.845 115.332 124.114 116.831 125.514C114.057 128.019 111.406 130.416 108.599 132.959Z" fill="#EFA98D"/>
<path d="M68.9794 33.8176C67.7614 32.2431 66.6527 30.8096 65.4395 29.2398C68.4655 27.0778 71.3822 24.991 74.4178 22.8243C75.5264 24.4317 76.5589 25.9216 77.7008 27.5807C74.8175 29.644 71.9912 31.665 68.9794 33.8176Z" fill="#EFA98D"/>
<path d="M127.629 62.3247C125.184 59.6598 122.848 57.1218 120.388 54.4475C121.806 53.1127 123.162 51.8343 124.618 50.4666C127.101 53.1832 129.504 55.8152 132.05 58.5929C130.56 59.8525 129.147 61.0416 127.629 62.3247Z" fill="#EFA98D"/>
<path d="M39.7829 106.664C42.257 109.333 44.6075 111.876 46.9484 114.405C45.6305 115.772 44.3315 117.121 42.9232 118.583C40.3871 115.838 37.9606 113.211 35.415 110.466C36.871 109.192 38.2365 108.008 39.7829 106.664Z" fill="#EFA98D"/>
<path d="M9.28131 56.1144C7.43521 56.7395 5.72233 57.3223 3.79058 57.9756C2.88656 54.8877 2.02536 51.9408 1.13086 48.8623C3.12922 48.397 4.8992 47.9881 6.79764 47.5463C7.62553 50.4133 8.43439 53.191 9.28131 56.1144Z" fill="#EFA98D"/>
<path d="M54.4616 159.271C55.0896 161.061 55.6653 162.706 56.36 164.685C53.2816 165.569 50.2745 166.434 47.1342 167.336C46.6584 165.32 46.2445 163.576 45.8115 161.738C48.6996 160.916 51.4593 160.126 54.4616 159.271Z" fill="#EFA98D"/>
<path d="M156.453 94.9566C154.882 95.7415 153.517 96.4277 152.142 97.0998C151.885 97.2267 151.599 97.3066 151.219 97.4429C150.862 96.8037 150.524 96.1974 150.196 95.5911C149.254 93.8521 148.316 92.1131 147.312 90.2519C149.011 89.2931 150.586 88.4048 152.361 87.4037C153.726 89.9229 155.049 92.3716 156.453 94.9566Z" fill="#EFA98D"/>
<path d="M115.485 106.413C114.609 107.987 113.277 108.499 111.455 108.495C94.6686 108.443 77.8777 108.467 61.0914 108.462C58.0606 108.462 57.09 107.522 57.1137 104.523C57.1566 100.138 56.9044 95.7155 57.3754 91.3727C58.2033 83.8198 62.4522 78.4524 69.3037 75.0684C69.5226 74.9603 69.7367 74.8428 70.0793 74.6642C66.9438 69.5694 66.0493 64.1503 67.8383 58.4351C69.1372 54.2897 71.6685 50.9809 75.256 48.4993C82.374 43.5784 92.1088 44.0484 98.6511 49.4675C105.051 54.7691 108.514 64.8224 102.548 74.6971C105.641 76.0836 108.348 77.9871 110.532 80.5721C112.992 83.4814 114.548 86.7996 115.195 90.5314C115.252 90.8557 115.38 91.1659 115.48 91.4855C115.485 96.4581 115.485 101.435 115.485 106.413ZM109.518 102.559C109.518 99.1465 109.69 95.88 109.48 92.6323C109.095 86.7338 104.86 81.5403 99.184 79.7825C98.5892 79.5992 97.7042 79.6885 97.1761 80.0081C89.9106 84.4355 82.6928 84.4355 75.4273 80.0081C74.8991 79.6885 74.0094 79.5851 73.4194 79.7825C68.5044 81.4228 65.2071 84.7457 63.7036 89.629C62.3999 93.8496 63.2373 98.2112 63.0279 102.563C78.6104 102.559 93.9882 102.559 109.518 102.559ZM86.4658 50.9292C79.1766 50.7788 73.053 56.6397 72.8722 63.9388C72.6914 71.1204 78.7008 77.3009 85.99 77.4231C93.4411 77.55 99.5741 71.7408 99.7359 64.4088C99.8977 57.1379 93.9359 51.0796 86.4658 50.9292Z" fill="#EFA98D"/>
</svg>
