<svg width="1441" height="240" viewBox="0 0 1441 240" fill="none" xmlns="http://www.w3.org/2000/svg">
<g opacity="0.2">
<path d="M20.0383 68.4995L0.299072 34.3792L20.0383 0.258789H59.5187L79.26 34.3792L59.5187 68.4995H20.0383Z" stroke="#0095FF" stroke-width="0.51779"/>
<path d="M79.2829 102.628L59.5437 68.5076L79.2829 34.3872H118.763L138.503 68.5076L118.763 102.628H79.2829Z" stroke="#0095FF" stroke-width="0.51779"/>
<path d="M138.401 68.4995L118.659 34.3792L138.401 0.258789H177.881L197.62 34.3792L177.881 68.4995H138.401Z" stroke="#0095FF" stroke-width="0.51779"/>
<path d="M197.643 102.628L177.904 68.5076L197.643 34.3872H237.124L256.863 68.5076L237.124 102.628H197.643Z" stroke="#0095FF" stroke-width="0.51779"/>
<path d="M256.761 68.4995L237.02 34.3792L256.761 0.258789H296.242L315.981 34.3792L296.242 68.4995H256.761Z" stroke="#0095FF" stroke-width="0.51779"/>
<path d="M316.004 102.628L296.264 68.5076L316.004 34.3872H355.484L375.225 68.5076L355.484 102.628H316.004Z" stroke="#0095FF" stroke-width="0.51779"/>
<path d="M375.122 68.4995L355.38 34.3792L375.122 0.258789H414.602L434.341 34.3792L414.602 68.4995H375.122Z" stroke="#0095FF" stroke-width="0.51779"/>
<path d="M434.366 102.628L414.625 68.5076L434.366 34.3872H473.847L493.586 68.5076L473.847 102.628H434.366Z" stroke="#0095FF" stroke-width="0.51779"/>
<path d="M493.482 68.4995L473.741 34.3792L493.482 0.258789H532.962L552.702 34.3792L532.962 68.4995H493.482Z" stroke="#0095FF" stroke-width="0.51779"/>
<path d="M552.726 102.628L532.987 68.5076L552.726 34.3872H592.205L611.946 68.5076L592.205 102.628H552.726Z" stroke="#0095FF" stroke-width="0.51779"/>
<path d="M611.845 68.4995L592.101 34.3792L611.845 0.258789H651.323L671.062 34.3792L651.323 68.4995H611.845Z" stroke="#0095FF" stroke-width="0.51779"/>
<path d="M671.087 102.628L651.348 68.5076L671.087 34.3872H710.565L730.306 68.5076L710.565 102.628H671.087Z" stroke="#0095FF" stroke-width="0.51779"/>
<path d="M730.205 68.4995L710.464 34.3792L730.205 0.258789H769.683L789.425 34.3792L769.683 68.4995H730.205Z" stroke="#0095FF" stroke-width="0.51779"/>
<path d="M789.447 102.628L769.708 68.5076L789.447 34.3872H828.928L848.669 68.5076L828.928 102.628H789.447Z" stroke="#0095FF" stroke-width="0.51779"/>
<path d="M848.565 68.4995L828.824 34.3792L848.565 0.258789H888.044L907.785 34.3792L888.044 68.4995H848.565Z" stroke="#0095FF" stroke-width="0.51779"/>
<path d="M907.808 102.628L888.071 68.5076L907.808 34.3872H947.288L967.028 68.5076L947.288 102.628H907.808Z" stroke="#0095FF" stroke-width="0.51779"/>
<path d="M966.928 68.4995L947.185 34.3792L966.928 0.258789H1006.4L1026.15 34.3792L1006.4 68.4995H966.928Z" stroke="#0095FF" stroke-width="0.51779"/>
<path d="M1026.17 102.628L1006.43 68.5076L1026.17 34.3872H1065.65L1085.39 68.5076L1065.65 102.628H1026.17Z" stroke="#0095FF" stroke-width="0.51779"/>
<path d="M1085.29 68.4995L1065.54 34.3792L1085.29 0.258789H1124.77L1144.51 34.3792L1124.77 68.4995H1085.29Z" stroke="#0095FF" stroke-width="0.51779"/>
<path d="M1144.53 102.628L1124.79 68.5076L1144.53 34.3872H1184.01L1203.75 68.5076L1184.01 102.628H1144.53Z" stroke="#0095FF" stroke-width="0.51779"/>
<path d="M1203.65 68.4995L1183.91 34.3792L1203.65 0.258789H1243.12L1262.87 34.3792L1243.12 68.4995H1203.65Z" stroke="#0095FF" stroke-width="0.51779"/>
<path d="M1262.89 102.628L1243.15 68.5076L1262.89 34.3872H1302.37L1322.11 68.5076L1302.37 102.628H1262.89Z" stroke="#0095FF" stroke-width="0.51779"/>
<path d="M1322.01 68.4995L1302.27 34.3792L1322.01 0.258789H1361.49L1381.23 34.3792L1361.49 68.4995H1322.01Z" stroke="#0095FF" stroke-width="0.51779"/>
<path d="M1381.25 102.628L1361.51 68.5076L1381.25 34.3872H1420.73L1440.47 68.5076L1420.73 102.628H1381.25Z" stroke="#0095FF" stroke-width="0.51779"/>
</g>
<g opacity="0.2">
<path d="M20.0383 136.971L0.299072 102.851L20.0383 68.7305H59.5187L79.26 102.851L59.5187 136.971H20.0383Z" stroke="#0095FF" stroke-width="0.51779"/>
<path d="M79.2829 171.102L59.5437 136.981L79.2829 102.861H118.763L138.503 136.981L118.763 171.102H79.2829Z" stroke="#0095FF" stroke-width="0.51779"/>
<path d="M138.401 136.971L118.659 102.851L138.401 68.7305H177.881L197.62 102.851L177.881 136.971H138.401Z" stroke="#0095FF" stroke-width="0.51779"/>
<path d="M197.643 171.102L177.904 136.981L197.643 102.861H237.124L256.863 136.981L237.124 171.102H197.643Z" stroke="#0095FF" stroke-width="0.51779"/>
<path d="M256.761 136.971L237.02 102.851L256.761 68.7305H296.242L315.981 102.851L296.242 136.971H256.761Z" stroke="#0095FF" stroke-width="0.51779"/>
<path d="M316.004 171.102L296.264 136.981L316.004 102.861H355.484L375.225 136.981L355.484 171.102H316.004Z" stroke="#0095FF" stroke-width="0.51779"/>
<path d="M375.122 136.971L355.38 102.851L375.122 68.7305H414.602L434.341 102.851L414.602 136.971H375.122Z" stroke="#0095FF" stroke-width="0.51779"/>
<path d="M434.366 171.102L414.625 136.981L434.366 102.861H473.847L493.586 136.981L473.847 171.102H434.366Z" stroke="#0095FF" stroke-width="0.51779"/>
<path d="M493.482 136.971L473.741 102.851L493.482 68.7305H532.962L552.702 102.851L532.962 136.971H493.482Z" stroke="#0095FF" stroke-width="0.51779"/>
<path d="M552.726 171.102L532.987 136.981L552.726 102.861H592.205L611.946 136.981L592.205 171.102H552.726Z" stroke="#0095FF" stroke-width="0.51779"/>
<path d="M611.845 136.971L592.101 102.851L611.845 68.7305H651.323L671.062 102.851L651.323 136.971H611.845Z" stroke="#0095FF" stroke-width="0.51779"/>
<path d="M671.087 171.102L651.348 136.981L671.087 102.861H710.565L730.306 136.981L710.565 171.102H671.087Z" stroke="#0095FF" stroke-width="0.51779"/>
<path d="M730.205 136.971L710.464 102.851L730.205 68.7305H769.683L789.425 102.851L769.683 136.971H730.205Z" stroke="#0095FF" stroke-width="0.51779"/>
<path d="M789.447 171.102L769.708 136.981L789.447 102.861H828.928L848.669 136.981L828.928 171.102H789.447Z" stroke="#0095FF" stroke-width="0.51779"/>
<path d="M848.565 136.971L828.824 102.851L848.565 68.7305H888.044L907.785 102.851L888.044 136.971H848.565Z" stroke="#0095FF" stroke-width="0.51779"/>
<path d="M907.808 171.102L888.071 136.981L907.808 102.861H947.288L967.028 136.981L947.288 171.102H907.808Z" stroke="#0095FF" stroke-width="0.51779"/>
<path d="M966.928 136.971L947.185 102.851L966.928 68.7305H1006.4L1026.15 102.851L1006.4 136.971H966.928Z" stroke="#0095FF" stroke-width="0.51779"/>
<path d="M1026.17 171.102L1006.43 136.981L1026.17 102.861H1065.65L1085.39 136.981L1065.65 171.102H1026.17Z" stroke="#0095FF" stroke-width="0.51779"/>
<path d="M1085.29 136.971L1065.54 102.851L1085.29 68.7305H1124.77L1144.51 102.851L1124.77 136.971H1085.29Z" stroke="#0095FF" stroke-width="0.51779"/>
<path d="M1144.53 171.102L1124.79 136.981L1144.53 102.861H1184.01L1203.75 136.981L1184.01 171.102H1144.53Z" stroke="#0095FF" stroke-width="0.51779"/>
<path d="M1203.65 136.971L1183.91 102.851L1203.65 68.7305H1243.12L1262.87 102.851L1243.12 136.971H1203.65Z" stroke="#0095FF" stroke-width="0.51779"/>
<path d="M1262.89 171.102L1243.15 136.981L1262.89 102.861H1302.37L1322.11 136.981L1302.37 171.102H1262.89Z" stroke="#0095FF" stroke-width="0.51779"/>
<path d="M1322.01 136.971L1302.27 102.851L1322.01 68.7305H1361.49L1381.23 102.851L1361.49 136.971H1322.01Z" stroke="#0095FF" stroke-width="0.51779"/>
<path d="M1381.25 171.102L1361.51 136.981L1381.25 102.861H1420.73L1440.47 136.981L1420.73 171.102H1381.25Z" stroke="#0095FF" stroke-width="0.51779"/>
</g>
<g opacity="0.2">
<path d="M20.0383 205.499L0.299072 171.379L20.0383 137.259H59.5187L79.26 171.379L59.5187 205.499H20.0383Z" stroke="#0095FF" stroke-width="0.51779"/>
<path d="M79.2829 239.628L59.5437 205.508L79.2829 171.387H118.763L138.503 205.508L118.763 239.628H79.2829Z" stroke="#0095FF" stroke-width="0.51779"/>
<path d="M138.401 205.499L118.659 171.379L138.401 137.259H177.881L197.62 171.379L177.881 205.499H138.401Z" stroke="#0095FF" stroke-width="0.51779"/>
<path d="M197.643 239.628L177.904 205.508L197.643 171.387H237.124L256.863 205.508L237.124 239.628H197.643Z" stroke="#0095FF" stroke-width="0.51779"/>
<path d="M256.761 205.499L237.02 171.379L256.761 137.259H296.242L315.981 171.379L296.242 205.499H256.761Z" stroke="#0095FF" stroke-width="0.51779"/>
<path d="M316.004 239.628L296.264 205.508L316.004 171.387H355.484L375.225 205.508L355.484 239.628H316.004Z" stroke="#0095FF" stroke-width="0.51779"/>
<path d="M375.122 205.499L355.38 171.379L375.122 137.259H414.602L434.341 171.379L414.602 205.499H375.122Z" stroke="#0095FF" stroke-width="0.51779"/>
<path d="M434.366 239.628L414.625 205.508L434.366 171.387H473.847L493.586 205.508L473.847 239.628H434.366Z" stroke="#0095FF" stroke-width="0.51779"/>
<path d="M493.482 205.499L473.741 171.379L493.482 137.259H532.962L552.702 171.379L532.962 205.499H493.482Z" stroke="#0095FF" stroke-width="0.51779"/>
<path d="M552.726 239.628L532.987 205.508L552.726 171.387H592.205L611.946 205.508L592.205 239.628H552.726Z" stroke="#0095FF" stroke-width="0.51779"/>
<path d="M611.845 205.499L592.101 171.379L611.845 137.259H651.323L671.062 171.379L651.323 205.499H611.845Z" stroke="#0095FF" stroke-width="0.51779"/>
<path d="M671.087 239.628L651.348 205.508L671.087 171.387H710.565L730.306 205.508L710.565 239.628H671.087Z" stroke="#0095FF" stroke-width="0.51779"/>
<path d="M730.205 205.499L710.464 171.379L730.205 137.259H769.683L789.425 171.379L769.683 205.499H730.205Z" stroke="#0095FF" stroke-width="0.51779"/>
<path d="M789.447 239.628L769.708 205.508L789.447 171.387H828.928L848.669 205.508L828.928 239.628H789.447Z" stroke="#0095FF" stroke-width="0.51779"/>
<path d="M848.565 205.499L828.824 171.379L848.565 137.259H888.044L907.785 171.379L888.044 205.499H848.565Z" stroke="#0095FF" stroke-width="0.51779"/>
<path d="M907.808 239.628L888.071 205.508L907.808 171.387H947.288L967.028 205.508L947.288 239.628H907.808Z" stroke="#0095FF" stroke-width="0.51779"/>
<path d="M966.928 205.499L947.185 171.379L966.928 137.259H1006.4L1026.15 171.379L1006.4 205.499H966.928Z" stroke="#0095FF" stroke-width="0.51779"/>
<path d="M1026.17 239.628L1006.43 205.508L1026.17 171.387H1065.65L1085.39 205.508L1065.65 239.628H1026.17Z" stroke="#0095FF" stroke-width="0.51779"/>
<path d="M1085.29 205.499L1065.54 171.379L1085.29 137.259H1124.77L1144.51 171.379L1124.77 205.499H1085.29Z" stroke="#0095FF" stroke-width="0.51779"/>
<path d="M1144.53 239.628L1124.79 205.508L1144.53 171.387H1184.01L1203.75 205.508L1184.01 239.628H1144.53Z" stroke="#0095FF" stroke-width="0.51779"/>
<path d="M1203.65 205.499L1183.91 171.379L1203.65 137.259H1243.12L1262.87 171.379L1243.12 205.499H1203.65Z" stroke="#0095FF" stroke-width="0.51779"/>
<path d="M1262.89 239.628L1243.15 205.508L1262.89 171.387H1302.37L1322.11 205.508L1302.37 239.628H1262.89Z" stroke="#0095FF" stroke-width="0.51779"/>
<path d="M1322.01 205.499L1302.27 171.379L1322.01 137.259H1361.49L1381.23 171.379L1361.49 205.499H1322.01Z" stroke="#0095FF" stroke-width="0.51779"/>
<path d="M1381.25 239.628L1361.51 205.508L1381.25 171.387H1420.73L1440.47 205.508L1420.73 239.628H1381.25Z" stroke="#0095FF" stroke-width="0.51779"/>
</g>
</svg>
