<svg width="32" height="32" viewBox="0 0 32 32" fill="none" xmlns="http://www.w3.org/2000/svg">
<mask id="mask0_233_17668" style="mask-type:alpha" maskUnits="userSpaceOnUse" x="0" y="0" width="32" height="32">
<rect width="32" height="32" fill="#D9D9D9"/>
</mask>
<g mask="url(#mask0_233_17668)">
<path d="M21.4693 17.7266L19.5359 15.7932C19.7359 14.7488 19.4359 13.771 18.6359 12.8599C17.8359 11.9488 16.8026 11.5932 15.5359 11.7932L13.6026 9.8599C13.9804 9.68212 14.3637 9.54879 14.7526 9.4599C15.1415 9.37101 15.5582 9.32656 16.0026 9.32656C17.6693 9.32656 19.0859 9.9099 20.2526 11.0766C21.4193 12.2432 22.0026 13.6599 22.0026 15.3266C22.0026 15.771 21.9582 16.1877 21.8693 16.5766C21.7804 16.9655 21.647 17.3488 21.4693 17.7266ZM25.7359 21.9266L23.8026 20.0599C24.647 19.4155 25.397 18.7099 26.0526 17.9432C26.7082 17.1766 27.2693 16.3043 27.7359 15.3266C26.6248 13.0821 25.0304 11.2988 22.9526 9.97656C20.8748 8.65434 18.5582 7.99323 16.0026 7.99323C15.3582 7.99323 14.7248 8.03767 14.1026 8.12656C13.4804 8.21545 12.8693 8.34879 12.2693 8.52656L10.2026 6.4599C11.1137 6.08212 12.047 5.79878 13.0026 5.6099C13.9582 5.42101 14.9582 5.32656 16.0026 5.32656C19.3582 5.32656 22.347 6.25434 24.9693 8.1099C27.5915 9.96545 29.4915 12.371 30.6693 15.3266C30.1582 16.6377 29.4859 17.8543 28.6526 18.9766C27.8193 20.0988 26.8471 21.0821 25.7359 21.9266ZM26.4026 30.1266L20.8026 24.5932C20.0248 24.8377 19.2415 25.021 18.4526 25.1432C17.6637 25.2655 16.847 25.3266 16.0026 25.3266C12.647 25.3266 9.65816 24.3988 7.03594 22.5432C4.41372 20.6877 2.51372 18.2821 1.33594 15.3266C1.8026 14.1488 2.39149 13.0543 3.1026 12.0432C3.81372 11.0321 4.62483 10.1266 5.53594 9.32656L1.86927 5.59323L3.73594 3.72656L28.2693 28.2599L26.4026 30.1266ZM7.4026 11.1932C6.75816 11.771 6.16927 12.4043 5.63594 13.0932C5.1026 13.7821 4.64705 14.5266 4.26927 15.3266C5.38038 17.571 6.97483 19.3543 9.0526 20.6766C11.1304 21.9988 13.447 22.6599 16.0026 22.6599C16.447 22.6599 16.8804 22.6321 17.3026 22.5766C17.7248 22.521 18.1582 22.4599 18.6026 22.3932L17.4026 21.1266C17.1582 21.1932 16.9248 21.2432 16.7026 21.2766C16.4804 21.3099 16.247 21.3266 16.0026 21.3266C14.3359 21.3266 12.9193 20.7432 11.7526 19.5766C10.5859 18.4099 10.0026 16.9932 10.0026 15.3266C10.0026 15.0821 10.0193 14.8488 10.0526 14.6266C10.0859 14.4043 10.1359 14.171 10.2026 13.9266L7.4026 11.1932Z" fill="white"/>
</g>
</svg>
