<svg width="32" height="32" viewBox="0 0 32 32" fill="none" xmlns="http://www.w3.org/2000/svg">
<mask id="mask0_233_17675" style="mask-type:alpha" maskUnits="userSpaceOnUse" x="0" y="0" width="32" height="32">
<rect width="32" height="32" fill="#D9D9D9"/>
</mask>
<g mask="url(#mask0_233_17675)">
<path d="M16 28C12.6444 28 9.80556 27.4833 7.48333 26.45C5.16111 25.4167 4 24.1556 4 22.6667V9.33333C4 7.86667 5.17222 6.61111 7.51667 5.56667C9.86111 4.52222 12.6889 4 16 4C19.3111 4 22.1389 4.52222 24.4833 5.56667C26.8278 6.61111 28 7.86667 28 9.33333V22.6667C28 24.1556 26.8389 25.4167 24.5167 26.45C22.1944 27.4833 19.3556 28 16 28ZM16 12.0333C17.9778 12.0333 19.9667 11.75 21.9667 11.1833C23.9667 10.6167 25.0889 10.0111 25.3333 9.36667C25.0889 8.72222 23.9722 8.11111 21.9833 7.53333C19.9944 6.95556 18 6.66667 16 6.66667C13.9778 6.66667 11.9944 6.95 10.05 7.51667C8.10556 8.08333 6.97778 8.7 6.66667 9.36667C6.97778 10.0333 8.10556 10.6444 10.05 11.2C11.9944 11.7556 13.9778 12.0333 16 12.0333ZM16 18.6667C16.9333 18.6667 17.8333 18.6222 18.7 18.5333C19.5667 18.4444 20.3944 18.3167 21.1833 18.15C21.9722 17.9833 22.7167 17.7778 23.4167 17.5333C24.1167 17.2889 24.7556 17.0111 25.3333 16.7V12.7C24.7556 13.0111 24.1167 13.2889 23.4167 13.5333C22.7167 13.7778 21.9722 13.9833 21.1833 14.15C20.3944 14.3167 19.5667 14.4444 18.7 14.5333C17.8333 14.6222 16.9333 14.6667 16 14.6667C15.0667 14.6667 14.1556 14.6222 13.2667 14.5333C12.3778 14.4444 11.5389 14.3167 10.75 14.15C9.96111 13.9833 9.22222 13.7778 8.53333 13.5333C7.84444 13.2889 7.22222 13.0111 6.66667 12.7V16.7C7.22222 17.0111 7.84444 17.2889 8.53333 17.5333C9.22222 17.7778 9.96111 17.9833 10.75 18.15C11.5389 18.3167 12.3778 18.4444 13.2667 18.5333C14.1556 18.6222 15.0667 18.6667 16 18.6667ZM16 25.3333C17.0222 25.3333 18.0611 25.2556 19.1167 25.1C20.1722 24.9444 21.1444 24.7389 22.0333 24.4833C22.9222 24.2278 23.6667 23.9389 24.2667 23.6167C24.8667 23.2944 25.2222 22.9667 25.3333 22.6333V19.3667C24.7556 19.6778 24.1167 19.9556 23.4167 20.2C22.7167 20.4444 21.9722 20.65 21.1833 20.8167C20.3944 20.9833 19.5667 21.1111 18.7 21.2C17.8333 21.2889 16.9333 21.3333 16 21.3333C15.0667 21.3333 14.1556 21.2889 13.2667 21.2C12.3778 21.1111 11.5389 20.9833 10.75 20.8167C9.96111 20.65 9.22222 20.4444 8.53333 20.2C7.84444 19.9556 7.22222 19.6778 6.66667 19.3667V22.6667C6.77778 23 7.12778 23.3222 7.71667 23.6333C8.30556 23.9444 9.04445 24.2278 9.93333 24.4833C10.8222 24.7389 11.8 24.9444 12.8667 25.1C13.9333 25.2556 14.9778 25.3333 16 25.3333Z" fill="white"/>
</g>
</svg>
