<svg width="32" height="32" viewBox="0 0 32 32" fill="none" xmlns="http://www.w3.org/2000/svg">
<mask id="mask0_233_17681" style="mask-type:alpha" maskUnits="userSpaceOnUse" x="0" y="0" width="32" height="32">
<rect width="32" height="32" fill="#D9D9D9"/>
</mask>
<g mask="url(#mask0_233_17681)">
<path d="M27.4667 29.3359L23.8667 25.7359C23.3778 26.0248 22.8667 26.2526 22.3333 26.4193C21.8 26.5859 21.2444 26.6693 20.6667 26.6693C19 26.6693 17.5833 26.0859 16.4167 24.9193C15.25 23.7526 14.6667 22.3359 14.6667 20.6693C14.6667 19.0026 15.25 17.5859 16.4167 16.4193C17.5833 15.2526 19 14.6693 20.6667 14.6693C22.3333 14.6693 23.75 15.2526 24.9167 16.4193C26.0833 17.5859 26.6667 19.0026 26.6667 20.6693C26.6667 21.247 26.5833 21.8026 26.4167 22.3359C26.25 22.8693 26.0222 23.3804 25.7333 23.8693L29.3333 27.4693L27.4667 29.3359ZM23.0333 23.0359C23.6778 22.3915 24 21.6026 24 20.6693C24 19.7359 23.6778 18.9471 23.0333 18.3026C22.3889 17.6582 21.6 17.3359 20.6667 17.3359C19.7333 17.3359 18.9444 17.6582 18.3 18.3026C17.6556 18.9471 17.3333 19.7359 17.3333 20.6693C17.3333 21.6026 17.6556 22.3915 18.3 23.0359C18.9444 23.6804 19.7333 24.0026 20.6667 24.0026C21.6 24.0026 22.3889 23.6804 23.0333 23.0359ZM28 13.3359H25.3333V6.66927H22.6667V10.6693H9.33333V6.66927H6.66667V25.3359H13.3333V28.0026H6.66667C5.93333 28.0026 5.30556 27.7415 4.78333 27.2193C4.26111 26.6971 4 26.0693 4 25.3359V6.66927C4 5.93594 4.26111 5.30816 4.78333 4.78594C5.30556 4.26372 5.93333 4.0026 6.66667 4.0026H12.2333C12.4778 3.22483 12.9556 2.58594 13.6667 2.08594C14.3778 1.58594 15.1556 1.33594 16 1.33594C16.8889 1.33594 17.6833 1.58594 18.3833 2.08594C19.0833 2.58594 19.5556 3.22483 19.8 4.0026H25.3333C26.0667 4.0026 26.6944 4.26372 27.2167 4.78594C27.7389 5.30816 28 5.93594 28 6.66927V13.3359ZM16.95 6.28594C17.2056 6.03038 17.3333 5.71372 17.3333 5.33594C17.3333 4.95816 17.2056 4.64149 16.95 4.38594C16.6944 4.13038 16.3778 4.0026 16 4.0026C15.6222 4.0026 15.3056 4.13038 15.05 4.38594C14.7944 4.64149 14.6667 4.95816 14.6667 5.33594C14.6667 5.71372 14.7944 6.03038 15.05 6.28594C15.3056 6.54149 15.6222 6.66927 16 6.66927C16.3778 6.66927 16.6944 6.54149 16.95 6.28594Z" fill="white"/>
</g>
</svg>
