<svg width="20" height="22" viewBox="0 0 20 22" fill="none" xmlns="http://www.w3.org/2000/svg">
<path d="M2 14.8408H14C14.5467 14.8408 15.014 15.0355 15.4033 15.4248C15.7927 15.8141 15.9873 16.2815 15.9873 16.8281V21.8154H0.0126953V16.8281C0.0126953 16.2815 0.207339 15.8141 0.59668 15.4248C0.986021 15.0355 1.45334 14.8408 2 14.8408ZM1.9873 19.8408H14.0127V16.8154H1.9873V19.8408ZM5 3.84082H11C12.38 3.84082 13.5557 4.32716 14.5283 5.2998C15.501 6.27245 15.9873 7.44809 15.9873 8.82812C15.9873 10.2082 15.501 11.3838 14.5283 12.3564C13.5557 13.3291 12.38 13.8154 11 13.8154H5C3.61997 13.8154 2.44433 13.3291 1.47168 12.3564C0.499033 11.3838 0.0126953 10.2082 0.0126953 8.82812C0.0126953 7.44809 0.499032 6.27245 1.47168 5.2998C2.44433 4.32716 3.61997 3.84082 5 3.84082ZM5 5.81543C4.16339 5.81543 3.45192 6.10863 2.86621 6.69434C2.28051 7.28004 1.9873 7.99151 1.9873 8.82812C1.9873 9.66474 2.28051 10.3762 2.86621 10.9619C3.45192 11.5476 4.16339 11.8408 5 11.8408H11C11.8366 11.8408 12.5481 11.5476 13.1338 10.9619C13.7195 10.3762 14.0127 9.66474 14.0127 8.82812C14.0127 7.99151 13.7195 7.28004 13.1338 6.69434C12.5481 6.10863 11.8366 5.81543 11 5.81543H5ZM5 7.84082C5.28019 7.84082 5.51489 7.93482 5.7041 8.12402C5.89331 8.31323 5.9873 8.54794 5.9873 8.82812C5.9873 9.10831 5.89331 9.34302 5.7041 9.53223C5.51489 9.72143 5.28019 9.81543 5 9.81543C4.71981 9.81543 4.48511 9.72143 4.2959 9.53223C4.10669 9.34302 4.0127 9.10831 4.0127 8.82812C4.0127 8.54794 4.10669 8.31323 4.2959 8.12402C4.48511 7.93482 4.71981 7.84082 5 7.84082ZM11 7.84082C11.2802 7.84082 11.5149 7.93482 11.7041 8.12402C11.8933 8.31323 11.9873 8.54794 11.9873 8.82812C11.9873 9.10831 11.8933 9.34302 11.7041 9.53223C11.5149 9.72143 11.2802 9.81543 11 9.81543C10.7198 9.81543 10.4851 9.72143 10.2959 9.53223C10.1067 9.34302 10.0127 9.10831 10.0127 8.82812C10.0127 8.54794 10.1067 8.31323 10.2959 8.12402C10.4851 7.93482 10.7198 7.84082 11 7.84082Z" fill="#00D9FF" stroke="#00D9FF" stroke-width="0.025"/>
<line x1="17.0039" y1="5.09766" x2="18.5039" y2="5.09766" stroke="#00D9FF" stroke-width="1.5" stroke-linecap="round"/>
<line x1="15.1875" y1="2.76746" x2="16.9553" y2="0.999698" stroke="#00D9FF" stroke-width="1.5" stroke-linecap="round"/>
<line x1="12.2617" y1="2.25" x2="12.2617" y2="0.75" stroke="#00D9FF" stroke-width="1.5" stroke-linecap="round"/>
</svg>
