<svg width="257" height="250" viewBox="0 0 257 250" fill="none" xmlns="http://www.w3.org/2000/svg">
<g filter="url(#filter0_d_233_17768)">
<path d="M59.1854 132.537C58.1608 132.537 57.2643 132.17 56.4959 131.437C55.7275 130.704 55.3433 129.849 55.3433 128.872C55.3433 127.895 55.7275 127.04 56.4959 126.307C57.2643 125.574 58.1608 125.207 59.1854 125.207C60.2099 125.207 61.1064 125.574 61.8748 126.307C62.6433 127.04 63.0275 127.895 63.0275 128.872C63.0275 129.849 62.6433 130.704 61.8748 131.437C61.1064 132.17 60.2099 132.537 59.1854 132.537ZM59.1854 103.218C58.1608 103.218 57.2643 102.852 56.4959 102.119C55.7275 101.386 55.3433 100.531 55.3433 99.5537C55.3433 98.5764 55.7275 97.7213 56.4959 96.9883C57.2643 96.2554 58.1608 95.8889 59.1854 95.8889C60.2099 95.8889 61.1064 96.2554 61.8748 96.9883C62.6433 97.7213 63.0275 98.5764 63.0275 99.5537C63.0275 100.531 62.6433 101.386 61.8748 102.119C61.1064 102.852 60.2099 103.218 59.1854 103.218ZM82.238 165.52C80.0608 165.52 78.2358 164.817 76.763 163.412C75.2902 162.008 74.5538 160.267 74.5538 158.19C74.5538 156.113 75.2902 154.373 76.763 152.968C78.2358 151.563 80.0608 150.861 82.238 150.861C84.4152 150.861 86.2402 151.563 87.713 152.968C89.1858 154.373 89.9222 156.113 89.9222 158.19C89.9222 160.267 89.1858 162.008 87.713 163.412C86.2402 164.817 84.4152 165.52 82.238 165.52ZM82.238 136.201C80.0608 136.201 78.2358 135.499 76.763 134.094C75.2902 132.689 74.5538 130.949 74.5538 128.872C74.5538 126.795 75.2902 125.054 76.763 123.65C78.2358 122.245 80.0608 121.542 82.238 121.542C84.4152 121.542 86.2402 122.245 87.713 123.65C89.1858 125.054 89.9222 126.795 89.9222 128.872C89.9222 130.949 89.1858 132.689 87.713 134.094C86.2402 135.499 84.4152 136.201 82.238 136.201ZM82.238 106.883C80.0608 106.883 78.2358 106.181 76.763 104.776C75.2902 103.371 74.5538 101.63 74.5538 99.5537C74.5538 97.477 75.2902 95.7362 76.763 94.3314C78.2358 92.9266 80.0608 92.2241 82.238 92.2241C84.4152 92.2241 86.2402 92.9266 87.713 94.3314C89.1858 95.7362 89.9222 97.477 89.9222 99.5537C89.9222 101.63 89.1858 103.371 87.713 104.776C86.2402 106.181 84.4152 106.883 82.238 106.883ZM82.238 77.565C80.0608 77.565 78.2358 76.8626 76.763 75.4578C75.2902 74.0529 74.5538 72.3122 74.5538 70.2355C74.5538 68.1588 75.2902 66.418 76.763 65.0132C78.2358 63.6083 80.0608 62.9059 82.238 62.9059C84.4152 62.9059 86.2402 63.6083 87.713 65.0132C89.1858 66.418 89.9222 68.1588 89.9222 70.2355C89.9222 72.3122 89.1858 74.0529 87.713 75.4578C86.2402 76.8626 84.4152 77.565 82.238 77.565ZM112.975 139.866C109.773 139.866 107.052 138.797 104.81 136.66C102.569 134.522 101.449 131.926 101.449 128.872C101.449 125.818 102.569 123.222 104.81 121.084C107.052 118.946 109.773 117.878 112.975 117.878C116.177 117.878 118.898 118.946 121.139 121.084C123.381 123.222 124.501 125.818 124.501 128.872C124.501 131.926 123.381 134.522 121.139 136.66C118.898 138.797 116.177 139.866 112.975 139.866ZM112.975 110.548C109.773 110.548 107.052 109.479 104.81 107.341C102.569 105.204 101.449 102.608 101.449 99.5537C101.449 96.4997 102.569 93.9038 104.81 91.766C107.052 89.6283 109.773 88.5594 112.975 88.5594C116.177 88.5594 118.898 89.6283 121.139 91.766C123.381 93.9038 124.501 96.4997 124.501 99.5537C124.501 102.608 123.381 105.204 121.139 107.341C118.898 109.479 116.177 110.548 112.975 110.548ZM112.975 165.52C110.798 165.52 108.973 164.817 107.5 163.412C106.027 162.008 105.291 160.267 105.291 158.19C105.291 156.113 106.027 154.373 107.5 152.968C108.973 151.563 110.798 150.861 112.975 150.861C115.152 150.861 116.977 151.563 118.45 152.968C119.923 154.373 120.659 156.113 120.659 158.19C120.659 160.267 119.923 162.008 118.45 163.412C116.977 164.817 115.152 165.52 112.975 165.52ZM112.975 77.565C110.798 77.565 108.973 76.8626 107.5 75.4578C106.027 74.0529 105.291 72.3122 105.291 70.2355C105.291 68.1588 106.027 66.418 107.5 65.0132C108.973 63.6083 110.798 62.9059 112.975 62.9059C115.152 62.9059 116.977 63.6083 118.45 65.0132C119.923 66.418 120.659 68.1588 120.659 70.2355C120.659 72.3122 119.923 74.0529 118.45 75.4578C116.977 76.8626 115.152 77.565 112.975 77.565ZM112.975 183.844C111.95 183.844 111.054 183.477 110.285 182.744C109.517 182.011 109.133 181.156 109.133 180.179C109.133 179.202 109.517 178.346 110.285 177.613C111.054 176.88 111.95 176.514 112.975 176.514C113.999 176.514 114.896 176.88 115.664 177.613C116.433 178.346 116.817 179.202 116.817 180.179C116.817 181.156 116.433 182.011 115.664 182.744C114.896 183.477 113.999 183.844 112.975 183.844ZM112.975 51.9116C111.95 51.9116 111.054 51.5451 110.285 50.8122C109.517 50.0792 109.133 49.2241 109.133 48.2468C109.133 47.2695 109.517 46.4144 110.285 45.6815C111.054 44.9485 111.95 44.582 112.975 44.582C113.999 44.582 114.896 44.9485 115.664 45.6815C116.433 46.4144 116.817 47.2695 116.817 48.2468C116.817 49.2241 116.433 50.0792 115.664 50.8122C114.896 51.5451 113.999 51.9116 112.975 51.9116ZM143.712 139.866C140.51 139.866 137.788 138.797 135.547 136.66C133.306 134.522 132.185 131.926 132.185 128.872C132.185 125.818 133.306 123.222 135.547 121.084C137.788 118.946 140.51 117.878 143.712 117.878C146.913 117.878 149.635 118.946 151.876 121.084C154.117 123.222 155.238 125.818 155.238 128.872C155.238 131.926 154.117 134.522 151.876 136.66C149.635 138.797 146.913 139.866 143.712 139.866ZM143.712 110.548C140.51 110.548 137.788 109.479 135.547 107.341C133.306 105.204 132.185 102.608 132.185 99.5537C132.185 96.4997 133.306 93.9038 135.547 91.766C137.788 89.6283 140.51 88.5594 143.712 88.5594C146.913 88.5594 149.635 89.6283 151.876 91.766C154.117 93.9038 155.238 96.4997 155.238 99.5537C155.238 102.608 154.117 105.204 151.876 107.341C149.635 109.479 146.913 110.548 143.712 110.548ZM143.712 165.52C141.534 165.52 139.709 164.817 138.237 163.412C136.764 162.008 136.027 160.267 136.027 158.19C136.027 156.113 136.764 154.373 138.237 152.968C139.709 151.563 141.534 150.861 143.712 150.861C145.889 150.861 147.714 151.563 149.187 152.968C150.659 154.373 151.396 156.113 151.396 158.19C151.396 160.267 150.659 162.008 149.187 163.412C147.714 164.817 145.889 165.52 143.712 165.52ZM143.712 77.565C141.534 77.565 139.709 76.8626 138.237 75.4578C136.764 74.0529 136.027 72.3122 136.027 70.2355C136.027 68.1588 136.764 66.418 138.237 65.0132C139.709 63.6083 141.534 62.9059 143.712 62.9059C145.889 62.9059 147.714 63.6083 149.187 65.0132C150.659 66.418 151.396 68.1588 151.396 70.2355C151.396 72.3122 150.659 74.0529 149.187 75.4578C147.714 76.8626 145.889 77.565 143.712 77.565ZM143.712 183.844C142.687 183.844 141.791 183.477 141.022 182.744C140.254 182.011 139.87 181.156 139.87 180.179C139.87 179.202 140.254 178.346 141.022 177.613C141.791 176.88 142.687 176.514 143.712 176.514C144.736 176.514 145.633 176.88 146.401 177.613C147.17 178.346 147.554 179.202 147.554 180.179C147.554 181.156 147.17 182.011 146.401 182.744C145.633 183.477 144.736 183.844 143.712 183.844ZM143.712 51.9116C142.687 51.9116 141.791 51.5451 141.022 50.8122C140.254 50.0792 139.87 49.2241 139.87 48.2468C139.87 47.2695 140.254 46.4144 141.022 45.6815C141.791 44.9485 142.687 44.582 143.712 44.582C144.736 44.582 145.633 44.9485 146.401 45.6815C147.17 46.4144 147.554 47.2695 147.554 48.2468C147.554 49.2241 147.17 50.0792 146.401 50.8122C145.633 51.5451 144.736 51.9116 143.712 51.9116ZM174.449 165.52C172.271 165.52 170.446 164.817 168.974 163.412C167.501 162.008 166.764 160.267 166.764 158.19C166.764 156.113 167.501 154.373 168.974 152.968C170.446 151.563 172.271 150.861 174.449 150.861C176.626 150.861 178.451 151.563 179.924 152.968C181.396 154.373 182.133 156.113 182.133 158.19C182.133 160.267 181.396 162.008 179.924 163.412C178.451 164.817 176.626 165.52 174.449 165.52ZM174.449 136.201C172.271 136.201 170.446 135.499 168.974 134.094C167.501 132.689 166.764 130.949 166.764 128.872C166.764 126.795 167.501 125.054 168.974 123.65C170.446 122.245 172.271 121.542 174.449 121.542C176.626 121.542 178.451 122.245 179.924 123.65C181.396 125.054 182.133 126.795 182.133 128.872C182.133 130.949 181.396 132.689 179.924 134.094C178.451 135.499 176.626 136.201 174.449 136.201ZM174.449 106.883C172.271 106.883 170.446 106.181 168.974 104.776C167.501 103.371 166.764 101.63 166.764 99.5537C166.764 97.477 167.501 95.7362 168.974 94.3314C170.446 92.9266 172.271 92.2241 174.449 92.2241C176.626 92.2241 178.451 92.9266 179.924 94.3314C181.396 95.7362 182.133 97.477 182.133 99.5537C182.133 101.63 181.396 103.371 179.924 104.776C178.451 106.181 176.626 106.883 174.449 106.883ZM174.449 77.565C172.271 77.565 170.446 76.8626 168.974 75.4578C167.501 74.0529 166.764 72.3122 166.764 70.2355C166.764 68.1588 167.501 66.418 168.974 65.0132C170.446 63.6083 172.271 62.9059 174.449 62.9059C176.626 62.9059 178.451 63.6083 179.924 65.0132C181.396 66.418 182.133 68.1588 182.133 70.2355C182.133 72.3122 181.396 74.0529 179.924 75.4578C178.451 76.8626 176.626 77.565 174.449 77.565ZM197.501 132.537C196.477 132.537 195.58 132.17 194.812 131.437C194.043 130.704 193.659 129.849 193.659 128.872C193.659 127.895 194.043 127.04 194.812 126.307C195.58 125.574 196.477 125.207 197.501 125.207C198.526 125.207 199.422 125.574 200.191 126.307C200.959 127.04 201.343 127.895 201.343 128.872C201.343 129.849 200.959 130.704 200.191 131.437C199.422 132.17 198.526 132.537 197.501 132.537ZM197.501 103.218C196.477 103.218 195.58 102.852 194.812 102.119C194.043 101.386 193.659 100.531 193.659 99.5537C193.659 98.5764 194.043 97.7213 194.812 96.9883C195.58 96.2554 196.477 95.8889 197.501 95.8889C198.526 95.8889 199.422 96.2554 200.191 96.9883C200.959 97.7213 201.343 98.5764 201.343 99.5537C201.343 100.531 200.959 101.386 200.191 102.119C199.422 102.852 198.526 103.218 197.501 103.218Z" fill="url(#paint0_linear_233_17768)"/>
</g>
<defs>
<filter id="filter0_d_233_17768" x="0.000152588" y="8.29697e-05" width="256.686" height="249.948" filterUnits="userSpaceOnUse" color-interpolation-filters="sRGB">
<feFlood flood-opacity="0" result="BackgroundImageFix"/>
<feColorMatrix in="SourceAlpha" type="matrix" values="0 0 0 0 0 0 0 0 0 0 0 0 0 0 0 0 0 0 127 0" result="hardAlpha"/>
<feOffset dy="10.7612"/>
<feGaussianBlur stdDeviation="27.6716"/>
<feComposite in2="hardAlpha" operator="out"/>
<feColorMatrix type="matrix" values="0 0 0 0 0.0196078 0 0 0 0 0.203922 0 0 0 0 0.466667 0 0 0 0.35 0"/>
<feBlend mode="normal" in2="BackgroundImageFix" result="effect1_dropShadow_233_17768"/>
<feBlend mode="normal" in="SourceGraphic" in2="effect1_dropShadow_233_17768" result="shape"/>
</filter>
<linearGradient id="paint0_linear_233_17768" x1="128.343" y1="44.582" x2="128.343" y2="183.844" gradientUnits="userSpaceOnUse">
<stop stop-color="#09E5E1"/>
<stop offset="0.99375" stop-color="#00BAF8"/>
</linearGradient>
</defs>
</svg>
