<svg width="19" height="16" viewBox="0 0 19 16" fill="none" xmlns="http://www.w3.org/2000/svg">
<path d="M9.49711 0C8.82579 0 8.16955 0.194106 7.61136 0.557773C7.05318 0.92144 6.61813 1.43833 6.36123 2.04309C6.10433 2.64785 6.03711 3.3133 6.16808 3.95531C6.29905 4.59731 6.62232 5.18703 7.09701 5.64989C7.57171 6.11275 8.1765 6.42797 8.83492 6.55567C9.49334 6.68337 10.1758 6.61783 10.796 6.36733C11.4162 6.11683 11.9464 5.69263 12.3193 5.14836C12.6923 4.6041 12.8914 3.96421 12.8914 3.30963C12.8904 2.43216 12.5324 1.5909 11.8961 0.970433C11.2598 0.349965 10.397 0.000963631 9.49711 0ZM11.1263 2.18436C11.1263 2.18436 9.0993 4.81982 9.0898 4.83206C9.06002 4.86916 9.0226 4.89976 8.97995 4.92189C8.9373 4.94402 8.89036 4.9572 8.84217 4.96057C8.79398 4.96393 8.7456 4.95742 8.70015 4.94144C8.6547 4.92547 8.61319 4.90038 8.57829 4.86781L7.89944 4.20588C7.83761 4.14346 7.80339 4.05986 7.80417 3.97308C7.80494 3.8863 7.84064 3.80329 7.90357 3.74193C7.9665 3.68057 8.05163 3.64576 8.14063 3.645C8.22963 3.64425 8.31537 3.67761 8.37938 3.7379L8.7816 4.13009L10.5833 1.7872C10.8385 1.45624 11.3911 1.84082 11.1263 2.18436Z" fill="#005691"/>
<path fill-rule="evenodd" clip-rule="evenodd" d="M16.9957 10.2552L18.9949 8.2893C18.9982 8.28526 19 8.28024 19 8.27507C19 8.2699 18.9982 8.26488 18.9949 8.26084L16.9947 6.29393L16.9645 6.30816V6.95023C16.9645 7.038 16.9287 7.12218 16.865 7.18425C16.8014 7.24632 16.7151 7.28119 16.625 7.28119H9.83653H9.15768H2.36919C2.27916 7.28119 2.19283 7.24632 2.12918 7.18425C2.06552 7.12218 2.02976 7.038 2.02976 6.95023V6.30816L1.99921 6.29293L0 8.25885L1.99921 10.2552L2.02976 10.24V9.59793C2.02976 9.51015 2.06552 9.42597 2.12918 9.3639C2.19283 9.30184 2.27916 9.26697 2.36919 9.26697H4.91936C5.18942 9.26697 5.44842 9.37158 5.63938 9.55778C5.83035 9.74398 5.93763 9.99653 5.93763 10.2599V15.669C5.93763 15.7568 5.97339 15.841 6.03704 15.9031C6.1007 15.9651 6.18703 16 6.27706 16H12.7172C12.8072 16 12.8935 15.9651 12.9572 15.9031C13.0208 15.841 13.0566 15.7568 13.0566 15.669V10.2599C13.0566 9.99653 13.1639 9.74398 13.3548 9.55778C13.5458 9.37158 13.8048 9.26697 14.0749 9.26697H16.625C16.7151 9.26697 16.8014 9.30184 16.865 9.3639C16.9287 9.42597 16.9645 9.51015 16.9645 9.59793V10.24L16.9957 10.2552ZM9.70627 13.6105C9.76993 13.5484 9.80569 13.4642 9.80569 13.3765V13.3331C9.80569 13.2453 9.76993 13.1612 9.70627 13.0991C9.64262 13.037 9.55628 13.0022 9.46626 13.0022C9.37624 13.0022 9.28991 13.037 9.22625 13.0991C9.1626 13.1612 9.12684 13.2453 9.12684 13.3331V13.3765C9.12684 13.4642 9.1626 13.5484 9.22625 13.6105C9.28991 13.6726 9.37624 13.7074 9.46626 13.7074C9.55628 13.7074 9.64262 13.6726 9.70627 13.6105ZM9.80569 12.0526V11.6796C10.0516 11.6177 10.2747 11.4898 10.4498 11.3105C10.6248 11.1311 10.7448 10.9075 10.796 10.665C10.8473 10.4224 10.8277 10.1708 10.7396 9.93855C10.6516 9.70632 10.4984 9.50284 10.2977 9.35121C10.0969 9.19958 9.85659 9.10589 9.60396 9.08078C9.35134 9.05567 9.09655 9.10014 8.86855 9.20915C8.64054 9.31815 8.44846 9.48732 8.31412 9.69744C8.17978 9.90755 8.10856 10.1502 8.10856 10.3978C8.10856 10.4856 8.14432 10.5698 8.20798 10.6318C8.27163 10.6939 8.35797 10.7288 8.44799 10.7288C8.53801 10.7288 8.62434 10.6939 8.688 10.6318C8.75165 10.5698 8.78741 10.4856 8.78741 10.3978C8.78741 10.2669 8.82723 10.1389 8.90182 10.0301C8.97641 9.9212 9.08243 9.83636 9.20648 9.78626C9.33052 9.73616 9.46701 9.72305 9.5987 9.74859C9.73038 9.77413 9.85134 9.83718 9.94628 9.92975C10.0412 10.0223 10.1059 10.1403 10.1321 10.2687C10.1583 10.3971 10.1448 10.5302 10.0934 10.6511C10.0421 10.7721 9.95505 10.8754 9.84341 10.9482C9.73178 11.0209 9.60053 11.0597 9.46626 11.0597C9.37624 11.0597 9.28991 11.0946 9.22625 11.1567C9.1626 11.2187 9.12684 11.3029 9.12684 11.3907V12.0526C9.12684 12.1404 9.1626 12.2246 9.22625 12.2866C9.28991 12.3487 9.37624 12.3836 9.46626 12.3836C9.55628 12.3836 9.64262 12.3487 9.70627 12.2866C9.76993 12.2246 9.80569 12.1404 9.80569 12.0526Z" fill="#005691"/>
</svg>
