<svg width="16" height="16" viewBox="0 0 16 16" fill="none" xmlns="http://www.w3.org/2000/svg">
<path d="M7.68458 4.00495C9.72534 4.00495 11.3804 5.66606 11.3804 7.71246H15.3691V7.07633C15.3691 6.73585 15.0834 6.5316 14.7513 6.45631L13.3694 6.14093C13.2391 5.66429 13.0498 5.21274 12.8105 4.7916L13.5676 3.58564C13.7479 3.29712 13.8068 2.9495 13.5676 2.70941L12.6713 1.80986C12.4302 1.56793 12.0839 1.6271 11.7964 1.80986L10.5966 2.56787C10.177 2.32778 9.72704 2.13959 9.25213 2.00879L8.93612 0.620016C8.86111 0.288515 8.65936 0 8.31835 0H7.05069C6.71145 0 6.50794 0.288515 6.43292 0.620016L6.11868 2.00879C5.64376 2.13959 5.19379 2.32955 4.77424 2.56787L3.57265 1.80986C3.28518 1.6271 2.93882 1.56793 2.69959 1.80986L1.8033 2.70941C1.56225 2.9495 1.62114 3.29719 1.8033 3.58564L2.55857 4.7916C2.31928 5.21091 2.13184 5.66429 2.00152 6.14093L0.61777 6.45631C0.28747 6.5316 0 6.73585 0 7.07633V7.71246H3.99044C3.99044 5.66606 5.64559 4.00495 7.68458 4.00495ZM12.0285 16H3.34237C2.36753 16 1.77653 14.9535 2.25856 14.1167L6.60078 6.56725C7.08105 5.73401 8.28976 5.73401 8.77009 6.56725L13.1122 14.1167C13.5961 14.9589 12.9962 16 12.0285 16ZM7.68473 13.1586C7.1723 13.1586 6.75689 13.6162 6.75689 14.1807C6.75689 15.0891 7.75753 15.5467 8.3412 14.9038C8.92493 14.2609 8.50946 13.1586 7.68473 13.1586ZM8.16989 8.44759C8.05768 8.43086 7.45277 8.43923 7.29665 8.43923C6.94189 8.43923 6.60077 8.75153 6.60077 9.16068L6.97371 12.1266C7.09502 13.0785 8.27451 13.0818 8.39581 12.1266L8.76421 9.25253C8.81577 8.84502 8.52166 8.50268 8.16989 8.44759Z" fill="#005691"/>
</svg>
