<svg width="20" height="16" viewBox="0 0 20 16" fill="none" xmlns="http://www.w3.org/2000/svg">
<path d="M18.1702 4.71625C16.8511 4.71625 16.1277 6.03857 16.4255 7.05234L13.1915 10.4022C12.9362 10.314 12.5106 10.314 12.2553 10.4022L9.95745 8.02204C10.2553 7.00826 9.48936 5.64187 8.17021 5.64187C6.85106 5.64187 6.12766 7.00826 6.42553 8.02204L2.29787 12.2975C1.31915 11.989 0 12.7383 0 14.1047C0 15.1185 0.851064 16 1.82979 16C3.14894 16 3.87234 14.6336 3.57447 13.6198L7.70213 9.34435C8 9.43251 8.38298 9.43251 8.6383 9.34435L10.9787 11.7245C10.6809 12.7383 11.4043 14.1047 12.7234 14.1047C14.0426 14.1047 14.766 12.7383 14.4681 11.7245L17.7021 8.41873C18.6809 8.72727 20 7.93388 20 6.56749C20 5.55372 19.1489 4.71625 18.1702 4.71625ZM12.7234 5.64187L13.5745 3.70248L15.4468 2.82094L13.5745 1.93939L12.7234 0L11.8723 1.93939L10 2.82094L11.8723 3.70248L12.7234 5.64187ZM2.29787 7.53719L2.7234 5.64187L4.55319 5.15702L2.7234 4.71625L2.29787 2.82094L1.82979 4.71625L0 5.15702L1.82979 5.64187L2.29787 7.53719Z" fill="white"/>
</svg>
