<svg width="143" height="143" viewBox="0 0 143 143" fill="none" xmlns="http://www.w3.org/2000/svg">
<g filter="url(#filter0_d_233_17614)">
<path d="M56.1854 64.7925C55.9608 64.7925 55.7643 64.7083 55.5959 64.5398C55.4275 64.3714 55.3433 64.1749 55.3433 63.9504C55.3433 63.7258 55.4275 63.5293 55.5959 63.3609C55.7643 63.1925 55.9608 63.1083 56.1854 63.1083C56.4099 63.1083 56.6064 63.1925 56.7748 63.3609C56.9433 63.5293 57.0275 63.7258 57.0275 63.9504C57.0275 64.1749 56.9433 64.3714 56.7748 64.5398C56.6064 64.7083 56.4099 64.7925 56.1854 64.7925ZM56.1854 58.0556C55.9608 58.0556 55.7643 57.9714 55.5959 57.803C55.4275 57.6346 55.3433 57.4381 55.3433 57.2135C55.3433 56.989 55.4275 56.7925 55.5959 56.624C55.7643 56.4556 55.9608 56.3714 56.1854 56.3714C56.4099 56.3714 56.6064 56.4556 56.7748 56.624C56.9433 56.7925 57.0275 56.989 57.0275 57.2135C57.0275 57.4381 56.9433 57.6346 56.7748 57.803C56.6064 57.9714 56.4099 58.0556 56.1854 58.0556ZM61.238 72.3714C60.7608 72.3714 60.3608 72.21 60.038 71.8872C59.7152 71.5644 59.5538 71.1644 59.5538 70.6872C59.5538 70.21 59.7152 69.81 60.038 69.4872C60.3608 69.1644 60.7608 69.003 61.238 69.003C61.7152 69.003 62.1152 69.1644 62.438 69.4872C62.7608 69.81 62.9222 70.21 62.9222 70.6872C62.9222 71.1644 62.7608 71.5644 62.438 71.8872C62.1152 72.21 61.7152 72.3714 61.238 72.3714ZM61.238 65.6346C60.7608 65.6346 60.3608 65.4732 60.038 65.1504C59.7152 64.8276 59.5538 64.4276 59.5538 63.9504C59.5538 63.4732 59.7152 63.0732 60.038 62.7504C60.3608 62.4276 60.7608 62.2662 61.238 62.2662C61.7152 62.2662 62.1152 62.4276 62.438 62.7504C62.7608 63.0732 62.9222 63.4732 62.9222 63.9504C62.9222 64.4276 62.7608 64.8276 62.438 65.1504C62.1152 65.4732 61.7152 65.6346 61.238 65.6346ZM61.238 58.8977C60.7608 58.8977 60.3608 58.7363 60.038 58.4135C59.7152 58.0907 59.5538 57.6907 59.5538 57.2135C59.5538 56.7363 59.7152 56.3363 60.038 56.0135C60.3608 55.6907 60.7608 55.5293 61.238 55.5293C61.7152 55.5293 62.1152 55.6907 62.438 56.0135C62.7608 56.3363 62.9222 56.7363 62.9222 57.2135C62.9222 57.6907 62.7608 58.0907 62.438 58.4135C62.1152 58.7363 61.7152 58.8977 61.238 58.8977ZM61.238 52.1609C60.7608 52.1609 60.3608 51.9995 60.038 51.6767C59.7152 51.3539 59.5538 50.9539 59.5538 50.4767C59.5538 49.9995 59.7152 49.5995 60.038 49.2767C60.3608 48.9539 60.7608 48.7925 61.238 48.7925C61.7152 48.7925 62.1152 48.9539 62.438 49.2767C62.7608 49.5995 62.9222 49.9995 62.9222 50.4767C62.9222 50.9539 62.7608 51.3539 62.438 51.6767C62.1152 51.9995 61.7152 52.1609 61.238 52.1609ZM67.9748 66.4767C67.2731 66.4767 66.6766 66.2311 66.1854 65.7398C65.6941 65.2486 65.4485 64.6521 65.4485 63.9504C65.4485 63.2486 65.6941 62.6521 66.1854 62.1609C66.6766 61.6697 67.2731 61.424 67.9748 61.424C68.6766 61.424 69.2731 61.6697 69.7643 62.1609C70.2555 62.6521 70.5012 63.2486 70.5012 63.9504C70.5012 64.6521 70.2555 65.2486 69.7643 65.7398C69.2731 66.2311 68.6766 66.4767 67.9748 66.4767ZM67.9748 59.7398C67.2731 59.7398 66.6766 59.4942 66.1854 59.003C65.6941 58.5118 65.4485 57.9153 65.4485 57.2135C65.4485 56.5118 65.6941 55.9153 66.1854 55.424C66.6766 54.9328 67.2731 54.6872 67.9748 54.6872C68.6766 54.6872 69.2731 54.9328 69.7643 55.424C70.2555 55.9153 70.5012 56.5118 70.5012 57.2135C70.5012 57.9153 70.2555 58.5118 69.7643 59.003C69.2731 59.4942 68.6766 59.7398 67.9748 59.7398ZM67.9748 72.3714C67.4976 72.3714 67.0976 72.21 66.7748 71.8872C66.452 71.5644 66.2906 71.1644 66.2906 70.6872C66.2906 70.21 66.452 69.81 66.7748 69.4872C67.0976 69.1644 67.4976 69.003 67.9748 69.003C68.452 69.003 68.852 69.1644 69.1748 69.4872C69.4976 69.81 69.6591 70.21 69.6591 70.6872C69.6591 71.1644 69.4976 71.5644 69.1748 71.8872C68.852 72.21 68.452 72.3714 67.9748 72.3714ZM67.9748 52.1609C67.4976 52.1609 67.0976 51.9995 66.7748 51.6767C66.452 51.3539 66.2906 50.9539 66.2906 50.4767C66.2906 49.9995 66.452 49.5995 66.7748 49.2767C67.0976 48.9539 67.4976 48.7925 67.9748 48.7925C68.452 48.7925 68.852 48.9539 69.1748 49.2767C69.4976 49.5995 69.6591 49.9995 69.6591 50.4767C69.6591 50.9539 69.4976 51.3539 69.1748 51.6767C68.852 51.9995 68.452 52.1609 67.9748 52.1609ZM67.9748 76.5819C67.7503 76.5819 67.5538 76.4977 67.3854 76.3293C67.2169 76.1609 67.1327 75.9644 67.1327 75.7398C67.1327 75.5153 67.2169 75.3188 67.3854 75.1504C67.5538 74.9819 67.7503 74.8977 67.9748 74.8977C68.1994 74.8977 68.3959 74.9819 68.5643 75.1504C68.7327 75.3188 68.8169 75.5153 68.8169 75.7398C68.8169 75.9644 68.7327 76.1609 68.5643 76.3293C68.3959 76.4977 68.1994 76.5819 67.9748 76.5819ZM67.9748 46.2662C67.7503 46.2662 67.5538 46.1819 67.3854 46.0135C67.2169 45.8451 67.1327 45.6486 67.1327 45.424C67.1327 45.1995 67.2169 45.003 67.3854 44.8346C67.5538 44.6662 67.7503 44.5819 67.9748 44.5819C68.1994 44.5819 68.3959 44.6662 68.5643 44.8346C68.7327 45.003 68.8169 45.1995 68.8169 45.424C68.8169 45.6486 68.7327 45.8451 68.5643 46.0135C68.3959 46.1819 68.1994 46.2662 67.9748 46.2662ZM74.7117 66.4767C74.0099 66.4767 73.4134 66.2311 72.9222 65.7398C72.431 65.2486 72.1854 64.6521 72.1854 63.9504C72.1854 63.2486 72.431 62.6521 72.9222 62.1609C73.4134 61.6697 74.0099 61.424 74.7117 61.424C75.4134 61.424 76.0099 61.6697 76.5012 62.1609C76.9924 62.6521 77.238 63.2486 77.238 63.9504C77.238 64.6521 76.9924 65.2486 76.5012 65.7398C76.0099 66.2311 75.4134 66.4767 74.7117 66.4767ZM74.7117 59.7398C74.0099 59.7398 73.4134 59.4942 72.9222 59.003C72.431 58.5118 72.1854 57.9153 72.1854 57.2135C72.1854 56.5118 72.431 55.9153 72.9222 55.424C73.4134 54.9328 74.0099 54.6872 74.7117 54.6872C75.4134 54.6872 76.0099 54.9328 76.5012 55.424C76.9924 55.9153 77.238 56.5118 77.238 57.2135C77.238 57.9153 76.9924 58.5118 76.5012 59.003C76.0099 59.4942 75.4134 59.7398 74.7117 59.7398ZM74.7117 72.3714C74.2345 72.3714 73.8345 72.21 73.5117 71.8872C73.1889 71.5644 73.0275 71.1644 73.0275 70.6872C73.0275 70.21 73.1889 69.81 73.5117 69.4872C73.8345 69.1644 74.2345 69.003 74.7117 69.003C75.1889 69.003 75.5889 69.1644 75.9117 69.4872C76.2345 69.81 76.3959 70.21 76.3959 70.6872C76.3959 71.1644 76.2345 71.5644 75.9117 71.8872C75.5889 72.21 75.1889 72.3714 74.7117 72.3714ZM74.7117 52.1609C74.2345 52.1609 73.8345 51.9995 73.5117 51.6767C73.1889 51.3539 73.0275 50.9539 73.0275 50.4767C73.0275 49.9995 73.1889 49.5995 73.5117 49.2767C73.8345 48.9539 74.2345 48.7925 74.7117 48.7925C75.1889 48.7925 75.5889 48.9539 75.9117 49.2767C76.2345 49.5995 76.3959 49.9995 76.3959 50.4767C76.3959 50.9539 76.2345 51.3539 75.9117 51.6767C75.5889 51.9995 75.1889 52.1609 74.7117 52.1609ZM74.7117 76.5819C74.4871 76.5819 74.2906 76.4977 74.1222 76.3293C73.9538 76.1609 73.8696 75.9644 73.8696 75.7398C73.8696 75.5153 73.9538 75.3188 74.1222 75.1504C74.2906 74.9819 74.4871 74.8977 74.7117 74.8977C74.9362 74.8977 75.1327 74.9819 75.3012 75.1504C75.4696 75.3188 75.5538 75.5153 75.5538 75.7398C75.5538 75.9644 75.4696 76.1609 75.3012 76.3293C75.1327 76.4977 74.9362 76.5819 74.7117 76.5819ZM74.7117 46.2662C74.4871 46.2662 74.2906 46.1819 74.1222 46.0135C73.9538 45.8451 73.8696 45.6486 73.8696 45.424C73.8696 45.1995 73.9538 45.003 74.1222 44.8346C74.2906 44.6662 74.4871 44.5819 74.7117 44.5819C74.9362 44.5819 75.1327 44.6662 75.3012 44.8346C75.4696 45.003 75.5538 45.1995 75.5538 45.424C75.5538 45.6486 75.4696 45.8451 75.3012 46.0135C75.1327 46.1819 74.9362 46.2662 74.7117 46.2662ZM81.4485 72.3714C80.9713 72.3714 80.5713 72.21 80.2485 71.8872C79.9257 71.5644 79.7643 71.1644 79.7643 70.6872C79.7643 70.21 79.9257 69.81 80.2485 69.4872C80.5713 69.1644 80.9713 69.003 81.4485 69.003C81.9257 69.003 82.3257 69.1644 82.6485 69.4872C82.9713 69.81 83.1327 70.21 83.1327 70.6872C83.1327 71.1644 82.9713 71.5644 82.6485 71.8872C82.3257 72.21 81.9257 72.3714 81.4485 72.3714ZM81.4485 65.6346C80.9713 65.6346 80.5713 65.4732 80.2485 65.1504C79.9257 64.8276 79.7643 64.4276 79.7643 63.9504C79.7643 63.4732 79.9257 63.0732 80.2485 62.7504C80.5713 62.4276 80.9713 62.2662 81.4485 62.2662C81.9257 62.2662 82.3257 62.4276 82.6485 62.7504C82.9713 63.0732 83.1327 63.4732 83.1327 63.9504C83.1327 64.4276 82.9713 64.8276 82.6485 65.1504C82.3257 65.4732 81.9257 65.6346 81.4485 65.6346ZM81.4485 58.8977C80.9713 58.8977 80.5713 58.7363 80.2485 58.4135C79.9257 58.0907 79.7643 57.6907 79.7643 57.2135C79.7643 56.7363 79.9257 56.3363 80.2485 56.0135C80.5713 55.6907 80.9713 55.5293 81.4485 55.5293C81.9257 55.5293 82.3257 55.6907 82.6485 56.0135C82.9713 56.3363 83.1327 56.7363 83.1327 57.2135C83.1327 57.6907 82.9713 58.0907 82.6485 58.4135C82.3257 58.7363 81.9257 58.8977 81.4485 58.8977ZM81.4485 52.1609C80.9713 52.1609 80.5713 51.9995 80.2485 51.6767C79.9257 51.3539 79.7643 50.9539 79.7643 50.4767C79.7643 49.9995 79.9257 49.5995 80.2485 49.2767C80.5713 48.9539 80.9713 48.7925 81.4485 48.7925C81.9257 48.7925 82.3257 48.9539 82.6485 49.2767C82.9713 49.5995 83.1327 49.9995 83.1327 50.4767C83.1327 50.9539 82.9713 51.3539 82.6485 51.6767C82.3257 51.9995 81.9257 52.1609 81.4485 52.1609ZM86.5012 64.7925C86.2766 64.7925 86.0801 64.7083 85.9117 64.5398C85.7433 64.3714 85.6591 64.1749 85.6591 63.9504C85.6591 63.7258 85.7433 63.5293 85.9117 63.3609C86.0801 63.1925 86.2766 63.1083 86.5012 63.1083C86.7257 63.1083 86.9222 63.1925 87.0906 63.3609C87.2591 63.5293 87.3433 63.7258 87.3433 63.9504C87.3433 64.1749 87.2591 64.3714 87.0906 64.5398C86.9222 64.7083 86.7257 64.7925 86.5012 64.7925ZM86.5012 58.0556C86.2766 58.0556 86.0801 57.9714 85.9117 57.803C85.7433 57.6346 85.6591 57.4381 85.6591 57.2135C85.6591 56.989 85.7433 56.7925 85.9117 56.624C86.0801 56.4556 86.2766 56.3714 86.5012 56.3714C86.7257 56.3714 86.9222 56.4556 87.0906 56.624C87.2591 56.7925 87.3433 56.989 87.3433 57.2135C87.3433 57.4381 87.2591 57.6346 87.0906 57.803C86.9222 57.9714 86.7257 58.0556 86.5012 58.0556Z" fill="white"/>
</g>
<defs>
<filter id="filter0_d_233_17614" x="0.000152588" y="-8.58307e-06" width="142.686" height="142.686" filterUnits="userSpaceOnUse" color-interpolation-filters="sRGB">
<feFlood flood-opacity="0" result="BackgroundImageFix"/>
<feColorMatrix in="SourceAlpha" type="matrix" values="0 0 0 0 0 0 0 0 0 0 0 0 0 0 0 0 0 0 127 0" result="hardAlpha"/>
<feOffset dy="10.7612"/>
<feGaussianBlur stdDeviation="27.6716"/>
<feComposite in2="hardAlpha" operator="out"/>
<feColorMatrix type="matrix" values="0 0 0 0 0.0196078 0 0 0 0 0.203922 0 0 0 0 0.466667 0 0 0 0.35 0"/>
<feBlend mode="normal" in2="BackgroundImageFix" result="effect1_dropShadow_233_17614"/>
<feBlend mode="normal" in="SourceGraphic" in2="effect1_dropShadow_233_17614" result="shape"/>
</filter>
</defs>
</svg>
