<svg width="16" height="16" viewBox="0 0 16 16" fill="none" xmlns="http://www.w3.org/2000/svg">
<path d="M14.1972 13.0704C15.3239 11.6808 16 9.91549 16 8C16 3.56808 12.4319 0 8 0C3.56808 0 0 3.56808 0 8C0 12.4319 3.56808 16 8 16C9.91549 16 11.6808 15.3239 13.0704 14.1972C13.2958 14.0094 13.4836 13.8216 13.7089 13.6338C13.7089 13.5962 13.7465 13.5962 13.7465 13.5587C13.8967 13.4085 14.0469 13.2582 14.1972 13.0704ZM8 14.4225C4.46948 14.4225 1.57746 11.5305 1.57746 8C1.57746 4.46948 4.46948 1.57746 8 1.57746C11.5305 1.57746 14.4225 4.46948 14.4225 8C14.4225 9.46479 13.8967 10.8545 13.0704 11.9437L11.9061 10.7793C12.4695 9.99061 12.8075 9.05164 12.8075 8C12.8075 5.37089 10.6291 3.19249 8 3.19249C5.33333 3.19249 3.19249 5.37089 3.19249 8C3.19249 10.6667 5.33333 12.8075 8 12.8075C9.01408 12.8075 9.99061 12.4695 10.7793 11.9061L11.9061 13.0329C10.8545 13.8967 9.46479 14.4225 8 14.4225ZM9.53991 8.41315C9.69014 7.88732 9.53991 7.28639 9.16432 6.87324H9.12676C8.52582 6.23474 7.51174 6.23474 6.9108 6.83568C6.9108 6.83568 6.87324 6.83568 6.87324 6.87324C6.23474 7.51174 6.23474 8.52582 6.87324 9.12676V9.16432C7.28639 9.57747 7.88732 9.69014 8.41315 9.53991L9.61502 10.7418C9.12676 11.0423 8.60094 11.23 8 11.23C6.19718 11.23 4.76995 9.80282 4.76995 8C4.76995 6.23474 6.19718 4.80751 8 4.80751C9.76526 4.80751 11.1925 6.23474 11.1925 8C11.1925 8.60094 11.0047 9.16432 10.7418 9.61502L9.53991 8.41315Z" fill="white"/>
</svg>
