<svg width="14" height="16" viewBox="0 0 14 16" fill="none" xmlns="http://www.w3.org/2000/svg">
<path d="M6.73145 9.96973V16L0 14V7.97168L6.73145 9.96973ZM14 14.001L7.26855 16V9.96973L14 7.97168V14.001ZM12.5762 11.9219L8.56152 13.1055C8.41331 13.1495 8.30792 13.3425 8.32617 13.5371C8.34465 13.7321 8.48035 13.8553 8.62891 13.8115L12.6436 12.6279C12.792 12.584 12.8974 12.3902 12.8789 12.1953C12.8603 12.0006 12.7244 11.8796 12.5762 11.9219ZM1.37012 11.7285C1.22187 11.6864 1.08586 11.8071 1.06738 12.002C1.0489 12.1969 1.15516 12.3908 1.30371 12.4346L5.31836 13.6182C5.46672 13.6615 5.60166 13.5385 5.62012 13.3438C5.63859 13.1488 5.53332 12.9549 5.38477 12.9111L1.37012 11.7285ZM12.5098 10.3057L8.49512 11.4893C8.34657 11.533 8.24032 11.7269 8.25879 11.9219C8.27726 12.1168 8.41304 12.2389 8.56152 12.1953L12.5762 11.0127C12.7247 10.9689 12.83 10.7751 12.8115 10.5801C12.7931 10.3853 12.6581 10.2623 12.5098 10.3057ZM1.4375 10.1123C1.28894 10.0685 1.15325 10.1917 1.13477 10.3867C1.11649 10.5815 1.22176 10.7755 1.37012 10.8193L5.38477 12.002C5.53321 12.0457 5.66886 11.9232 5.6875 11.7285C5.70597 11.5337 5.60056 11.3398 5.45215 11.2959L1.4375 10.1123ZM7.93066 5.84473C7.98513 6.03172 8.0583 6.21089 8.14648 6.37988C8.25017 6.57839 8.37504 6.76245 8.51758 6.93066L8.95703 7.21973C9.48542 7.28772 9.98881 7.42448 10.4561 7.61914C10.8349 7.77672 11.1899 7.97172 11.5166 8.19922L7.00098 9.54004L2.4834 8.19922C2.81021 7.97156 3.16697 7.7768 3.54492 7.61914C4.01202 7.42456 4.51588 7.28773 5.04297 7.21973L5.48242 6.93066C5.6254 6.7624 5.75053 6.57813 5.85352 6.37988C5.9417 6.21089 6.01571 6.03172 6.07129 5.84473C6.31063 5.93138 6.57326 5.98592 6.83594 6.00293C6.83936 6.00339 6.84264 6.00367 6.8457 6.00391C6.84914 6.00417 6.85316 6.00436 6.85645 6.00488C6.86361 6.00488 6.87076 6.00492 6.87793 6.00586H6.89062C6.901 6.00686 6.91541 6.00684 6.92578 6.00684C6.93712 6.00779 6.95159 6.00781 6.96289 6.00781C6.96918 6.00781 6.97613 6.00756 6.98242 6.00781C6.98859 6.00806 6.99481 6.00879 7.00098 6.00879C7.00726 6.00879 7.01395 6.00806 7.02051 6.00781C7.02417 6.00768 7.03665 6.00791 7.04004 6.00781C7.05246 6.00781 7.06772 6.0078 7.0791 6.00684C7.08948 6.00684 7.10072 6.00686 7.11035 6.00586H7.12207C7.12943 6.00487 7.13718 6.00488 7.14453 6.00488C7.14755 6.0044 7.15101 6.00415 7.1543 6.00391C7.15772 6.00366 7.16189 6.00343 7.16504 6.00293H7.1748C7.43752 5.98593 7.6913 5.93172 7.93066 5.84473ZM7.00098 0C7.65733 0.000128626 8.25563 0.301595 8.69238 0.790039C9.14107 1.29164 9.41988 1.9888 9.41992 2.7627C9.41992 3.53663 9.1407 4.23369 8.69238 4.73633C8.25524 5.22387 7.65851 5.52526 7.00098 5.52539C6.34327 5.52539 5.74435 5.22397 5.30859 4.73633C4.8592 4.23369 4.58105 3.5366 4.58105 2.7627C4.5811 1.9888 4.85917 1.29164 5.30859 0.790039C5.74471 0.301451 6.34443 0 7.00098 0Z" fill="#0341A2"/>
</svg>
