<svg width="21" height="16" viewBox="0 0 21 16" fill="none" xmlns="http://www.w3.org/2000/svg">
<path d="M3.0855 13.5166C2.10902 13.645 1.36352 12.6705 1.38508 11.6869V2.17474L0.610609 2.54915C0.416936 2.66109 0.257398 2.82607 0.14981 3.02567C0.0422225 3.22526 -0.0091792 3.45162 0.00134496 3.67946V14.7952C-0.0124819 15.4959 0.542459 16.222 1.21987 15.9361C3.19909 15.0601 6.41746 13.9651 8.80628 14.7917C7.01639 13.3152 4.57938 13.3258 3.0855 13.5166Z" fill="white"/>
<path d="M20.1894 2.54915L19.4149 2.17474V11.6869C19.4366 12.6703 18.6907 13.6454 17.7145 13.5166C16.2206 13.3259 13.7836 13.3152 11.9937 14.7917C14.3825 13.9652 17.6009 15.0602 19.5801 15.9361C20.2556 16.2216 20.8131 15.4961 20.7986 14.7953L20.7987 3.67948C20.8092 3.45163 20.7578 3.22527 20.6502 3.02567C20.5426 2.82607 20.383 2.66108 20.1894 2.54915Z" fill="white"/>
<path d="M17.7902 12.8878C18.4683 12.9209 18.7748 12.3086 18.7988 11.6869L18.7988 1.38705C18.8156 1.12253 18.7444 0.859977 18.5968 0.642424C18.4492 0.42487 18.234 0.265221 17.9864 0.189644C13.1089 -0.756958 11.0299 2.12529 10.7098 2.63039V15.2156C12.6752 12.6795 15.9211 12.6477 17.7902 12.8878ZM14.7543 2.24891C15.5916 2.25877 16.3909 2.60904 16.9768 3.22289C17.5627 3.83673 17.8874 4.66402 17.8797 5.52324C17.8859 5.94872 17.8097 6.37122 17.6553 6.76617C17.501 7.16112 17.2716 7.52063 16.9806 7.82378C16.6896 8.12692 16.3428 8.36766 15.9602 8.53198C15.5777 8.6963 15.1672 8.78092 14.7525 8.78091C14.3378 8.78091 13.9273 8.69629 13.5448 8.53196C13.1623 8.36764 12.8154 8.1269 12.5244 7.82375C12.2334 7.5206 12.0041 7.16109 11.8497 6.76614C11.6954 6.37119 11.6191 5.94868 11.6254 5.5232C11.6184 4.66361 11.9439 3.83626 12.5304 3.2225C13.1169 2.60873 13.9166 2.25862 14.7543 2.24891ZM12.0006 10.4648C12.0008 10.3815 12.0331 10.3016 12.0905 10.2427C12.1479 10.1838 12.2257 10.1506 12.3069 10.1504H17.3118C17.3524 10.1501 17.3926 10.1581 17.4302 10.1739C17.4678 10.1897 17.502 10.2129 17.5308 10.2423C17.5596 10.2717 17.5825 10.3066 17.5981 10.3451C17.6137 10.3836 17.6217 10.4249 17.6217 10.4665C17.6217 10.5082 17.6137 10.5495 17.5981 10.588C17.5825 10.6264 17.5596 10.6614 17.5308 10.6908C17.502 10.7201 17.4678 10.7434 17.4302 10.7592C17.3926 10.7749 17.3524 10.7829 17.3118 10.7827H12.3069C12.2664 10.7825 12.2264 10.7741 12.1891 10.758C12.1518 10.7419 12.118 10.7184 12.0895 10.6889C12.061 10.6594 12.0385 10.6244 12.0233 10.5859C12.008 10.5475 12.0003 10.5063 12.0006 10.4648Z" fill="white"/>
<path d="M2.81358 0.189647C2.24342 0.295534 1.93813 0.996569 2.00123 1.64141C2.00049 1.6874 2.00173 11.6328 2.00121 11.687C2.02469 12.3103 2.33212 12.9188 3.00972 12.8879C4.87884 12.6477 8.12476 12.6795 10.0902 15.2156V2.63039C9.76663 2.12175 7.68761 -0.756954 2.81358 0.189647ZM8.49306 10.7827H3.48822C3.40721 10.7816 3.32987 10.7478 3.27296 10.6886C3.21604 10.6295 3.18414 10.5497 3.18414 10.4665C3.18414 10.3834 3.21606 10.3036 3.27298 10.2444C3.32989 10.1853 3.40723 10.1515 3.48824 10.1504L8.49308 10.1504C8.57371 10.1521 8.65048 10.1861 8.70693 10.2452C8.76337 10.3043 8.79498 10.3838 8.79498 10.4665C8.79497 10.5493 8.76336 10.6288 8.70691 10.6879C8.65047 10.747 8.57369 10.781 8.49306 10.7827ZM6.04571 8.79759C5.20842 8.78773 4.40912 8.43746 3.82319 7.82361C3.23725 7.20976 2.91254 6.38247 2.92028 5.52324C2.91404 5.09776 2.99031 4.67526 3.14466 4.28031C3.29902 3.88537 3.52837 3.52586 3.81938 3.22272C4.11038 2.91957 4.45723 2.67883 4.83974 2.51452C5.22225 2.3502 5.63278 2.26558 6.04746 2.26558C6.46213 2.26559 6.87266 2.35021 7.25517 2.51453C7.63768 2.67886 7.98453 2.9196 8.27553 3.22275C8.56653 3.5259 8.79587 3.88541 8.95022 4.28036C9.10457 4.67531 9.18084 5.09781 9.17459 5.52329C9.18155 6.38288 8.85611 7.21023 8.2696 7.824C7.68309 8.43777 6.88336 8.78788 6.04571 8.79759Z" fill="white"/>
<path d="M13.5667 4.79915C13.5086 4.74148 13.4748 4.66275 13.4725 4.5798C13.4702 4.49685 13.4997 4.41628 13.5546 4.35534C13.6094 4.2944 13.6854 4.25794 13.7662 4.25375C13.8469 4.24956 13.9261 4.27798 13.9867 4.33293L14.7543 5.06407L15.5184 4.33291C15.5791 4.27669 15.6588 4.24707 15.7405 4.25036C15.8222 4.25366 15.8994 4.28963 15.9556 4.35056C15.9835 4.38101 16.0052 4.41686 16.0194 4.456C16.0337 4.49514 16.0402 4.5368 16.0386 4.57856C16.037 4.62031 16.0273 4.66132 16.0101 4.69919C15.9929 4.73706 15.9685 4.77105 15.9384 4.79915L15.2052 5.49852L15.9934 6.25087C16.0375 6.29462 16.068 6.35081 16.081 6.41234C16.094 6.47386 16.089 6.53796 16.0665 6.59654C16.044 6.65512 16.0052 6.70555 15.9548 6.74147C15.9044 6.77739 15.8448 6.79719 15.7834 6.79836C15.7055 6.79862 15.6304 6.7683 15.5735 6.71359L14.7543 5.93298L13.9351 6.71359C13.8782 6.7683 13.803 6.79863 13.7251 6.79836C13.6633 6.79803 13.6031 6.77873 13.5522 6.74294C13.5013 6.70715 13.462 6.65652 13.4394 6.59759C13.4168 6.53865 13.4119 6.47411 13.4254 6.41231C13.4389 6.3505 13.4701 6.29427 13.5151 6.25087L14.2999 5.49852L13.5667 4.79915Z" fill="white"/>
<path d="M7.84595 4.86626L5.8323 7.01736C5.80163 7.05049 5.76433 7.07641 5.72297 7.09336C5.68162 7.1103 5.63718 7.11785 5.5927 7.11551C5.54823 7.11316 5.50478 7.10096 5.46534 7.07976C5.42589 7.05855 5.39138 7.02884 5.36418 6.99266L4.35907 5.66102C4.31063 5.59483 4.28943 5.51177 4.30005 5.42972C4.31067 5.34766 4.35226 5.27316 4.41586 5.22224C4.47946 5.17132 4.56 5.14806 4.64014 5.15745C4.72029 5.16684 4.79364 5.20814 4.84441 5.27247L5.63266 6.31446L7.39848 4.42828C7.45552 4.3694 7.53279 4.3358 7.61369 4.3347C7.69459 4.3336 7.7727 4.36508 7.83125 4.42238C7.8898 4.47969 7.92413 4.55826 7.92687 4.64124C7.92962 4.72422 7.90057 4.805 7.84595 4.86626Z" fill="white"/>
</svg>
