<svg width="336" height="316" viewBox="0 0 336 316" fill="none" xmlns="http://www.w3.org/2000/svg">
<g filter="url(#filter0_d_233_17502)">
<path d="M8 28C8 14.7452 18.7452 4 32 4H304C317.255 4 328 14.7452 328 28V280C328 293.255 317.255 304 304 304H32C18.7452 304 8 293.255 8 280V28Z" fill="url(#paint0_linear_233_17502)"/>
<path d="M32 4.5H304C316.979 4.5 327.5 15.0213 327.5 28V280C327.5 292.979 316.979 303.5 304 303.5H32C19.0213 303.5 8.5 292.979 8.5 280V28C8.5 15.0213 19.0213 4.5 32 4.5Z" stroke="black"/>
</g>
<g filter="url(#filter1_ddi_233_17502)">
<circle cx="168" cy="154" r="122.5" fill="url(#paint1_linear_233_17502)" fill-opacity="0.2" shape-rendering="crispEdges"/>
<circle cx="168" cy="154" r="123" stroke="#091970" shape-rendering="crispEdges"/>
</g>
<g filter="url(#filter2_dd_233_17502)">
<circle cx="168" cy="154" r="96" fill="url(#paint2_linear_233_17502)" fill-opacity="0.2" shape-rendering="crispEdges"/>
</g>
<g filter="url(#filter3_d_233_17502)">
<path d="M177.078 138.732C192.756 136.988 206.868 148.315 208.557 163.999C210.247 179.683 198.871 193.755 183.181 195.39C167.568 197.017 153.58 185.709 151.899 170.102C150.218 154.495 161.477 140.467 177.078 138.732ZM181.315 187.433C192.553 186.838 201.188 177.258 200.617 166.019C200.045 154.78 190.484 146.125 179.244 146.673C167.97 147.222 159.283 156.818 159.856 168.091C160.429 179.364 170.044 188.03 181.315 187.433Z" fill="white" fill-opacity="0.48" shape-rendering="crispEdges"/>
<path d="M166.234 97.6899C167.814 97.5975 168.459 97.8636 169.906 98.4166C172.415 99.3753 174.922 100.339 177.428 101.304L207.962 113.044C210.025 113.831 214.35 115.323 215.993 116.376C216.668 118.411 216.206 143.554 216.009 146.943C213.355 146.841 210.7 146.756 208.046 146.687C208.28 144.99 208.227 139.068 208.199 137.046C208.131 132.108 208.364 126.675 208.18 121.795C207.243 121.511 205.774 120.892 204.8 120.518L198.496 118.109L178.455 110.405C176.013 109.458 168.947 106.397 166.827 106.555C166.086 106.615 165.357 106.769 164.655 107.011C159.309 108.818 152.875 111.539 147.519 113.592L133.989 118.778C132.643 119.294 126.308 121.582 125.836 122.13C125.464 123.129 125.629 128.993 125.617 130.452C125.528 140.735 125.499 149.482 128.679 159.398C129.291 161.325 129.992 163.223 130.78 165.085C131.225 166.154 131.82 167.362 132.184 168.417C132.909 169.643 133.5 170.896 134.198 172.131C135.449 174.352 136.829 176.499 138.328 178.56C144.403 186.95 152.325 193.83 161.483 198.67C162.879 199.405 165.35 200.736 166.819 200.96L166.914 200.974C167.906 201.127 169.612 200.173 170.169 200.612C170.856 201.156 173.12 206.995 172.675 207.574C171.877 208.613 167.573 209.926 166.372 209.605C163.995 208.97 161.234 207.629 159.016 206.497C140.958 197.38 127.312 181.401 121.133 162.139C119.765 157.811 118.784 153.37 118.202 148.868C117.928 146.701 117.75 144.046 117.688 141.865C117.466 134.011 117.615 126.127 117.573 118.269C117.57 117.704 117.717 116.874 117.948 116.366C118.084 116.064 118.667 115.93 118.955 115.773C122.572 114.385 126.198 113.001 129.815 111.614L159.888 100.049C161.822 99.3053 164.284 98.2869 166.234 97.6899Z" fill="white" fill-opacity="0.48" shape-rendering="crispEdges"/>
<path d="M205.908 187.752C206.143 187.756 206.496 187.749 206.677 187.908C208.153 189.205 209.623 190.651 210.985 192.07C213.205 194.382 215.749 196.605 217.788 199.066C216.103 201.451 214.401 202.569 212.705 204.601C211.098 204.053 202.931 195.352 201.268 193.702C201.146 193.581 200.88 193.21 200.954 193.003C201.404 191.731 204.918 188.415 205.908 187.752Z" fill="white" fill-opacity="0.48" shape-rendering="crispEdges"/>
</g>
<defs>
<filter id="filter0_d_233_17502" x="0" y="0" width="336" height="316" filterUnits="userSpaceOnUse" color-interpolation-filters="sRGB">
<feFlood flood-opacity="0" result="BackgroundImageFix"/>
<feColorMatrix in="SourceAlpha" type="matrix" values="0 0 0 0 0 0 0 0 0 0 0 0 0 0 0 0 0 0 127 0" result="hardAlpha"/>
<feOffset dy="4"/>
<feGaussianBlur stdDeviation="4"/>
<feComposite in2="hardAlpha" operator="out"/>
<feColorMatrix type="matrix" values="0 0 0 0 0.0352941 0 0 0 0 0.407843 0 0 0 0 0.898039 0 0 0 0.25 0"/>
<feBlend mode="normal" in2="BackgroundImageFix" result="effect1_dropShadow_233_17502"/>
<feBlend mode="normal" in="SourceGraphic" in2="effect1_dropShadow_233_17502" result="shape"/>
</filter>
<filter id="filter1_ddi_233_17502" x="34.5" y="25.5" width="261" height="260" filterUnits="userSpaceOnUse" color-interpolation-filters="sRGB">
<feFlood flood-opacity="0" result="BackgroundImageFix"/>
<feColorMatrix in="SourceAlpha" type="matrix" values="0 0 0 0 0 0 0 0 0 0 0 0 0 0 0 0 0 0 127 0" result="hardAlpha"/>
<feOffset dy="4"/>
<feGaussianBlur stdDeviation="2"/>
<feComposite in2="hardAlpha" operator="out"/>
<feColorMatrix type="matrix" values="0 0 0 0 0 0 0 0 0 0 0 0 0 0 0 0 0 0 0.25 0"/>
<feBlend mode="normal" in2="BackgroundImageFix" result="effect1_dropShadow_233_17502"/>
<feColorMatrix in="SourceAlpha" type="matrix" values="0 0 0 0 0 0 0 0 0 0 0 0 0 0 0 0 0 0 127 0" result="hardAlpha"/>
<feOffset dx="-5"/>
<feGaussianBlur stdDeviation="2.5"/>
<feComposite in2="hardAlpha" operator="out"/>
<feColorMatrix type="matrix" values="0 0 0 0 0.0352941 0 0 0 0 0.0980392 0 0 0 0 0.439216 0 0 0 0.75 0"/>
<feBlend mode="normal" in2="effect1_dropShadow_233_17502" result="effect2_dropShadow_233_17502"/>
<feBlend mode="normal" in="SourceGraphic" in2="BackgroundImageFix" result="shape"/>
<feColorMatrix in="SourceAlpha" type="matrix" values="0 0 0 0 0 0 0 0 0 0 0 0 0 0 0 0 0 0 127 0" result="hardAlpha"/>
<feMorphology radius="4" operator="erode" in="SourceAlpha" result="effect3_innerShadow_233_17502"/>
<feOffset dx="1"/>
<feGaussianBlur stdDeviation="2.5"/>
<feComposite in2="hardAlpha" operator="arithmetic" k2="-1" k3="1"/>
<feColorMatrix type="matrix" values="0 0 0 0 0.0352941 0 0 0 0 0.0980392 0 0 0 0 0.439216 0 0 0 0.5 0"/>
<feBlend mode="normal" in2="shape" result="effect3_innerShadow_233_17502"/>
<feBlend mode="normal" in="effect3_innerShadow_233_17502" in2="effect2_dropShadow_233_17502" result="effect3_innerShadow_233_17502"/>
</filter>
<filter id="filter2_dd_233_17502" x="34" y="22" width="260" height="258" filterUnits="userSpaceOnUse" color-interpolation-filters="sRGB">
<feFlood flood-opacity="0" result="BackgroundImageFix"/>
<feColorMatrix in="SourceAlpha" type="matrix" values="0 0 0 0 0 0 0 0 0 0 0 0 0 0 0 0 0 0 127 0" result="hardAlpha"/>
<feOffset dx="5" dy="5"/>
<feGaussianBlur stdDeviation="12.5"/>
<feComposite in2="hardAlpha" operator="out"/>
<feColorMatrix type="matrix" values="0 0 0 0 0.0352941 0 0 0 0 0.407843 0 0 0 0 0.898039 0 0 0 0.5 0"/>
<feBlend mode="normal" in2="BackgroundImageFix" result="effect1_dropShadow_233_17502"/>
<feColorMatrix in="SourceAlpha" type="matrix" values="0 0 0 0 0 0 0 0 0 0 0 0 0 0 0 0 0 0 127 0" result="hardAlpha"/>
<feOffset dx="-8" dy="-6"/>
<feGaussianBlur stdDeviation="15"/>
<feComposite in2="hardAlpha" operator="out"/>
<feColorMatrix type="matrix" values="0 0 0 0 0.0352941 0 0 0 0 0.407843 0 0 0 0 0.898039 0 0 0 0.5 0"/>
<feBlend mode="normal" in2="effect1_dropShadow_233_17502" result="effect2_dropShadow_233_17502"/>
<feBlend mode="normal" in="BackgroundImageFix" in2="effect2_dropShadow_233_17502" result="BackgroundImageFix"/>
<feBlend mode="normal" in="SourceGraphic" in2="BackgroundImageFix" result="shape"/>
</filter>
<filter id="filter3_d_233_17502" x="113.562" y="97.6719" width="108.226" height="119.983" filterUnits="userSpaceOnUse" color-interpolation-filters="sRGB">
<feFlood flood-opacity="0" result="BackgroundImageFix"/>
<feColorMatrix in="SourceAlpha" type="matrix" values="0 0 0 0 0 0 0 0 0 0 0 0 0 0 0 0 0 0 127 0" result="hardAlpha"/>
<feOffset dy="4"/>
<feGaussianBlur stdDeviation="2"/>
<feComposite in2="hardAlpha" operator="out"/>
<feColorMatrix type="matrix" values="0 0 0 0 0.0588235 0 0 0 0 0.317647 0 0 0 0 0.262745 0 0 0 0.25 0"/>
<feBlend mode="normal" in2="BackgroundImageFix" result="effect1_dropShadow_233_17502"/>
<feBlend mode="normal" in="BackgroundImageFix" in2="effect1_dropShadow_233_17502" result="BackgroundImageFix"/>
<feBlend mode="normal" in="SourceGraphic" in2="BackgroundImageFix" result="shape"/>
</filter>
<linearGradient id="paint0_linear_233_17502" x1="168" y1="4" x2="168" y2="304" gradientUnits="userSpaceOnUse">
<stop stop-color="#9CD6FF"/>
<stop offset="0.99375" stop-color="#21ACA3"/>
</linearGradient>
<linearGradient id="paint1_linear_233_17502" x1="168" y1="31.5" x2="168" y2="276.5" gradientUnits="userSpaceOnUse">
<stop stop-color="#0968E5"/>
<stop offset="0.99375" stop-color="#091970"/>
</linearGradient>
<linearGradient id="paint2_linear_233_17502" x1="168" y1="58" x2="168" y2="250" gradientUnits="userSpaceOnUse">
<stop stop-color="#0968E5"/>
<stop offset="0.99375" stop-color="#091970"/>
</linearGradient>
</defs>
</svg>
