<svg width="336" height="316" viewBox="0 0 336 316" fill="none" xmlns="http://www.w3.org/2000/svg">
<g filter="url(#filter0_d_233_17495)">
<rect x="8" y="4" width="320" height="300" rx="24" fill="url(#paint0_linear_233_17495)"/>
<rect x="8.5" y="4.5" width="319" height="299" rx="23.5" stroke="black"/>
</g>
<g filter="url(#filter1_ddi_233_17495)">
<circle cx="168" cy="154" r="122.5" fill="url(#paint1_linear_233_17495)" fill-opacity="0.2" shape-rendering="crispEdges"/>
<circle cx="168" cy="154" r="123" stroke="#091970" shape-rendering="crispEdges"/>
</g>
<g filter="url(#filter2_dd_233_17495)">
<circle cx="168" cy="154" r="96" fill="url(#paint2_linear_233_17495)" fill-opacity="0.2" shape-rendering="crispEdges"/>
</g>
<g filter="url(#filter3_d_233_17495)">
<path d="M160.164 99.6382C162.132 99.8444 165.807 99.3317 167.909 99.3583C170.278 99.3884 172.964 99.7416 175.288 99.5139C179.843 100.219 185.826 102.884 189.883 104.976C191.217 105.664 193.01 106.528 194.092 107.534C194.286 108.694 194.243 110.443 194.243 111.655L194.237 117.402C194.231 121.497 194.277 125.662 194.208 129.734C194.135 134.034 192.702 139.042 190.073 142.491C186.601 147.046 180.954 150.419 176.263 153.752L171.512 157.123C170.684 157.708 169.2 158.832 168.33 159.196C167.86 159.209 167.313 159.017 166.944 158.766C164.656 157.212 162.12 155.485 159.91 153.852C156.233 151.135 151.753 148.422 148.444 145.384C144.064 141.363 141.817 135.586 141.8 129.756C141.787 125.478 141.762 121.116 141.777 116.825C141.787 114.099 141.749 111.299 141.795 108.569C141.801 108.237 141.897 107.428 142.132 107.212C142.787 106.607 143.956 106.084 144.764 105.649C148.908 103.421 153.206 101.503 157.747 100.199C158.203 100.067 159.701 99.6728 160.164 99.6382ZM147.718 110.63C147.357 112.217 147.308 115.513 147.416 117.286C147.833 124.133 146.034 132.225 149.921 138.312C152.234 141.934 155.619 143.77 158.99 146.199C161.515 147.848 165.534 151.333 168.158 152.381L169.109 151.724C170.735 150.789 173.765 148.483 175.358 147.355C180.378 143.796 186.312 140.525 187.853 134.147C188.767 130.366 188.435 124.685 188.469 120.674C188.494 117.718 188.569 113.497 188.339 110.662C187.674 110.18 186.827 109.797 186.085 109.427C180.006 106.39 173.437 104.081 166.507 104.558C159.363 105.09 153.951 107.262 147.718 110.63Z" fill="white" fill-opacity="0.48" shape-rendering="crispEdges"/>
<path d="M177.155 116.757C177.348 116.736 177.542 116.721 177.736 116.714C180.107 116.644 181.714 118.285 181.793 120.552C181.848 122.111 180.822 123.252 179.774 124.288C176.09 127.929 172.408 131.566 168.736 135.218C167.745 136.201 166.377 137.665 164.879 137.649C162.368 137.622 160.259 135.027 158.571 133.395C157.334 132.211 155.967 131.032 154.902 129.706C153.23 127.624 154.341 124.267 157.006 123.662C160.468 122.876 162.143 126.417 164.856 127.948C165.278 127.475 165.736 127.001 166.198 126.557C169.31 123.566 172.223 120.301 175.486 117.476C175.954 117.07 176.561 116.89 177.155 116.757Z" fill="white" fill-opacity="0.48" shape-rendering="crispEdges"/>
<path d="M129.405 171.564C139.548 170.783 149.667 178.967 148.987 189.229C147.133 189.631 143.74 189.563 141.769 189.564L132.759 189.563C129.739 189.561 114.985 189.875 113.331 189.218C113.127 189.029 113.01 188.773 113.003 188.504C112.915 185.037 114.588 181.061 116.696 178.43C119.96 174.357 124.326 172.225 129.405 171.564Z" fill="white" fill-opacity="0.48" shape-rendering="crispEdges"/>
<path d="M167.599 190.796C168.427 190.812 169.268 190.822 170.095 190.883C177.54 191.429 183.925 197.199 185.592 204.273C185.779 205.017 186.681 208.058 185.515 208.341C183.589 208.808 180.537 208.638 178.562 208.638L168.507 208.63L158.812 208.636C155.274 208.638 153.487 208.76 149.974 208.3C149.958 208.095 149.945 207.892 149.936 207.688C149.763 203.902 151.995 198.975 154.653 196.325C158.581 192.406 162.2 191.001 167.599 190.796Z" fill="white" fill-opacity="0.48" shape-rendering="crispEdges"/>
<path d="M187.014 189.275C186.487 185.009 188.656 180.474 191.524 177.388C194.17 174.541 197.139 172.94 200.899 171.975C203.078 172.158 207.971 172.529 210.016 172.31C211.75 172.648 214.461 174.115 215.848 175.164C219.785 178.108 222.344 182.487 222.948 187.31C223.034 187.967 223.061 188.576 222.638 189.117C221.51 189.714 215.142 189.563 213.464 189.564L202.149 189.563L194.466 189.571C191.684 189.581 189.766 189.694 187.014 189.275Z" fill="white" fill-opacity="0.48" shape-rendering="crispEdges"/>
<path d="M166.439 170.587C171.83 169.751 176.881 173.392 177.687 178.695C178.492 183.998 174.743 188.929 169.338 189.675C163.998 190.412 159.051 186.783 158.255 181.543C157.459 176.304 161.112 171.414 166.439 170.587Z" fill="white" fill-opacity="0.48" shape-rendering="crispEdges"/>
<path d="M129.956 151.427C135.345 150.841 140.196 154.662 140.784 159.957C141.372 165.252 137.474 170.011 132.083 170.581C126.704 171.149 121.873 167.33 121.286 162.047C120.699 156.764 124.579 152.012 129.956 151.427Z" fill="white" fill-opacity="0.48" shape-rendering="crispEdges"/>
<path d="M203.747 151.446C209.143 150.813 214.033 154.615 214.644 159.92C215.255 165.224 211.355 170.004 205.951 170.572C200.594 171.135 195.78 167.344 195.174 162.085C194.567 156.827 198.397 152.074 203.747 151.446Z" fill="white" fill-opacity="0.48" shape-rendering="crispEdges"/>
<path d="M160.164 99.6382C164.671 98.3719 170.773 98.3606 175.288 99.5139C172.964 99.7416 170.278 99.3884 167.909 99.3583C165.807 99.3317 162.132 99.8444 160.164 99.6382Z" fill="white" fill-opacity="0.48" shape-rendering="crispEdges"/>
<path d="M200.899 171.975C203.495 171.403 207.583 171.227 210.016 172.31C207.971 172.529 203.078 172.158 200.899 171.975Z" fill="white" fill-opacity="0.48" shape-rendering="crispEdges"/>
</g>
<defs>
<filter id="filter0_d_233_17495" x="0" y="0" width="336" height="316" filterUnits="userSpaceOnUse" color-interpolation-filters="sRGB">
<feFlood flood-opacity="0" result="BackgroundImageFix"/>
<feColorMatrix in="SourceAlpha" type="matrix" values="0 0 0 0 0 0 0 0 0 0 0 0 0 0 0 0 0 0 127 0" result="hardAlpha"/>
<feOffset dy="4"/>
<feGaussianBlur stdDeviation="4"/>
<feComposite in2="hardAlpha" operator="out"/>
<feColorMatrix type="matrix" values="0 0 0 0 0.0352941 0 0 0 0 0.407843 0 0 0 0 0.898039 0 0 0 0.25 0"/>
<feBlend mode="normal" in2="BackgroundImageFix" result="effect1_dropShadow_233_17495"/>
<feBlend mode="normal" in="SourceGraphic" in2="effect1_dropShadow_233_17495" result="shape"/>
</filter>
<filter id="filter1_ddi_233_17495" x="34.5" y="25.5" width="261" height="260" filterUnits="userSpaceOnUse" color-interpolation-filters="sRGB">
<feFlood flood-opacity="0" result="BackgroundImageFix"/>
<feColorMatrix in="SourceAlpha" type="matrix" values="0 0 0 0 0 0 0 0 0 0 0 0 0 0 0 0 0 0 127 0" result="hardAlpha"/>
<feOffset dy="4"/>
<feGaussianBlur stdDeviation="2"/>
<feComposite in2="hardAlpha" operator="out"/>
<feColorMatrix type="matrix" values="0 0 0 0 0 0 0 0 0 0 0 0 0 0 0 0 0 0 0.25 0"/>
<feBlend mode="normal" in2="BackgroundImageFix" result="effect1_dropShadow_233_17495"/>
<feColorMatrix in="SourceAlpha" type="matrix" values="0 0 0 0 0 0 0 0 0 0 0 0 0 0 0 0 0 0 127 0" result="hardAlpha"/>
<feOffset dx="-5"/>
<feGaussianBlur stdDeviation="2.5"/>
<feComposite in2="hardAlpha" operator="out"/>
<feColorMatrix type="matrix" values="0 0 0 0 0.0352941 0 0 0 0 0.0980392 0 0 0 0 0.439216 0 0 0 0.75 0"/>
<feBlend mode="normal" in2="effect1_dropShadow_233_17495" result="effect2_dropShadow_233_17495"/>
<feBlend mode="normal" in="SourceGraphic" in2="BackgroundImageFix" result="shape"/>
<feColorMatrix in="SourceAlpha" type="matrix" values="0 0 0 0 0 0 0 0 0 0 0 0 0 0 0 0 0 0 127 0" result="hardAlpha"/>
<feMorphology radius="4" operator="erode" in="SourceAlpha" result="effect3_innerShadow_233_17495"/>
<feOffset dx="1"/>
<feGaussianBlur stdDeviation="2.5"/>
<feComposite in2="hardAlpha" operator="arithmetic" k2="-1" k3="1"/>
<feColorMatrix type="matrix" values="0 0 0 0 0.0352941 0 0 0 0 0.0980392 0 0 0 0 0.439216 0 0 0 0.5 0"/>
<feBlend mode="normal" in2="shape" result="effect3_innerShadow_233_17495"/>
<feBlend mode="normal" in="effect3_innerShadow_233_17495" in2="effect2_dropShadow_233_17495" result="effect3_innerShadow_233_17495"/>
</filter>
<filter id="filter2_dd_233_17495" x="34" y="22" width="260" height="258" filterUnits="userSpaceOnUse" color-interpolation-filters="sRGB">
<feFlood flood-opacity="0" result="BackgroundImageFix"/>
<feColorMatrix in="SourceAlpha" type="matrix" values="0 0 0 0 0 0 0 0 0 0 0 0 0 0 0 0 0 0 127 0" result="hardAlpha"/>
<feOffset dx="5" dy="5"/>
<feGaussianBlur stdDeviation="12.5"/>
<feComposite in2="hardAlpha" operator="out"/>
<feColorMatrix type="matrix" values="0 0 0 0 0.0352941 0 0 0 0 0.407843 0 0 0 0 0.898039 0 0 0 0.5 0"/>
<feBlend mode="normal" in2="BackgroundImageFix" result="effect1_dropShadow_233_17495"/>
<feColorMatrix in="SourceAlpha" type="matrix" values="0 0 0 0 0 0 0 0 0 0 0 0 0 0 0 0 0 0 127 0" result="hardAlpha"/>
<feOffset dx="-8" dy="-6"/>
<feGaussianBlur stdDeviation="15"/>
<feComposite in2="hardAlpha" operator="out"/>
<feColorMatrix type="matrix" values="0 0 0 0 0.0352941 0 0 0 0 0.407843 0 0 0 0 0.898039 0 0 0 0.5 0"/>
<feBlend mode="normal" in2="effect1_dropShadow_233_17495" result="effect2_dropShadow_233_17495"/>
<feBlend mode="normal" in="BackgroundImageFix" in2="effect2_dropShadow_233_17495" result="BackgroundImageFix"/>
<feBlend mode="normal" in="SourceGraphic" in2="BackgroundImageFix" result="shape"/>
</filter>
<filter id="filter3_d_233_17495" x="109" y="98.668" width="118" height="118" filterUnits="userSpaceOnUse" color-interpolation-filters="sRGB">
<feFlood flood-opacity="0" result="BackgroundImageFix"/>
<feColorMatrix in="SourceAlpha" type="matrix" values="0 0 0 0 0 0 0 0 0 0 0 0 0 0 0 0 0 0 127 0" result="hardAlpha"/>
<feOffset dy="4"/>
<feGaussianBlur stdDeviation="2"/>
<feComposite in2="hardAlpha" operator="out"/>
<feColorMatrix type="matrix" values="0 0 0 0 0.0588235 0 0 0 0 0.317647 0 0 0 0 0.262745 0 0 0 0.25 0"/>
<feBlend mode="normal" in2="BackgroundImageFix" result="effect1_dropShadow_233_17495"/>
<feBlend mode="normal" in="BackgroundImageFix" in2="effect1_dropShadow_233_17495" result="BackgroundImageFix"/>
<feBlend mode="normal" in="SourceGraphic" in2="BackgroundImageFix" result="shape"/>
</filter>
<linearGradient id="paint0_linear_233_17495" x1="168" y1="4" x2="168" y2="304" gradientUnits="userSpaceOnUse">
<stop stop-color="#9CD6FF"/>
<stop offset="0.99375" stop-color="#21ACA3"/>
</linearGradient>
<linearGradient id="paint1_linear_233_17495" x1="168" y1="31.5" x2="168" y2="276.5" gradientUnits="userSpaceOnUse">
<stop stop-color="#0968E5"/>
<stop offset="0.99375" stop-color="#091970"/>
</linearGradient>
<linearGradient id="paint2_linear_233_17495" x1="168" y1="58" x2="168" y2="250" gradientUnits="userSpaceOnUse">
<stop stop-color="#0968E5"/>
<stop offset="0.99375" stop-color="#091970"/>
</linearGradient>
</defs>
</svg>
