<svg width="48" height="49" viewBox="0 0 48 49" fill="none" xmlns="http://www.w3.org/2000/svg">
<g clip-path="url(#clip0_173_12564)">
<g clip-path="url(#clip1_173_12564)">
<path fill-rule="evenodd" clip-rule="evenodd" d="M-0.0302607 19.0681C-0.0302607 20.9331 2.06074 22.6431 5.53674 23.9701C2.06074 25.2981 -0.0302607 27.0091 -0.0302607 28.8731C-0.0310989 29.1352 0.00939872 29.3957 0.0897393 29.6451C2.21974 38.6251 9.29474 45.6931 18.2827 47.8241C18.5349 47.9034 18.7974 47.9445 19.0617 47.9461C20.9287 47.9461 22.6407 45.8561 23.9697 42.3841L24.0097 42.2801C25.3397 45.7851 27.0537 47.9091 28.9267 47.9461C29.1723 47.9416 29.4159 47.9011 29.6497 47.8261C38.6407 45.6961 45.7187 38.6261 47.8497 29.6451C47.9278 29.3955 47.9683 29.1357 47.9697 28.8741C47.9697 27.0081 45.7797 25.2981 42.3037 23.9701C45.7797 22.6431 47.9207 20.9331 47.9207 19.0681C47.9217 18.8061 47.8812 18.5455 47.8007 18.2961C45.6697 9.31912 38.6327 2.25212 29.6597 0.119118L29.6497 0.116118C29.5116 0.0725471 29.3701 0.0404384 29.2267 0.0201177L29.2177 0.0181177C29.1051 0.00272673 28.9915 -0.00495779 28.8777 -0.00488226C27.0097 -0.00488226 25.2977 2.18312 23.9697 5.65512C22.6397 2.18312 20.9057 0.000117739 19.0377 0.000117739C18.9207 0.000117739 18.8047 0.00811774 18.6877 0.0251177C9.51174 2.03512 2.25674 9.17812 0.0927393 18.2891C0.0133204 18.5412 -0.0278045 18.8038 -0.0292607 19.0681H-0.0302607ZM26.6697 21.2711C26.5998 19.2627 26.4406 17.2584 26.1927 15.2641L32.6727 21.7361C30.6794 21.4941 28.6765 21.3389 26.6697 21.2711ZM21.8077 32.7251C21.5563 30.715 21.3942 28.6946 21.3217 26.6701C19.3002 26.6016 17.2826 26.4444 15.2747 26.1991L21.8077 32.7251Z" fill="url(#paint0_linear_173_12564)"/>
<path fill-rule="evenodd" clip-rule="evenodd" d="M-0.0302607 19.0681C-0.0302607 20.9331 2.06074 22.6431 5.53674 23.9701C2.06074 25.2981 -0.0302607 27.0091 -0.0302607 28.8731C-0.0310989 29.1352 0.00939872 29.3957 0.0897393 29.6451C2.21974 38.6251 9.29474 45.6931 18.2827 47.8241C18.5349 47.9034 18.7974 47.9445 19.0617 47.9461C20.9287 47.9461 22.6407 45.8561 23.9697 42.3841L24.0097 42.2801C25.3397 45.7851 27.0537 47.9091 28.9267 47.9461C29.1723 47.9416 29.4159 47.9011 29.6497 47.8261C38.6407 45.6961 45.7187 38.6261 47.8497 29.6451C47.9278 29.3955 47.9683 29.1357 47.9697 28.8741C47.9697 27.0081 45.7797 25.2981 42.3037 23.9701C45.7797 22.6431 47.9207 20.9331 47.9207 19.0681C47.9217 18.8061 47.8812 18.5455 47.8007 18.2961C45.6697 9.31912 38.6327 2.25212 29.6597 0.119118L29.6497 0.116118C29.5116 0.0725471 29.3701 0.0404384 29.2267 0.0201177L29.2177 0.0181177C29.1051 0.00272673 28.9915 -0.00495779 28.8777 -0.00488226C27.0097 -0.00488226 25.2977 2.18312 23.9697 5.65512C22.6397 2.18312 20.9057 0.000117739 19.0377 0.000117739C18.9207 0.000117739 18.8047 0.00811774 18.6877 0.0251177C9.51174 2.03512 2.25674 9.17812 0.0927393 18.2891C0.0133204 18.5412 -0.0278045 18.8038 -0.0292607 19.0681H-0.0302607ZM26.6697 21.2711C26.5998 19.2627 26.4406 17.2584 26.1927 15.2641L32.6727 21.7361C30.6794 21.4941 28.6765 21.3389 26.6697 21.2711ZM21.8077 32.7251C21.5563 30.715 21.3942 28.6946 21.3217 26.6701C19.3002 26.6016 17.2826 26.4444 15.2747 26.1991L21.8077 32.7251Z" fill="white" fill-opacity="0.05"/>
<path d="M28.8777 -0.00488006C27.0097 -0.00488006 25.2977 2.18312 23.9697 5.65512C24.9487 8.21212 25.7197 11.5031 26.1927 15.2641L32.6727 21.7361L36.5167 25.5771C36.5284 25.0415 36.5344 24.5058 36.5347 23.9701C36.5347 11.5831 33.5217 1.35012 29.6607 0.12012L29.6507 0.11612C29.5123 0.0724958 29.3705 0.0403866 29.2267 0.0201199L29.2197 0.0181199C29.1064 0.00263476 28.9921 -0.00504998 28.8777 -0.00488006Z" fill="white" fill-opacity="0.1"/>
<path d="M29.2277 47.921C29.3697 47.901 29.5107 47.869 29.6507 47.825C32.2057 47.022 34.3907 42.275 35.5787 35.567L26.6707 26.667C24.8887 26.7313 23.1049 26.7323 21.3227 26.67C21.4007 28.784 21.5667 30.815 21.8087 32.725L25.5917 36.505C25.1647 38.687 24.6297 40.638 24.0107 42.28C25.3397 45.784 27.0537 47.909 28.9277 47.945C29.0277 47.943 29.1277 47.935 29.2277 47.921Z" fill="white" fill-opacity="0.2"/>
<path d="M47.9207 19.117C47.9207 20.982 45.7807 22.692 42.3047 24.02C40.6567 24.65 38.7037 25.193 36.5177 25.626C36.5277 25.096 36.5347 24.559 36.5347 24.02C36.5347 11.632 33.5217 1.39997 29.6607 0.167969C38.6337 2.30097 45.6707 9.36797 47.8007 18.345C47.8337 18.485 47.8657 18.626 47.8967 18.767C47.9129 18.8829 47.9209 18.9999 47.9207 19.117Z" fill="url(#paint1_linear_173_12564)" fill-opacity="0.32"/>
<path d="M5.53673 24.0203C2.06173 22.6923 -0.0302734 20.9823 -0.0302734 19.1173C-0.0302734 19.0003 -0.0222734 18.8843 -0.00627344 18.7693C0.0257266 18.6253 0.0577266 18.4813 0.0917266 18.3393C2.25573 9.22634 9.51073 2.08534 18.6897 0.0733398C18.8057 0.0568192 18.9226 0.0484653 19.0397 0.0483398C20.9057 0.0493398 22.6397 2.23234 23.9697 5.70534C24.9487 8.26234 25.7197 11.5533 26.1937 15.3143C26.4413 17.3086 26.6002 19.3129 26.6697 21.3213C26.7345 23.1198 26.7345 24.9199 26.6697 26.7183C24.8876 26.7823 23.1039 26.783 21.3217 26.7203C19.3001 26.6519 17.2825 26.4947 15.2747 26.2493C11.4587 25.7773 8.10973 25.0023 5.53673 24.0203Z" fill="url(#paint2_linear_173_12564)" fill-opacity="0.32"/>
<path d="M47.8497 29.6943C45.7187 38.6763 38.6407 45.7463 29.6497 47.8743C32.2057 47.0713 34.3907 42.3243 35.5787 35.6163C42.2927 34.4303 47.0457 32.2463 47.8497 29.6943Z" fill="url(#paint3_linear_173_12564)" fill-opacity="0.32"/>
<path d="M0.0897217 29.6944C1.30772 33.5554 11.5577 36.5714 23.9697 36.5714C24.5147 36.5714 25.0557 36.5654 25.5917 36.5544C25.1647 38.7364 24.6297 40.6874 24.0097 42.3294L23.9697 42.4334C22.6407 45.9054 20.9297 47.9954 19.0617 47.9954C18.9453 47.9955 18.829 47.9875 18.7137 47.9714L18.6907 47.9664L18.2827 47.8734C9.29472 45.7434 2.22072 38.6734 0.0907217 29.6934L0.0897217 29.6944Z" fill="url(#paint4_linear_173_12564)" fill-opacity="0.32"/>
</g>
</g>
<defs>
<linearGradient id="paint0_linear_173_12564" x1="-0.0302616" y1="47.9951" x2="38.4697" y2="-0.00488254" gradientUnits="userSpaceOnUse">
<stop stop-color="#8636F8"/>
<stop offset="0.333" stop-color="#06DDB3"/>
<stop offset="0.667" stop-color="#0095FF"/>
<stop offset="1" stop-color="#0095FF"/>
</linearGradient>
<linearGradient id="paint1_linear_173_12564" x1="32.9287" y1="0.525968" x2="18.6347" y2="57.402" gradientUnits="userSpaceOnUse">
<stop offset="0.494" stop-color="white"/>
<stop offset="1" stop-color="white" stop-opacity="0.4"/>
</linearGradient>
<linearGradient id="paint2_linear_173_12564" x1="32.9287" y1="0.52634" x2="18.6347" y2="57.4023" gradientUnits="userSpaceOnUse">
<stop offset="0.494" stop-color="white"/>
<stop offset="1" stop-color="white" stop-opacity="0.4"/>
</linearGradient>
<linearGradient id="paint3_linear_173_12564" x1="32.9287" y1="0.526333" x2="18.6347" y2="57.4023" gradientUnits="userSpaceOnUse">
<stop offset="0.494" stop-color="white"/>
<stop offset="1" stop-color="white" stop-opacity="0.4"/>
</linearGradient>
<linearGradient id="paint4_linear_173_12564" x1="32.9287" y1="0.526355" x2="18.6347" y2="57.4024" gradientUnits="userSpaceOnUse">
<stop offset="0.494" stop-color="white"/>
<stop offset="1" stop-color="white" stop-opacity="0.4"/>
</linearGradient>
<clipPath id="clip0_173_12564">
<rect width="48" height="48.99" fill="white"/>
</clipPath>
<clipPath id="clip1_173_12564">
<rect width="48" height="48" fill="white" transform="translate(-0.0302734 -0.00488281)"/>
</clipPath>
</defs>
</svg>
