<svg width="48" height="48" viewBox="0 0 48 48" fill="none" xmlns="http://www.w3.org/2000/svg">
<g clip-path="url(#clip0_450_850)">
<path d="M5.771 34.512L21.275 43.471V40.591L10.93 34.61L21.275 28.637V25.545L8.267 33.055V33.071L5.771 34.512Z" fill="url(#paint0_linear_450_850)"/>
<path d="M5.771 34.512L21.275 43.471V40.591L10.93 34.61L21.275 28.637V25.545L8.267 33.055V33.071L5.771 34.512Z" fill="url(#paint1_linear_450_850)"/>
<path d="M36.9861 34.617L26.6311 40.602V43.482L42.1561 34.512V34.504L26.6321 25.546V28.638L36.9861 34.617Z" fill="url(#paint2_linear_450_850)"/>
<path d="M36.9861 34.617L26.6311 40.602V43.482L42.1561 34.512V34.504L26.6321 25.546V28.638L36.9861 34.617Z" fill="url(#paint3_linear_450_850)"/>
<path d="M39.4811 11.943L23.9641 2.97601L23.9581 2.97901L23.9541 20.907L26.6311 19.362V7.39801L36.9871 13.383L39.4811 11.943Z" fill="url(#paint4_linear_450_850)"/>
<path d="M39.4811 11.943L23.9641 2.97601L23.9581 2.97901L23.9541 20.907L26.6311 19.362V7.39801L36.9871 13.383L39.4811 11.943Z" fill="url(#paint5_linear_450_850)"/>
<path d="M26.6321 25.546L42.1561 34.504V16.584L39.6601 18.024V29.976L29.3101 24L26.6321 25.546Z" fill="url(#paint6_linear_450_850)"/>
<path d="M26.6321 25.546L42.1561 34.504V16.584L39.6601 18.024V29.976L29.3101 24L26.6321 25.546Z" fill="url(#paint7_linear_450_850)"/>
<path d="M23.953 2.98199L8.43604 11.949L10.93 13.389L21.275 7.40899V19.362L23.955 20.907L23.953 2.98199Z" fill="url(#paint8_linear_450_850)"/>
<path d="M23.953 2.98199L8.43604 11.949L10.93 13.389L21.275 7.40899V19.362L23.955 20.907L23.953 2.98199Z" fill="url(#paint9_linear_450_850)"/>
<path d="M8.267 29.964V18.036L5.771 16.595V34.512L8.267 33.072V33.056L21.275 25.546L18.597 24L8.267 29.964Z" fill="url(#paint10_linear_450_850)"/>
<path d="M8.267 29.964V18.036L5.771 16.595V34.512L8.267 33.072V33.056L21.275 25.546L18.597 24L8.267 29.964Z" fill="url(#paint11_linear_450_850)"/>
<path fill-rule="evenodd" clip-rule="evenodd" d="M3.17993 12.006V35.994L23.9529 47.987V24L3.17993 12.006ZM8.26693 18.036L18.5969 24L21.2749 25.546V43.47L5.77093 34.513V16.595L8.26693 18.036Z" fill="url(#paint12_linear_450_850)"/>
<path fill-rule="evenodd" clip-rule="evenodd" d="M3.17993 12.006V35.994L23.9529 47.987V24L3.17993 12.006ZM8.26693 18.036L18.5969 24L21.2749 25.546V43.47L5.77093 34.513V16.595L8.26693 18.036Z" fill="url(#paint13_linear_450_850)"/>
<path fill-rule="evenodd" clip-rule="evenodd" d="M23.9639 24L30.3639 20.301L24.1089 23.911L23.9529 24V24.592L23.9589 47.984L44.7279 35.994V12.012L23.9639 24ZM26.6309 40.602V25.546L29.3099 24L39.6599 18.024L42.1569 16.584V34.512L26.6319 43.482L26.6309 40.602Z" fill="url(#paint14_linear_450_850)"/>
<path fill-rule="evenodd" clip-rule="evenodd" d="M23.9639 24L30.3639 20.301L24.1089 23.911L23.9529 24V24.592L23.9589 47.984L44.7279 35.994V12.012L23.9639 24ZM26.6309 40.602V25.546L29.3099 24L39.6599 18.024L42.1569 16.584V34.512L26.6319 43.482L26.6309 40.602Z" fill="url(#paint15_linear_450_850)"/>
<path d="M24.11 23.91L44.723 12.003L23.959 0.0149934L23.958 2.97899L23.964 2.97599L39.481 11.943L36.987 13.383L26.631 19.362L23.954 20.907L21.275 19.362L10.93 13.389L8.43604 11.949L23.953 2.98199L23.954 0.0119934L3.18604 12.003L23.953 24L24.109 23.91H24.11Z" fill="url(#paint16_linear_450_850)"/>
<path d="M24.11 23.91L44.723 12.003L23.959 0.0149934L23.958 2.97899L23.964 2.97599L39.481 11.943L36.987 13.383L26.631 19.362L23.954 20.907L21.275 19.362L10.93 13.389L8.43604 11.949L23.953 2.98199L23.954 0.0119934L3.18604 12.003L23.953 24L24.109 23.91H24.11Z" fill="url(#paint17_linear_450_850)"/>
<path d="M5.77002 34.512L21.273 43.471V40.591L10.928 34.611L21.273 28.638V25.546L8.26602 33.056V33.072L5.77002 34.512Z" fill="url(#paint18_linear_450_850)"/>
<path d="M36.9839 34.617L26.6299 40.602V43.482L42.1539 34.512V34.504L26.6299 25.546V28.638L36.9839 34.617Z" fill="url(#paint19_linear_450_850)"/>
<path d="M39.4799 11.943L23.9629 2.97601L23.9569 2.97901L23.9529 20.907L26.6299 19.362V7.39801L36.9859 13.383L39.4799 11.943Z" fill="url(#paint20_linear_450_850)"/>
<path d="M26.6311 25.546L42.1551 34.504V16.583L39.6591 18.024V29.976L29.3091 24L26.6311 25.546Z" fill="url(#paint21_linear_450_850)"/>
<path d="M23.9511 2.98199L8.43408 11.949L10.9281 13.389L21.2731 7.40899V19.362L23.9511 20.908V2.98199Z" fill="url(#paint22_linear_450_850)"/>
<path d="M8.26602 29.964V18.036L5.77002 16.595V34.512L8.26602 33.072V33.056L21.273 25.546L18.595 24L8.26602 29.964Z" fill="url(#paint23_linear_450_850)" fill-opacity="0.6"/>
<path fill-rule="evenodd" clip-rule="evenodd" d="M3.17993 12.006V35.994L23.9529 47.988V24L3.17993 12.006ZM8.26793 18.036L18.5979 24L21.2759 25.546V43.47L5.77193 34.513V16.595L8.26793 18.036Z" fill="url(#paint24_linear_450_850)" fill-opacity="0.6"/>
<path fill-rule="evenodd" clip-rule="evenodd" d="M3.17993 12.006V35.994L23.9529 47.988V24L3.17993 12.006ZM8.26793 18.036L18.5979 24L21.2759 25.546V43.47L5.77193 34.513V16.595L8.26793 18.036Z" fill="url(#paint25_linear_450_850)" fill-opacity="0.4"/>
<path fill-rule="evenodd" clip-rule="evenodd" d="M31.5499 19.616L23.9629 24L30.3629 20.301L24.1079 23.911L23.9529 24V24.593L23.9579 47.985L44.7279 35.994V12.012L31.5499 19.616ZM26.6299 40.602V25.546L29.3099 24L39.6599 18.024L42.1559 16.584V34.512L26.6319 43.482V40.602H26.6299Z" fill="url(#paint26_linear_450_850)" fill-opacity="0.6"/>
<path fill-rule="evenodd" clip-rule="evenodd" d="M31.5499 19.616L23.9629 24L30.3629 20.301L24.1079 23.911L23.9529 24V24.593L23.9579 47.985L44.7279 35.994V12.012L31.5499 19.616ZM26.6299 40.602V25.546L29.3099 24L39.6599 18.024L42.1559 16.584V34.512L26.6319 43.482V40.602H26.6299Z" fill="url(#paint27_linear_450_850)" fill-opacity="0.2"/>
<path d="M24.1081 23.91L44.7201 12.003L23.9581 0.0159934L23.9571 2.97899L23.9621 2.97599L39.4801 11.943L36.9851 13.383L26.6301 19.362L23.9531 20.908L21.2741 19.362L10.9291 13.389L8.43408 11.949L23.9521 2.98199V0.0119934L3.18408 12.003L23.9521 24L24.1081 23.91Z" fill="url(#paint28_linear_450_850)" fill-opacity="0.5"/>
</g>
<defs>
<linearGradient id="paint0_linear_450_850" x1="5.771" y1="42.356" x2="36.7805" y2="42.356" gradientUnits="userSpaceOnUse">
<stop stop-color="#0957A0"/>
<stop offset="1" stop-color="#06DDB3"/>
</linearGradient>
<linearGradient id="paint1_linear_450_850" x1="5.771" y1="42.356" x2="36.7805" y2="42.356" gradientUnits="userSpaceOnUse">
<stop stop-color="#0957A0"/>
<stop offset="1" stop-color="#06DDB3"/>
</linearGradient>
<linearGradient id="paint2_linear_450_850" x1="26.6311" y1="42.3664" x2="57.6826" y2="42.3664" gradientUnits="userSpaceOnUse">
<stop stop-color="#0957A0"/>
<stop offset="1" stop-color="#06DDB3"/>
</linearGradient>
<linearGradient id="paint3_linear_450_850" x1="26.6311" y1="42.3664" x2="57.6826" y2="42.3664" gradientUnits="userSpaceOnUse">
<stop stop-color="#0957A0"/>
<stop offset="1" stop-color="#06DDB3"/>
</linearGradient>
<linearGradient id="paint4_linear_450_850" x1="23.9541" y1="19.7917" x2="55.0096" y2="19.7917" gradientUnits="userSpaceOnUse">
<stop stop-color="#0957A0"/>
<stop offset="1" stop-color="#06DDB3"/>
</linearGradient>
<linearGradient id="paint5_linear_450_850" x1="23.9541" y1="19.7917" x2="55.0096" y2="19.7917" gradientUnits="userSpaceOnUse">
<stop stop-color="#0957A0"/>
<stop offset="1" stop-color="#06DDB3"/>
</linearGradient>
<linearGradient id="paint6_linear_450_850" x1="26.6321" y1="33.3894" x2="57.6816" y2="33.3894" gradientUnits="userSpaceOnUse">
<stop stop-color="#0957A0"/>
<stop offset="1" stop-color="#06DDB3"/>
</linearGradient>
<linearGradient id="paint7_linear_450_850" x1="26.6321" y1="33.3894" x2="57.6816" y2="33.3894" gradientUnits="userSpaceOnUse">
<stop stop-color="#0957A0"/>
<stop offset="1" stop-color="#06DDB3"/>
</linearGradient>
<linearGradient id="paint8_linear_450_850" x1="8.43604" y1="19.7921" x2="39.4755" y2="19.7921" gradientUnits="userSpaceOnUse">
<stop stop-color="#0957A0"/>
<stop offset="1" stop-color="#06DDB3"/>
</linearGradient>
<linearGradient id="paint9_linear_450_850" x1="8.43604" y1="19.7921" x2="39.4755" y2="19.7921" gradientUnits="userSpaceOnUse">
<stop stop-color="#0957A0"/>
<stop offset="1" stop-color="#06DDB3"/>
</linearGradient>
<linearGradient id="paint10_linear_450_850" x1="5.771" y1="33.3976" x2="36.7805" y2="33.3976" gradientUnits="userSpaceOnUse">
<stop stop-color="#0957A0"/>
<stop offset="1" stop-color="#06DDB3"/>
</linearGradient>
<linearGradient id="paint11_linear_450_850" x1="5.771" y1="33.3976" x2="36.7805" y2="33.3976" gradientUnits="userSpaceOnUse">
<stop stop-color="#0957A0"/>
<stop offset="1" stop-color="#06DDB3"/>
</linearGradient>
<linearGradient id="paint12_linear_450_850" x1="3.17993" y1="45.749" x2="44.7279" y2="45.749" gradientUnits="userSpaceOnUse">
<stop stop-color="#0957A0"/>
<stop offset="1" stop-color="#06DDB3"/>
</linearGradient>
<linearGradient id="paint13_linear_450_850" x1="3.17993" y1="45.749" x2="44.7279" y2="45.749" gradientUnits="userSpaceOnUse">
<stop stop-color="#0957A0"/>
<stop offset="1" stop-color="#06DDB3"/>
</linearGradient>
<linearGradient id="paint14_linear_450_850" x1="23.9529" y1="45.7466" x2="65.5049" y2="45.7466" gradientUnits="userSpaceOnUse">
<stop stop-color="#0957A0"/>
<stop offset="1" stop-color="#06DDB3"/>
</linearGradient>
<linearGradient id="paint15_linear_450_850" x1="23.9529" y1="45.7466" x2="65.5049" y2="45.7466" gradientUnits="userSpaceOnUse">
<stop stop-color="#0957A0"/>
<stop offset="1" stop-color="#06DDB3"/>
</linearGradient>
<linearGradient id="paint16_linear_450_850" x1="3.18604" y1="22.508" x2="86.264" y2="22.508" gradientUnits="userSpaceOnUse">
<stop stop-color="#0957A0"/>
<stop offset="1" stop-color="#06DDB3"/>
</linearGradient>
<linearGradient id="paint17_linear_450_850" x1="3.18604" y1="22.508" x2="86.264" y2="22.508" gradientUnits="userSpaceOnUse">
<stop stop-color="#0957A0"/>
<stop offset="1" stop-color="#06DDB3"/>
</linearGradient>
<linearGradient id="paint18_linear_450_850" x1="5.77002" y1="42.3561" x2="36.7775" y2="42.3561" gradientUnits="userSpaceOnUse">
<stop stop-color="#0957A0"/>
<stop offset="1" stop-color="#06DDB3"/>
</linearGradient>
<linearGradient id="paint19_linear_450_850" x1="26.6299" y1="42.3664" x2="57.6794" y2="42.3664" gradientUnits="userSpaceOnUse">
<stop stop-color="#0957A0"/>
<stop offset="1" stop-color="#06DDB3"/>
</linearGradient>
<linearGradient id="paint20_linear_450_850" x1="23.9529" y1="19.7917" x2="55.0084" y2="19.7917" gradientUnits="userSpaceOnUse">
<stop stop-color="#0957A0"/>
<stop offset="1" stop-color="#06DDB3"/>
</linearGradient>
<linearGradient id="paint21_linear_450_850" x1="26.6311" y1="33.3893" x2="57.6806" y2="33.3893" gradientUnits="userSpaceOnUse">
<stop stop-color="#0957A0"/>
<stop offset="1" stop-color="#06DDB3"/>
</linearGradient>
<linearGradient id="paint22_linear_450_850" x1="8.43408" y1="19.793" x2="39.4696" y2="19.793" gradientUnits="userSpaceOnUse">
<stop stop-color="#0957A0"/>
<stop offset="1" stop-color="#06DDB3"/>
</linearGradient>
<linearGradient id="paint23_linear_450_850" x1="14.861" y1="-7.797" x2="14.861" y2="34.512" gradientUnits="userSpaceOnUse">
<stop offset="0.693" stop-color="white" stop-opacity="0"/>
<stop offset="1" stop-color="white"/>
</linearGradient>
<linearGradient id="paint24_linear_450_850" x1="10.0009" y1="45.5" x2="4.08393" y2="26.497" gradientUnits="userSpaceOnUse">
<stop stop-color="white"/>
<stop offset="1" stop-color="white" stop-opacity="0"/>
</linearGradient>
<linearGradient id="paint25_linear_450_850" x1="14.0009" y1="16" x2="13.4969" y2="30.5" gradientUnits="userSpaceOnUse">
<stop stop-color="white"/>
<stop offset="1" stop-color="white" stop-opacity="0"/>
</linearGradient>
<linearGradient id="paint26_linear_450_850" x1="37.9999" y1="37" x2="21.4919" y2="23.509" gradientUnits="userSpaceOnUse">
<stop stop-color="white"/>
<stop offset="1" stop-color="white" stop-opacity="0"/>
</linearGradient>
<linearGradient id="paint27_linear_450_850" x1="24.9999" y1="27.5" x2="34.0039" y2="33.495" gradientUnits="userSpaceOnUse">
<stop stop-color="white"/>
<stop offset="1" stop-color="white" stop-opacity="0"/>
</linearGradient>
<linearGradient id="paint28_linear_450_850" x1="23.9521" y1="-8.18801" x2="23.9521" y2="24" gradientUnits="userSpaceOnUse">
<stop stop-color="white"/>
<stop offset="1" stop-color="white" stop-opacity="0"/>
</linearGradient>
<clipPath id="clip0_450_850">
<rect width="48" height="48" fill="white"/>
</clipPath>
</defs>
</svg>
